<mxfile host="app.diagrams.net" agent="Mozilla/5.0 (X11; Linux x86_64) AppleWebKit/537.36 (KHTML, like Gecko) Chrome/131.0.0.0 Safari/537.36" version="26.0.16">
  <diagram name="Page-1" id="KYa06X6QOu7nH7jKvK9Y">
    <mxGraphModel grid="1" page="1" gridSize="10" guides="1" tooltips="1" connect="1" arrows="1" fold="1" pageScale="1" pageWidth="3300" pageHeight="2339" math="1" shadow="0">
      <root>
        <mxCell id="0" />
        <mxCell id="1" parent="0" />
        <mxCell id="hVZLC0Kb5BfLQizBKbEV-122" value="" style="endArrow=classic;html=1;rounded=0;fontFamily=Helvetica;fontSize=11;fontColor=#333333;labelBorderColor=none;endSize=2;" edge="1" parent="1">
          <mxGeometry width="50" height="50" relative="1" as="geometry">
            <mxPoint x="399" y="604.5" as="sourcePoint" />
            <mxPoint x="429" y="604.5" as="targetPoint" />
          </mxGeometry>
        </mxCell>
        <mxCell id="hVZLC0Kb5BfLQizBKbEV-121" style="edgeStyle=orthogonalEdgeStyle;rounded=0;orthogonalLoop=1;jettySize=auto;html=1;fontFamily=Helvetica;fontSize=11;fontColor=#333333;labelBorderColor=none;endSize=2;" edge="1" parent="1">
          <mxGeometry relative="1" as="geometry">
            <mxPoint x="700" y="605.4" as="sourcePoint" />
            <mxPoint x="720" y="605.4" as="targetPoint" />
          </mxGeometry>
        </mxCell>
        <mxCell id="hVZLC0Kb5BfLQizBKbEV-50" value="&lt;b&gt;&lt;font style=&quot;font-size: 10px;&quot;&gt;News Articles&lt;/font&gt;&lt;/b&gt;" style="text;html=1;align=center;verticalAlign=middle;whiteSpace=wrap;rounded=0;" vertex="1" parent="1">
          <mxGeometry x="332" y="541" width="85" height="19" as="geometry" />
        </mxCell>
        <mxCell id="hVZLC0Kb5BfLQizBKbEV-52" value="&lt;b&gt;&lt;font style=&quot;font-size: 10px;&quot;&gt;&lt;span style=&quot;text-align: center;&quot;&gt;Standardized&amp;nbsp;&lt;/span&gt;&lt;span style=&quot;text-align: center;&quot;&gt;Prompt&lt;/span&gt;&lt;/font&gt;&lt;/b&gt;" style="text;whiteSpace=wrap;html=1;" vertex="1" parent="1">
          <mxGeometry x="497" y="539" width="140" height="30" as="geometry" />
        </mxCell>
        <mxCell id="hVZLC0Kb5BfLQizBKbEV-56" value="" style="rounded=1;whiteSpace=wrap;html=1;align=left;fillColor=#e1d5e7;strokeColor=none;" vertex="1" parent="1">
          <mxGeometry x="855" y="561" width="145" height="83" as="geometry" />
        </mxCell>
        <mxCell id="hVZLC0Kb5BfLQizBKbEV-64" value="&lt;font style=&quot;font-size: 8px;&quot;&gt;&lt;font style=&quot;&quot;&gt;&lt;b style=&quot;&quot;&gt;&lt;font style=&quot;color: rgb(204, 102, 0);&quot;&gt;&amp;nbsp;News Title&lt;/font&gt;&lt;/b&gt;&lt;/font&gt;&lt;/font&gt;&lt;div style=&quot;&quot;&gt;&lt;font style=&quot;font-size: 8px;&quot;&gt;&lt;b style=&quot;background-color: transparent;&quot;&gt;&lt;font style=&quot;color: rgb(204, 102, 0);&quot;&gt;&amp;nbsp;News Body&lt;/font&gt;&lt;/b&gt;&lt;/font&gt;&lt;/div&gt;" style="text;html=1;align=left;verticalAlign=middle;whiteSpace=wrap;rounded=1;fillColor=#f5f5f5;strokeColor=none;strokeWidth=0.6;spacingLeft=36;spacingRight=1;fontSize=11;spacing=1;textShadow=0;labelBorderColor=none;shadow=0;glass=0;fillOpacity=100;strokeOpacity=100;fontColor=#333333;" vertex="1" parent="1">
          <mxGeometry x="327" y="582" width="90" height="45" as="geometry" />
        </mxCell>
        <mxCell id="hVZLC0Kb5BfLQizBKbEV-66" value="&lt;font style=&quot;font-size: 7px;&quot;&gt;Given the title and content of a healthcare news article, analyze whether the claims align with plausible scenarios and whether the article maintains internal consistency. Check for misleading or unclear statements, and conclude whether the news is real or fake.&amp;nbsp;&lt;/font&gt;&lt;div&gt;&lt;font style=&quot;font-size: 7px;&quot;&gt;News Title:&lt;font&gt; &lt;b style=&quot;&quot;&gt;&lt;font style=&quot;color: rgb(204, 102, 0);&quot;&gt;{News Title}&lt;/font&gt;&lt;/b&gt;&lt;/font&gt;&lt;font style=&quot;color: rgb(204, 102, 0);&quot;&gt;&amp;nbsp;&lt;/font&gt;&lt;/font&gt;&lt;/div&gt;&lt;div&gt;&lt;font style=&quot;font-size: 7px;&quot;&gt;News Content: &lt;font&gt;&lt;b style=&quot;&quot;&gt;&lt;font style=&quot;color: rgb(204, 102, 0);&quot;&gt;{News Body}&amp;nbsp;&lt;/font&gt;&lt;/b&gt;&lt;/font&gt;&lt;/font&gt;&lt;/div&gt;&lt;div&gt;&lt;font style=&quot;font-size: 7px;&quot;&gt;Conclusion:&lt;/font&gt;&lt;/div&gt;" style="text;html=1;align=left;verticalAlign=middle;whiteSpace=wrap;rounded=1;fillColor=#dae8fc;strokeColor=none;strokeWidth=0.6;spacingLeft=36;spacingRight=1;fontSize=11;spacing=1;" vertex="1" parent="1">
          <mxGeometry x="429" y="560" width="275" height="91" as="geometry" />
        </mxCell>
        <mxCell id="hVZLC0Kb5BfLQizBKbEV-67" value="" style="editableCssRules=.*;html=1;shape=image;verticalLabelPosition=bottom;labelBackgroundColor=#ffffff;verticalAlign=top;aspect=fixed;imageAspect=0;image=data:image/svg+xml,PHN2ZyB4bWxucz0iaHR0cDovL3d3dy53My5vcmcvMjAwMC9zdmciIHhtbG5zOnY9Imh0dHBzOi8vdmVjdGEuaW8vbmFubyIgd2lkdGg9IjE3IiBoZWlnaHQ9IjE4IiB2aWV3Qm94PSIwIDAgMTcgMTgiPiYjeGE7CTxzdHlsZSB0eXBlPSJ0ZXh0L2NzcyI+JiN4YTsJLnN0MHtmaWxsOiM0Mjg1ZjQ7fSYjeGE7CTwvc3R5bGU+JiN4YTsJPHBhdGggY2xhc3M9InN0MCIgZD0iTTExIDE2aDJ2MmgtMnptNCAwaDJ2MmgtMnptMC04aDJ2MmgtMnptLTQtOGgydjJoLTJ6bTQgMGgydjJoLTJ6TTMuNTcgNy4zMkw3IDE0bDMtNGgzVjhIOWwtMS43NCAyLjM0TDQgNCAyIDYuMjFWMmg3VjBIMmEyIDIgMCAwIDAtMiAydjE0YTIgMiAwIDAgMCAyIDJoN3YtMkgyVjl6Ii8+JiN4YTs8L3N2Zz4=;" vertex="1" parent="1">
          <mxGeometry x="433" y="565" width="28.33" height="30" as="geometry" />
        </mxCell>
        <mxCell id="hVZLC0Kb5BfLQizBKbEV-78" value="" style="shape=mxgraph.signs.healthcare.medical_records;html=1;pointerEvents=1;fillColor=#f0a30a;strokeColor=#BD7000;verticalLabelPosition=bottom;verticalAlign=top;align=center;rounded=1;shadow=0;glass=0;strokeWidth=0.6;spacingLeft=36;spacingRight=1;spacing=1;fontFamily=Helvetica;fontSize=11;labelBorderColor=none;aspect=fixed;fontColor=#000000;" vertex="1" parent="1">
          <mxGeometry x="330" y="586.4999999999999" width="35" height="35" as="geometry" />
        </mxCell>
        <mxCell id="hVZLC0Kb5BfLQizBKbEV-88" value="" style="shape=image;verticalLabelPosition=bottom;labelBackgroundColor=default;verticalAlign=top;imageAspect=0;image=data:image/jpeg,/9j/4AAQSkZJRgABAQAAAQABAAD/4QDaRXhpZgAASUkqAAgAAAAHABIBAwABAAAAAQAAABoBBQABAAAAYgAAABsBBQABAAAAagAAACgBAwABAAAAAgAAADEBAgARAAAAcgAAABMCAwABAAAAAQAAAGmHBAABAAAAhAAAAAAAAABIAAAAAQAAAEgAAAABAAAAU2hvdHdlbGwgMC4zMC4xMQAABgAAkAcABAAAADAyMTABkQcABAAAAAECAwAAoAcABAAAADAxMDABoAMAAQAAAP//AAACoAkAAQAAAI8CAAADoAkAAQAAAJcCAAAAAAAA/+EJ9Gh0dHA6Ly9ucy5hZG9iZS5jb20veGFwLzEuMC8APD94cGFja2V0IGJlZ2luPSLvu78iIGlkPSJXNU0wTXBDZWhpSHpyZVN6TlRjemtjOWQiPz4gPHg6eG1wbWV0YSB4bWxuczp4PSJhZG9iZTpuczptZXRhLyIgeDp4bXB0az0iWE1QIENvcmUgNC40LjAtRXhpdjIiPiA8cmRmOlJERiB4bWxuczpyZGY9Imh0dHA6Ly93d3cudzMub3JnLzE5OTkvMDIvMjItcmRmLXN5bnRheC1ucyMiPiA8cmRmOkRlc2NyaXB0aW9uIHJkZjphYm91dD0iIiB4bWxuczpleGlmPSJodHRwOi8vbnMuYWRvYmUuY29tL2V4aWYvMS4wLyIgeG1sbnM6dGlmZj0iaHR0cDovL25zLmFkb2JlLmNvbS90aWZmLzEuMC8iIGV4aWY6UGl4ZWxYRGltZW5zaW9uPSI2NTUiIGV4aWY6UGl4ZWxZRGltZW5zaW9uPSI2NjMiIHRpZmY6SW1hZ2VXaWR0aD0iNjU1IiB0aWZmOkltYWdlSGVpZ2h0PSI2NjMiIHRpZmY6T3JpZW50YXRpb249IjEiLz4gPC9yZGY6UkRGPiA8L3g6eG1wbWV0YT4gICAgICAgICAgICAgICAgICAgICAgICAgICAgICAgICAgICAgICAgICAgICAgICAgICAgICAgICAgICAgICAgICAgICAgICAgICAgICAgICAgICAgICAgICAgICAgICAgICAgICAgICAgICAgICAgICAgICAgICAgICAgICAgICAgICAgICAgICAgICAgICAgICAgICAgICAgICAgICAgICAgICAgICAgICAgICAgICAgICAgICAgICAgICAgICAgICAgICAgICAgICAgICAgICAgICAgICAgICAgICAgICAgICAgICAgICAgICAgICAgICAgICAgICAgICAgICAgICAgICAgICAgICAgICAgICAgICAgICAgICAgICAgICAgICAgICAgICAgICAgICAgICAgICAgICAgICAgICAgICAgICAgICAgICAgICAgICAgICAgICAgICAgICAgICAgICAgICAgICAgICAgICAgICAgICAgICAgICAgICAgICAgICAgICAgICAgICAgICAgICAgICAgICAgICAgICAgICAgICAgICAgICAgICAgICAgICAgICAgICAgICAgICAgICAgICAgICAgICAgICAgICAgICAgICAgICAgICAgICAgICAgICAgICAgICAgICAgICAgICAgICAgICAgICAgICAgICAgICAgICAgICAgICAgICAgICAgICAgICAgICAgICAgICAgICAgICAgICAgICAgICAgICAgICAgICAgICAgICAgICAgICAgICAgICAgICAgICAgICAgICAgICAgICAgICAgICAgICAgICAgICAgICAgICAgICAgICAgICAgICAgICAgICAgICAgICAgICAgICAgICAgICAgICAgICAgICAgICAgICAgICAgICAgICAgICAgICAgICAgICAgICAgICAgICAgICAgICAgICAgICAgICAgICAgICAgICAgICAgICAgICAgICAgICAgICAgICAgICAgICAgICAgICAgICAgICAgICAgICAgICAgICAgICAgICAgICAgICAgICAgICAgICAgICAgICAgICAgICAgICAgICAgICAgICAgICAgICAgICAgICAgICAgICAgICAgICAgICAgICAgICAgICAgICAgICAgICAgICAgICAgICAgICAgICAgICAgICAgICAgICAgICAgICAgICAgICAgICAgICAgICAgICAgICAgICAgICAgICAgICAgICAgICAgICAgICAgICAgICAgICAgICAgICAgICAgICAgICAgICAgICAgICAgICAgICAgICAgICAgICAgICAgICAgICAgICAgICAgICAgICAgICAgICAgICAgICAgICAgICAgICAgICAgICAgICAgICAgICAgICAgICAgICAgICAgICAgICAgICAgICAgICAgICAgICAgICAgICAgICAgICAgICAgICAgICAgICAgICAgICAgICAgICAgICAgICAgICAgICAgICAgICAgICAgICAgICAgICAgICAgICAgICAgICAgICAgICAgICAgICAgICAgICAgICAgICAgICAgICAgICAgICAgICAgICAgICAgICAgICAgICAgICAgICAgICAgICAgICAgICAgICAgICAgICAgICAgICAgICAgICAgICAgICAgICAgICAgICAgICAgICAgICAgICAgICAgICAgICAgICAgICAgICAgICAgICAgICAgICAgICAgICAgICAgICAgICAgICAgICAgICAgICAgICAgICAgICAgICAgICAgICAgICAgICAgICAgICAgICAgICAgICAgICAgICAgICAgICAgICAgICAgICAgICAgICAgICAgICAgICAgICAgICAgICAgICAgICAgICAgICAgICAgICAgICAgICAgICAgICAgICAgICAgICAgICAgICAgICAgICAgICAgICAgICAgICAgICAgICAgICAgICAgICAgICAgICAgICAgICAgICAgICAgICAgICAgICAgICAgICAgICAgICAgICAgICAgICAgICAgICAgICAgICAgICAgICAgICAgICAgICAgICAgICAgICAgICAgICAgICAgICAgICAgICAgICAgICAgICAgICAgICAgICAgICAgICAgICAgICAgICAgICAgICAgICAgICAgICAgICAgICAgICAgICAgICAgICAgICAgICAgICAgICAgICAgICAgICAgICAgICAgICAgICAgICAgICAgICAgICAgICAgICAgICAgICAgICAgICAgICAgICAgICAgICAgICAgICAgICAgICAgICAgICAgICAgICAgICAgICAgICAgICAgICAgICAgICAgICAgICAgICAgICAgICAgICAgICAgICAgICAgICAgICAgICAgICAgICAgICAgICAgICAgICAgICAgICAgICAgICAgICAgICAgICAgICAgICAgICAgICAgICAgICAgICAgICAgICAgICAgICAgICAgICAgICAgICAgICAgICAgICAgICAgICAgICAgICAgICAgICAgICAgICAgICAgICAgICAgICAgICAgICAgICAgICAgICAgICAgICAgICAgICAgICAgICAgICAgICAgICAgICAgICAgICAgICAgICAgICAgICAgICAgICAgICAgICAgICAgICAgICAgICA8P3hwYWNrZXQgZW5kPSJ3Ij8+/9sAQwADAgIDAgIDAwMDBAMDBAUIBQUEBAUKBwcGCAwKDAwLCgsLDQ4SEA0OEQ4LCxAWEBETFBUVFQwPFxgWFBgSFBUU/9sAQwEDBAQFBAUJBQUJFA0LDRQUFBQUFBQUFBQUFBQUFBQUFBQUFBQUFBQUFBQUFBQUFBQUFBQUFBQUFBQUFBQUFBQU//4AM0pQRyBjb252ZXJ0ZWQgd2l0aCBodHRwczovL2V6Z2lmLmNvbS93ZWJwLXRvLWpwZwD/wAARCAKXAo8DASIAAhEBAxEB/8QAHwAAAQUBAQEBAQEAAAAAAAAAAAECAwQFBgcICQoL/8QAtRAAAgEDAwIEAwUFBAQAAAF9AQIDAAQRBRIhMUEGE1FhByJxFDKBkaEII0KxwRVS0fAkM2JyggkKFhcYGRolJicoKSo0NTY3ODk6Q0RFRkdISUpTVFVWV1hZWmNkZWZnaGlqc3R1dnd4eXqDhIWGh4iJipKTlJWWl5iZmqKjpKWmp6ipqrKztLW2t7i5usLDxMXGx8jJytLT1NXW19jZ2uHi4+Tl5ufo6erx8vP09fb3+Pn6/8QAHwEAAwEBAQEBAQEBAQAAAAAAAAECAwQFBgcICQoL/8QAtREAAgECBAQDBAcFBAQAAQJ3AAECAxEEBSExBhJBUQdhcRMiMoEIFEKRobHBCSMzUvAVYnLRChYkNOEl8RcYGRomJygpKjU2Nzg5OkNERUZHSElKU1RVVldYWVpjZGVmZ2hpanN0dXZ3eHl6goOEhYaHiImKkpOUlZaXmJmaoqOkpaanqKmqsrO0tba3uLm6wsPExcbHyMnK0tPU1dbX2Nna4uPk5ebn6Onq8vP09fb3+Pn6/9oADAMBAAIRAxEAPwD9U6KKKACiiigAooooAKKKKACiiigAooooAKKKKACiiigAooooAKKKKACiiigAooooAKKTFHAoAWik3Umc96AFzS03FHNArjqKbzS9KAuLRTc+1AGKAuOopM5o5zQMWiiigAooooAKKKKACiiigAooooAKKKKACiiigAooooAKKKKACiiigAooooAKKKKACiiigAooooAKKKKACiiigAooooAKKKKACiiigAooooAKKKKACiiigAooooAKKKKACiiigAooooAKKKKACiiigAooooAKKKKACiikPSgBaTPNJ+P6UhHFArj6T1pmcDFV5rpIwQ0irz6j+tOzew0m3ZFrPvS5yK4fxL8YvBng+R4tZ8UaXYXKLvNtNcp52PXZnd+leV+Iv25Phxo4H2CfUdbbO0izsym36mUp/WrVOTO+jl2LxH8Km38mfRfNGSOvSvi/Xf8AgoQS8i6L4SMkWPlmvLsqwP8AtIqMP/H6861f9uj4jXsci2yaTpuScNDbs5UfV3IJ/wCA1oqEme9R4WzOtryW9Wfok0oQfMQKY9yiLy4H41+XOqftQfE/WIgtx4wvkVuf3EcdufwKKp/U1zb+NPHevv5Z17xBqZkPEZvZ5c/QZP6CtFh7bs9SHB1f/l9VjE/WOXVbWBS0lzGigZJZgMViXnxM8K6cxW58RaVb4GT5t7Gv48mvy7t/hR481SRpV8J6/cSEczyafMd3tuZR/WtvTP2cfibqpBh8HaiARx54SL/0Iin7GK3ZouF8HT/i4tf18z9EJPj78OYif+K40E9vl1KFj/6FUEn7RXw3i+94y0j04vIz/Wvg2L9kL4synB8JFR28y/tv6SGrS/sb/FUjnw5CnfH2+H+jUvZ0+5SyHKF8WMT+aPuQ/tJ/DT/octJ/C5X/ABpy/tG/DZx8vjPRs+94g/ma+Hx+xx8VAP8AkBRAf9fsJ/8AZqjb9jX4qDB/4R6OT6X8I/8AZqfsodx/2Hkv/QX+KPu6H49/D2Zgo8aaFkjIB1CIf1rWsvij4T1MD7J4m0m5z08m8jb/ANmr88Zf2RfizDuC+FWaP/Zvrb+snNY+o/s3/E7SP9b4PvzhsgQbJsf98McUexh3I/1fyyb/AHeLX4f5n6hQaxaXKB4rmKRP7ySAip0uEc8SKSfQivyan+FHj3SiZX8J+IIMHcZBYy8H6hf61AvjDxx4eYImueIdLKceX9rnhP4rkUexXcb4SpTV6OKi/wCvU/XAS4XqGNPBJFfllo/7TnxQ0VRHb+L71lTqLqNLhj/38UkfnXZ6Z+3R8SLIrFK+k6gB1e5tSrn1yFdMH6LUPDvozinwjjl/DlGXoz9Gt2B70oORXxTof/BQqWN401bwisiY/eS2d6QR7hGTH/j3416LoP7dnw41Jv8AiYNqOhr/AH7y23Kf+/Rf+VZulJHjV8gzLD/HSfy1PpHPNIT2rgPDXxw8DeLpYotL8U6ZcXEwDJbeeqTHIH/LNvm7jsK7ZLqOUDY6tnkYOazcWjxalGpSdpxafmmWj0pajwWAz0+lO7elSYXHUU0c96dQMKKKKACiiigAooooAKKKKACiiigAooooAKKKKACiiigAooooAKKKKACiiigAooooAKKKKACiiigAooooAKKKKACiiigAooooAKKKKACiiigAooooAKKKKACiikPFAC0gNBOKbQIcTSE++KgeTZ1OOcVyfjX4r+Ffh9ZmfX9ctNOypcRyPmV1HBKxjLt+ANUot7GtOnUqvlhFtnZ5yP61FJIVA+YAep718jePf2+9KsWuLXwno82pSgvGt5fN5MGRwrooyzrnqDsPIH0+e/Gn7VHxG8cNMk3iGbSbZ5FdbbSALdUwMYDrmTB+8QWIPPQAY1VJ9T6vCcL4/EpTmuSPdn6J+L/ip4V8CRB9d12y03Kl0jnmCySKOuxPvNj2FeGeMf29vBuj+fDoOn3/AIgnVQY5PL+zQMT23ONw/FK+RPB3wQ+IHxHPmaV4e1C4hkAk+13Q8qJwzfeWSUgSdydpJ4znmvcvB/8AwT91y8KS+JfENpYxqwzb6fE07SL3BkfaFP8AwFh9K2UKcdz2P7IybL/98r80uy/4Fzm/Fv7dHj3XDPHpEFl4fgcHymiT7RPH15LN8rdgBsHWvJdb+J3jv4l3klrea7q+ry3p8trCJ38tznhRCh259go5r7v8Gfsa/DbwwsD3mlS6/dxuXE2qTGQH2KKFjYD3U16/4f8ACGjeF7JLPSdLs9LtF5FvZ26xRg/7qjAo9pCOw3n2V4LTB4a7XV/0z8zfDX7NnxO8VRM9l4Sv7eIMAz3oW0Iz32yspYD1AP8ASvVPDf7AXiu/mX+3Nd07TY8ZzaI9w+7sMME/QmvvZYwvAAH0pQn+c1m8Q3sebW4uzCouWnaK8kfJ+ifsAeGbaJTq+v6pfzA9bby4EI9NpVj/AOPCvRtG/ZC+Fmj+Sy+G/PlQfeubueTcfUoX2/pXte0DtigYHSs3Vm+p4FbOcfXf7yq/vscdpXwg8F6NKs1l4W0i2mX7ssVjGrD8dua6pLC2UACFRgYwBVgDNKOKhyk+p50q1WbvOTfzIlt41+6ij8KeEA6AU48YoHNK7MbtibaMdqdRSAbge1HFOpMUANKg9qb5Sn+EVLRQGpCLeIE/IvPPSmPZQvnMSnPtVmindrqPmktmcbq3wh8Fa5O8+oeFdHvJ3+9JNYxOx/ErmuI1j9kb4WauZGfwwtvI/wDFa3MsIU+yq4X9K9pphAzVe0kup2U8biaXwVGvmz5U139gDwleRO2la5qunz/w+eUnRfquFP8A49XnGv8A7APiixkQ6J4i0zUYyDv+2xvbtn22iQfyr7yKZH/16QoBz1Yd/WrVeSPZo8SZnQSSqtrzPy68TfssfEvwtDLNP4VnvbdDsEmnypc7hnjCKS5HA52+nSuYs/FPjr4YXgtLfU9a8OTQNvNiZZIVXPcwtgY92Wv1qMauclQSO+Ko6t4f03XLKWz1Gxt720l4khuIg6OPQg8GtFX7o9ulxdOati6MZn57eE/23fiRoSquoTWWuR7gzm8tQjhf7qmIqOfUg17V4Q/b98Pai8MXiHQ77R3dsebbEXUSr6sQFb8FUmvQ/GP7Ivw18VxyldAXR7gpsSbSXNv5fusYPl59yteK+MP+CfdxEk03hfxSs3AMdpq0OCT0JM0ePwwlWvZy3NY4nh7H6Vqfsn5H0t4K+PHgb4gtFHofiSyurmUEpaM/lXDY6nynCvjAPOK7xZ8rnIPuCK/Lzxh+zP8AEfwUGN34cuNQtlbYLjTlFyHPXdtXDgdssq4/HBoeEvj18QPh46RaX4lvraCILELK5xPEiqeECOGEfTHygH3pOhF6xIqcL0sQufLq6kuzP1XUnZk04HIr4h8Cf8FAbyERQeLvDscwJ+a80klNq9v3UjHPud47/j9D+Av2kfAPxDS3XS/EFvHezEKtpenyJWcgHYobAc+65HB5rB0pI+XxeS47BX9rTdu61R6sM06qqTB/ukMuM5/z/nip1bcoIrJ6bniPR2Y+kpv3egzTN2MnPQ46UCJqKaDQOCKAuOooooGFFFFABRRRQAUUUUAFFFFABRRRQAUUUUAFFFFABRRRQAUUUUAFFFFABRRRQAUUUUAFFFFABRRRQAUUUUAFFFNbp6UAOpKTrTTwCe9Arjz2pMmsTxJ4u0jwjps9/rOo2um2cI+ee5kCKPqTxycAe5r5g+J/7eWlWEdxZ+C7A6tcr01C8zFbqfULjew+uz2JFaRg5Hq4LLMXj5cuHg3+R9W3upQafDLNczxwQxqXd5GChQOSSTx/+qvB/iP+2h4H8F+daabcN4k1VBjybD/VKe26XkY/3dx9q+IfGfxQ8c/GPVBbalqN9q7zybINNtY2EQY5IVIlGGIwcEgnHr1PpXw3/Yr8beMBFcayI/C2nsNw+0fvbhgef9WCCMjOdxBBzwa6FTjHWTPsaXD2CwEfa5nW17Ip/ET9sX4geM5ZIbC6Twxp7MdsWnZMpXPG6Ygnt/Ds9xXBeEvhL4/+LF39q0nR77VvNJY392xWJ8nk+bIQG98E193/AA7/AGRvAHgFop30w65qEZ3C61XEuDkHKpwgIxwcZA717XDaxRKFSNVT0AGKTqRj8IVOI8HgV7PLaCX957nxd4E/YBlZ0n8Wa/5SgZNlpK8k5GD5r9sZGNn419HeBf2efAHgDyJdJ8NWi3cfK3c6+dOD0JEj5YZyRwcc16SFXGMYHtTxjHFYyqSkfK4zOsdj3etUduy0RAlvFFwqBfYVJjH0p560gGaybbPFuxAoNGOcU7Ao79KCbCdDQW5pelITmgGGTS4yOabTh0oCwdKWiigYh5o6UtFABRRRQAUUUUAFFFFABRRRQAUUUUAFFFFABTNoNPooFYYVU9aTYvYVJRSGQNbo33gD9a5Hxp8I/B/j6Epr3h6x1I7dolliHmoP9lxhl/Aiu1plWpNbGkKlSk705NPyPkrx5+wP4e1OSSbwrrFzokrMxFtdD7TEOOApJDLzzksx9q+dPHf7LnxH8BO80+itqtmoUm70tjcD0+5gSDH+7jHfGa/UEgHpzUckKshUqpX0IzWqrNbn1WD4mx2GtGb54+Z+V/gX9on4gfDWdYNO1y4kt4jzYagPOhwCSVCnlO/Cspr6b+HX7fGj6gIrfxfpc+kP0+32imWA46lkxvX6Df06ivdvHnwO8FfEpXbXNCtrm4Zdhu4x5U4Hp5ikNgehJHtXzJ8Q/wBgi8s1lufBWs/asAYstV+V/fEqDBzxgFR25rbmp1Nz21j8jzbTFU/ZT7rY+t/Cfj/w/wCOrI3mg6vaarbjAY28oYoTyAwHKn2OD7V5Z+1l8Zbr4VfD9V0m6EGvalKIbRgcsijBeQDnoMKM93FfCGteE/HPwe1mKa+tNW8OX0b7EvY2ZF3Hj5ZVJVjx2OPUZqp48+JHiP4mXllP4j1H+0Z7OBoImKqoxuJJIUBc9iQOQBnmqjQSdzswnCVN4mNaNVTo9e5+in7O3x2tfjR4TE7NHBrdmFjv7VT91yOHUH+FsEj05B5HPr4Y4Getfkj8MviPq/wr8W2Wt6Q++SIlZ4HYhJo25aN+Dw20c4OMA4OK/T74afEnSvih4Sste0acT286fPGcb4ZP4kcA8MDwevYg4rGrT5XdHznEeRyyuv7Smv3ctvI7AEkCnDpzTQTjkYpwrmPjBaKKKBhRRRQAUUUUAFFFFABRRRQAUUUUAFFFFABRRRQAUUUUAFFFFABRRRQAUUUUAFFFFABRRRQAUUUUAFRuTg+lPNV59zo204OOOM0B1szJ8SeL9K8JaXPqGs6hb6dZRcNPcSBFBPQZPrwB6k18o/Fj9u+O3E1h4FsDdPkr/al/GVQDAwViJDckkfPjGPusK8I+L+gfETxF8YNQ8M6pcan4q12CYi3Cp8hiJUo6Rp8salfLZsbQD1OVOPYvhP8AsJXF5Hb3/ju9NvEwWT+yrFwZMnHDyjgdwQm7oCH557IxhFXZ+hYXLsqy+jHEY6optq6ij541LVPHPxt8SD7RPqninU33eXFGrFY1OM7UUBYxwM9BkAt0r3/4X/sJanqfkXvjW+/syM4b+zrMq0w6ghpBlV7cDd16ivsDwT8OvDngDS47Dw/pNtptoPmPlJhpGwBudjyzYA+ZiT710gjxx0pSr6WicuM4oqyj7LAwVOK+843wB8IvCnw3tEh0HRbSxfaFedEzNJjH3pDlm6dz2GOBXZqgXPcHtUgGBQenFczk3ufF1KtStJyqSuxmxR0FGcngU7PSjNSZWA+lAFJTh0oBBijFLRQMKKKKACkwKWigBMCjpS0UAFFFFABRRRQAUUUUAFFFFABRRRQAUUUUAFFFFABRRRQAUUUUAFFFFABSEZpaKAE6UHpS0UAMKKeuaayAjBGcdKlqNgT9O9An5niv7WHji08EfCDVZHhhuLrUCLG2SRAwLvnLc8ZVQzjPdRX5o8kktkseTkc59/0//VX6rfE34JeGPi9LpzeJLWa9TTzJ5MK3DxL8+MltpBP3R+Vcmn7GnwmUZPhp2P8A2ELr+kldlOpGKsz9D4fz/CZRQcKkW5M/NUnaOeO9eufs6fHO6+C/ixpJWM/hy+wl/bLyVA4Ey8/eUHoOq8HJClftRf2PvhOg48L5+t9cH/2pU8X7JXwqhcMvhO3Y/wDTSaVx+RY81cq0JI9nH8V5fmFCVCrTk7+n+Z6jpGrWut6da39ncR3FpcRrLFNEwZHRhlWBHBBGCD+RrQDZ57VjeGvCeleENHg0rSLKOxsIQwSCPO1dxJbHPGTz+NfNH/BQf9rvV/2UvhlaXHh3RJ77xBrcz2lnqs9szWGnELktI2NrykZ8uLPzbHY8IQ3C99D8lly8zcNj6k1fWLXRNJvNSvZ1t7Kzhe4nmYHbHGilmZvYAE8eleF/DL9vD4JfGX4h2Pgnwb4ybWvEF55pggTS7uJH8tGkfEkkSrwqM3UZxxk4Fcb/AME8v2mNY/aj+BMsni2xuJdf0ab+zNQ1CS0KWmpgglXU7Qm/ZxIi/dOG2gSKK86/Zp/4JbRfs7fHnQ/iPb/ER9Xj0mS7aLSG0fygUlglhVTP9oJJUS5z5fzYxgdQhH0p8f8A9rH4d/sxnQR4/wBVudKbW/PNl5NlLc7xF5fmE+WDtx5qDnrkkdDWX8Cf22fhP+0f4uvPDHgTXLrUtXtLJ9Rmhn0+e3CwLJHGzBnQDhpUGOvJ4xzXHfttfsPw/tky+DDJ4xk8JHw2LwfLpovBc+f5HOPNj27fIx3zu7YrmP2M/wDgnNb/ALInxQ1LxhD4+fxWL7R5dJNm+ki1Ch5oZfMD+c+ceRjbjndnIxyAesfHf9tX4Vfs3+KbLw7471y60vVb2zXUIIoNOnuFMLO8YJZEIHzRtwea9I0H4peH/EvwvtviBYXcj+F7nS/7WjuTCyv9m8vzN/lkbs7QeMZr5l/bO/4J42/7X3xE0jxVL48m8LNp2lLpgtE0n7XvKzSyB93nJj/W4247ZzXvHg/4LJ4R/Z3sfhUmrtcx2nh06B/av2fYWBgMPneXuOOpO3P49yAcb8GP27/g/wDH/wAcQ+EvBOvXepa5LDJcLBLps8CmNAC53OoHAI7/AIVtfHz9r/4Z/sz6jpFj4/1i50u41WGSe1WCxmuAyIVBJManbywrwb9kv/gmXB+y18X4PHMXxDm8RGKyns/sD6MLYHzBjdv89+mBxt5rrv21P2Crf9sXXvC+pzeNZfCh0SCe3EUemi788SMrZyZU24KYxhuvagD6D+HHxV8PfFb4dad448M3cl94d1GGS4trh4Hjd0VmRsowDDDIwweuPSvJfhH+358Gfjj8QNP8G+EPEd3qOv3yyvBBJplxCHEcbSP8zIAMKrHBxntmu3+AnwRHwN+A2g/DUaw2tppdrNaf2l9m8gyiWWR93l72248zHU9M98V8w/sv/wDBLe2/Zq+NWh/EKH4kTa82mR3Cf2c+hiAS+dBJF/rBO2Mb84wc4xxnNAH0f8f/ANrT4c/szHRE8f6vcaU2tLO1l5FjLcb/ACtm/PlqwGDJH19a7H4WfFbw98aPh9pnjXwpeSX/AIe1NZWtZ5IHhZwkrxt8rgMMNG459ARwRXhH7bX7DMH7ZV34Omn8Yy+FR4eF0gWPTVvPP88xE8mVNu3yR2bO72r1b9mr4IJ+zz8DfDfw6XWG15NHW4X+0DbfZzN5txLMTsDttx5pX7xzjPegDg/hL/wUC+C3xu+IGleCvCPiO7vvEOpea1tbyaVcQqwiieV8uyAD5I3POOmOuAes+Pv7V3w7/ZjXQG+IWr3Ol/20Z/sfkWMtyZBD5fmZ8tTtx5yDnGc5HQ181/sy/wDBLO3/AGb/AI3+HPiLF8SJtffRhcY059EFsJjLbSwcP57bcebu4BzjHGcj1L9tr9iCL9sgeDVl8ZP4U/4Rw3hBTTftnn/aPJ6/vo9u3yMA853HpigD3D4P/F7w38cvAGneM/CN7Jf6BftIsE8sDQs5jkaN8q4DDDqRyBnGRwRXkXgT/goV8FPiV8RtP8C6B4kvbvxFf3TWdvA2lXEaNIoJPzsgA+6ep7V237L3wGT9mn4JaJ8PY9abxBHpr3Mhv2thbl/NneXHlhnxjfjljnGeM4Hy98Ff+CU9r8H/AI7aH8TB8S5NWbS9Qkvxph0QQiQsHGzzftDYxv8AvYPSgD6o+PX7TPgP9mrSdL1Px7qk+mWepTtb2rW9nLcF5FXcwwinA245PFavwV+OnhH9oPwUPFngnUJtR0Rrl7Tzp7Z4D5iYLDa4B6MOeleXftq/sdxfth+F/D2izeK38Kro949356af9r84tHs248xNuM+p+nFdB+yF+zYn7Kvwl/4QeDxAfEaHUZ777c1oLY5cINuwPIONnXd36CgDn7H/AIKEfBXVPirF8OLTxFey+KpdYOhLbf2VcBDdecYdu8ptxv4z0r0X46/tFeCP2bvCtn4i8d6lNpul3l4LGGSC1kuS0zRvIFxGCR8sbc9K+UtC/wCCVttoX7SNv8Wk+JU00sPiY+JBpP8AYgVW/wBIM3k+b9o99u/b77ew92/bN/ZPj/a++HWj+FZfEz+FU0/VV1T7Wlj9qMm2GSMR7d6Y/wBaTuycbcYOcgA7z4G/H/wb+0Z4QufEvgbUZ9R0e3vH0+Sa4tZLdlmVEdhtkAJ+WRDnpzXOad+2Z8F9T8e6r4LHxF0iz8T6VeyabdWGos9ni5SQxtEjyqqSNvBHyM3Ss/8AY8/Zei/ZH+Ft74Ng8RnxMLnVZtUa8eyFptLxRR7Ngdxx5WdxPfGOK+Wpf+CUd9cftUW3xF1XxhpviHwjd+IZ/EOq6ZPZNBcbmmedLdI8yJKhkIVizp8obCsSBQB+j6Nu2kHKnng8VJXyh+1d/wAFCfBH7K3irQfDN5azeKNcu5opNSs9OlCNpli3WZyQQ0hyCkRK7hyzICpf6X8OeJNO8WaDput6TeR32lajbxXdpdRE7ZYpEDowzz8ykMOhwRxQBsUUg6UtABRSN90/41xPxW+Lnhf4KeDL7xV4w1eLSNFtflaeQ5aRznbHGg5eQ84VQTxk8AkAHb0V+Yfij/gtzodlrdxD4d+FeoavpqMRFc6jrKWUsg9TEsEu3/vs/n0yf+H5mP8Amih/8Kr/AO4qAP1SpjLjmvyvP/Bcz/qin/l1/wD3FSf8Pzf+qKf+XX/9xUCsfqMum2yXj3It4xOyqjShBuKgsQM9cAs2B2yfWrWwHn9a/K//AIfm5/5op/5df/3FR/w/Lyf+SKY/7mv/AO4qd77jbb3Z+qIHGOtKBg1+Z3gr/gtp4a1TW4IfFPwy1HQNLfiW707WEv3j9CY2hhyOmcNnGcA1+hngHx/oHxO8JaZ4o8LatBreh6jF5trewZAlXODlTgqwIIKsAQQQQOlIDp6KQdPWloATAowKWigBMCkB5p1FABRRRQAUUjcqRXk37Qv7S3gb9mPwePEPjfVGtoriQxWVjaoJLu9kGMpFHxnAxlmIUZGSMgEA9aor8ttS/wCC4tjDdSLp/wAH7i6tgx2SXPiNYHK9sqts4B9RuP41U/4fm/8AVFM/9zX/APcVAH6qUV+Vn/D83/qiZ/8ACr/+4qP+H5v/AFRM/wDhV/8A3FQB+qdFflZ/w/N/6omf/Cr/APuKj/h+Znj/AIUmf/Cr/wDuKgD9U6K/OX4Uf8FnfAvi3xBDYeNvBl/4HtJ3VE1K3vRqUEROBulAiidUBzkqrn2r9CdI1mz13TLPUtOvIb/T7uJJ4Lq2kWSKaNlBVlZeCCCCCOCCMUAaNFIDkUtABRRRQAUUUUAFFFFABRSNwDnpXz7+1L+2n8Pf2TdNtR4mubjUdfvozLZaBpih7qWPJHmtuIWOPcMbmPOGCq20gAH0HRX5YXH/AAXFSOX938GJHTsX8UBSffH2M1H/AMPzP+qKE/8Ac1f/AHFQB+qdFflZ/wAPzf8AqiZ/8Kv/AO4qP+H5v/VEz/4Vf/3FQB+qdFflZ/w/N/6omf8Awq//ALipD/wXL3DH/CkyP+5r/wDuKgD9VKK+DP2fP+CuPw5+L3ia00DxXo118OtRvZVgtLm6u1u7B3PRZJ9kZjOcDLLt9WWvu+M5x39x0oAkooooAKTFLRQAzywDwKXp/wDrp1FArDePSg9KdSHpRoGpC7kDGASffAH1r5V+Fn7bvwD/AGv5F+HweW51HXVlh/4RfxHpZJukjUyE7k8yE4VCw+fI25AyBX034i0uTXND1PTYrp9Plu7eSBLqMZaJnQqJAO5BOfwr4s/Zg/4JgaT+zR8atM+INv47m8Riwt7iKDT7nSViKtLGYy4lEzYwrMPu9CeaNhn2P4E8B6B8NfCOkeGPDGlw6PoOlW4trSyt87Y4xzyWJLMTyWYlmYliSSa6BkDDBGaFOQPcZp1ADdi+lBUHqOlOooAZ5a+gpdgPUd806igBNo9KCoNLRQAmAO1IY1PanUUANKKe1LgAUtFADfLXJOBk9aQxqeMZHpT6KAG45oZQ3WnUUAN2D0/GgKP/ANZp1FACbRRtHpS0UAN2DOTSMAFzjOOcetPooA+Uv2of+CevgD9qXx7ofizWby+8P6jao9vqUuirGkuqQhSIQ7sGCvGcfPtZihKEDCFPe/hf8MvDPwd8C6X4O8I6Yuj+HNOEgtLETSyiLfI0j/PIzO2XdmyxOd3tXM/tS6J4j1/9nn4g2HhCXUYvFE2kTtpx0mZ4rpp1XcixshDAsRtwDznB4NfEf/BLb4RfGr4afGHxtefEnw3r+maXq2jKft2tOzGW6jnQouWYktsklOfY0AfpmOgx+lLSAYFLQAjdK/H/AP4LWfEHV5/i14G8EmcroVjog1pYUYjfcT3E0JZucHatsoX03v61+wNfiv8A8FqPl/al8LAd/Btqf/J2+oA+j/2Qv+CY3wc8Q/Abwd4n8e6PdeLtc8R6bb6y7vqFxaw26TxiRIkSB06IyZLFiWz90cV7cP8Aglz+zH/0TL/yvap/8k16l+yoob9lf4OZG7/ijNG49f8AQYa9IutZsrGXy7i8t7eTH3ZZVU455wT3oA+Zf+HXX7Mf/RM//K/qn/yTR/w66/Zj/wCiZ/8Alf1T/wCSa+mR4j0kj/kKWf8A4EJ/jR/wkWk/9BSy/wDAhP8AGgD5m/4ddfsx/wDRM/8Ayv6p/wDJNB/4Jd/sxqM/8KzP/g/1T/5Jr6XHiHTpnEceo2jSEhQqzqTknA4B5rRQ5x/higD8y/25v+Ca/wAJ/AvwE8R+Nfh1pN14X1nw7F9te3+3z3NvdwBlEit57uQQp3KVI6YIOcjm/wDgij8Sb59Q+Ivw+uJ5ZNOWCHWrSFmysEgbypzj1fdB/wB+/rX3N+3MP+MQvi2f+peuf/Qa/N7/AIIpgn9oXxqD28LP/wCllvQB+yi9BnrinUUUAFFFFABRRRQAUUUUANb7p/pX4Q/8FTPH+reOP2xfEWi3k5fTfDkVrpunWeSBGjwxzSNjpuaSVyTwSAgOQor93zX8/H/BRMkftz/EoDp/aFrx/wBulvQB+mfw+/4JO/AHwz4Z06x8R+H7vxlrMcA+1ard6pd2xnl/jZY4JUVFyflXkgYBZj8x6kf8Euv2YyBn4Zf+V/VP/kmvqYjGeByfTjpVKXxBptvKYptStIpR1SSdFYfgTQB8z/8ADrn9mL/omX/lf1T/AOSaP+HXP7MX/RMv/K/qn/yTX0v/AMJNo466rZf+BKf40h8T6Pj/AJC1l/4Ep/jQB80/8Ouf2Yv+iZf+V/VP/kmkP/BLr9mMDI+Gn/le1P8A+Sa+mrfXtPvJxFb39rcSnkRxSqzY+gNaI5AoA/H7/gpZ+wZ8PPgB8OtH8f8Aw5gutBh/tNNMvdIlupbmFhIkjJLG8jtIrAxkFSSGDgjbtIb6O/4I9fEfU/GH7NuqaFqVw9yvhrWJLOyZuTHbSIkqx577XaTHopUdhi3/AMFjFA/ZHgIHP/CSWX/oqeuE/wCCJAz8I/iN7a7EM/8AbAUAfpGOlLSDiloAKKKKACiiigAooooAjYkd+vSv58fGy6p+19+3PfabqGpPbN4k8VnTYrmT5jZ2azeWgVcjOyFBgcZI5IJJr+hBhyDX8+37LTH/AIeCeDhnr4yfOeh/fSUAfqfov/BLH9mzT9PgtrrwJc6tNGgV7y71y+SWUgYLMIpkQH2VQOTx0rQ/4dd/sx/9Ey/8r+qf/JNfSPirxVpXgnw3qOva5fw6Zo+nQPc3V5cttjhiUZZifw+vpk18tn/gqp+zlCxDeMdQIU7c/wBi3eTj28v/AD+FAGn/AMOu/wBmL/omf/lf1T/5Jo/4dd/sxf8ARM//ACv6p/8AJNZn/D139m//AKHC/wDx0S7/APjdIP8Agqz+zizYHjC/Az1/sW7x+fl/SgDU/wCHXf7Mf/RM/wDyv6p/8k0jf8Euv2ZCpA+GhBxwRr2p5/W5xXUfBX9u34N/H/xsnhTwd4pe712S3knhs7uwmtTKseC4RpFAZgp3bQSdoJxhWr6DHQfSgD8N/wDgpp+x/wCDv2WPGHg++8DvdWug+JorvOk3UzT/AGSW28ncY5XJYo4nTCtuIZWO4ggL+nn/AAT6+IWs/Ev9kD4b63rtwbvVBZzWMk75LSJbXMtvGzliSzGOJCzE8tknrz8cf8Fyjt/4UrjgH+2x/wCkFfUX/BLNi37Dvw8z/f1L/wBONzQB9ZDoP6UtFIelAC0lJQR7ZoAdRTKUdaAHUUUlAHnv7QHiLU/CPwI+JWuaLcfZNX0zw1qV7Y3CoHaKeO1keNgpBDYZQcEEHHQ1+ef/AATR/az+M/xu/aGvfD3j3xZda5oUegXN2lvPp9vAolWWEK+5IkPRmGM859uP028W+KNN8EeFtZ8RazcGz0fSLSa/vbgRtIYoIkLyPtQFmwqscKCTjgE15B8GP20vg5+0H4vl8NeBPFba1rcVo161tJpd1bYhUorNvliReC6DAOTn0FAHuyjgeuPWnUg6DH6UtABRRRQAUUUUAFFFI33TQBGznB9u/pWDbfEHwzeau2lW3iLSrjVVO37DHextPn02A5H5V8u/tF3OtftD/tLaL+z3Ya1d+HvB1roLeJvGFzplwYrq/gabyY7BXCnYGJRn+YBkc9CoB7HXP+Ce/wCz/qvg5vD8Xw603So1jYQ6lprPFqEL84kW5JLsynkeYzLnG4MOKAPoe81GDTYzLd3EVvFnG+Zwi57cn15pLXVLW+VmtbmG5CkBjC4YD8Qfavij9uD4eaf4b+BfwG8F69q994n0a3+Imhadf6hr9xvmu7bbcLKZ5FC5+QkE8HA69685/an+HPwV/Z/0PQ9d+Bd3ZeHPjUNYsbfQdO8LavJcXGpeZMqyW81sJJN8LIDksoBYKufn2kA/SD+0IRc/ZzMgnKeYIs/NtzjOPTPeluL2KzgaW5lSCIEDfIQq8nA5PuRXy20jL/wVGjTkBvg8SeeP+Q0atf8ABTUAfsOfE8jjMVh/6cLagD6hQhgCDkHnPrT6z/D4xoWmj/p2j/8AQRWhQAUUUUAFFFFABRRSHpQByvxO8c2vwz+HXifxffW811aaBptzqc0FvjzJEhiaQqucDJC4Ga+df2UP+ChnhL9rX4jaj4Q0DwxrWi3VlpcuqtPqTQlGjSaGLaNjE5zMD6YB5r6P+IXgrT/iR4G8R+E9WaZdK13T59NuzbsFkEU0ZjcqxBw21jgkHBHQ14b+zZ+wN8Nf2WfHN94r8H3PiCfU73TX0uQareRzRCJ5YpWIVI1O7dCnOcYz68AH0uBgUtIO30paACvxW/4LU/8AJ1Hhb/sTLX/0uvq/amvxW/4LU/8AJ1Hhb/sTLX/0tvqAP1O/ZUP/ABiv8HOcY8F6Mc/9uMNfmB+xX+y1oH/BQLVfid8QPip4h8Qya2upxYOlXUcXMiuzBjJFJ8oAREUbQqpjngL+of7Jyj/hlr4Nnv8A8IZo3/pDDXxL/wAERBu+HfxOJ5P9qWg/8hPQB3I/4IyfA0gE6z436dP7Ttv/AJFpf+HMnwNXn+2fG3/gztv/AJFr73pG6UAfhP8Atg/sdWnwN/ac8G/Dj4Rza1qGqanokerWZ1C7Q3T3gmuhtieNECti3Tbj+LHI6j9HP+CfH7Zcf7Svw+bQvElysPxL8NwrDqsEiiN7yMHYt2q+pPyyKPuv2UOornf20v2PPif8WPjp4H+Lnwk8UaPofinw9YjT9msJ8sWyWZ0lT91Krk+fIpV1wMAgkk4+PL/4PfGj9mr9t34M+L/H/iTRJ/Enj7xXDb3N54aVY1uojPbQ3YmjW3ijHmJcDOFJZizEhvmIB+ln7czf8YgfFn/sXrr/ANBr83v+CKZ/4yG8b/8AYrt/6VW9fo7+3Eu39kD4sc5I8PXIOP8Ac+tfnD/wRR/5OF8bf9iu3/pVb0AfsxRRRQAUUUUAFFFFABRRRQAhr+ff/gop/wAn0/Ej/sIWn/pJb1/QTX8+/wDwUU/5Pp+JP/YQtP8A0jt6AP3L+PGvah4U+CHxE1vSblrPVdN8Pahe2dwoBMU0ds7xtg8HDKDg8cV+Zv7Fn/BOfwB+1D8DLP4k+O/EXiq48Q61qF48psbyKMHbMUJYyRSM7sys5ckfeAxxlv0k/aZ/5Nw+K3/Yqar/AOkcteFf8EpOf2KfCH/X5qH/AKVS0AcV/wAOY/gbj/kOeOPp/aVt/wDI1If+CMnwMUZ/tvxx/wCDK2/+Rq+9elDcKaAPwC+KHwb179nb9rfx3YfB671MTfDWKLXYLuaVZbtLZIYHmkfairIi+e29SuDHvBBGc/sR+yF+1Pof7Vvwps/EmmvFb63aqltrmkAkPY3e3JwCctE/LI/IIBBO5WC/N/x0/Yv+O1l+1Z4l+MnwR8beH9FufEFmlvcDWY1MtviOJHjCvbzRuh8iNg+FbJK7cDe3gH7KPwx+Jn7JP/BQ/wAJ+BvEesaVHP4zsLq91S08PgCxuIDFdyRL5flRrGVmtiwEaKEB2ggMy0AfTv8AwWNP/GIlt/2Mll/6Knrgv+CJDEfCT4jf9h2L/wBJxXe/8FjBj9kS39vEll/6Lnrgv+CJOP8AhUXxH/7DsX/pOKAP0kHNLRRQAUUUUAFFFFABRRRQAh+8K/n0/ZWGf+Cgvg728ZP/AOjnr+go9RX8+v7K3/KQXwf/ANjjJ/6OegD9Yf8AgqEoP7C/xMx3OmDj/sKWlWf2SP2d/hZefsx/Cy8u/hz4Uvr2+8Nafe3N1eaNbzyzTS26vI7u6FmJZieScZwMAACv/wAFRv8AkxX4mf8AcM/9OdpXpX7IX/Jqvwe/7FDSv/SWOgDZP7N/wlx/yS7wXj/sX7T/AON1G37N/wAJuc/C7wYc4HHh+06Z6f6v616XTXQMCPWgD+f/AMB/Anxh4z8SfGHx18M5prTxN8Ndci1K1sNMT968Jubrc0IH8UfkowQD5lDDBbCt+vP7E/7WWmftYfCaLWR5Fn4s0vy7TXdMhbiGcg7ZkB5EUoVmXOcEMuSUJPkvxT/4JMfB74l/EHW/FTar4p8Py6zdveT2Gl3VuLVZnO5zGssLMoZiW27iAWIAVQFHiH/BP34Xab8EP+Cjnxc8BaLdXl5o+i+Gri3hkv3RpZB9qsGBcoqqW+duijigBn/Bcvp8E/prf/thX1D/AMEsx/xg98PP9/U//ThcV8vf8FysgfBMdsa3/wC2FfUX/BLT/kx34ef9dNT/APTjcUAfWO7igtxz0qKSTy1ZiQFHfOK8t+J/7R/gr4UrLFqmp/aNSXpp1iBJP2PzDgJwwb5yue2elUot7G1GhWxMuSjFtnqLvjILAD1ry34n/tI+C/hQHt9U1VbjVEAH9m2WJrkHCn5lBwvDK3zFcjJHSvjj4p/tj+NvHss9ppEn/CLaU5CiKxc/aXPHDTEZGSvG0Lw2CT0rwR3ZmZicsxLE9Mk45x+H8/WuuNHS7P0XLuDK1Ve1xkuXyW5+vfgfxOvjPwhouvJCbVdSsobsQltxj8xA23dgZxnGeM4reGfWvm34SftO/DXw58MPCulaj4mittQstLtoJ4fIlbY6RqrDIQ9wfyrrf+GvPhRjB8VxZ/695v8A4iueVNp3SPi62V4yFSUY0ZWT7M9m59aMmvGf+GvPhUwIPiqL/wABpv8A4iuu+H/xg8KfFB74eGdXXVGsgjTBYpE2hy2z7yjOdjdPTmpcZR3OWrgsTRjzVKbS80y18U/BbfE34Y+L/CDXv9njxBpN5pP2xY/M8jz4Xi37MruxvzjIzjGR1r5R/Y5/4JtL+yX8WbnxsvxDbxR5+mTab9i/sT7Ht8ySJ9/mfaJM48rG3A69eMH6b+PfifUvBXwM+I3iLR7j7FrOk+HdRv7K48tJfJnitZJI32uCpwyg4YEHGCDX58/8E1v20PjH8f8A9oS+8M+PfFw13RYtBub1Lb+y7S3PnLLAqtvhhVjhXcY3Y+uBUHEfqQO39aWmqeB249KdQAUUUUAFFFFABTX+6c06igD4r+M+sWv7Mn7b2ifF7xDCbf4e+M/Dv/CJ6prKliml6gk6ywy3GEwsbokcYO7++xwEGfp3Xfi/4I8N+Az411Lxdott4QaISRa59tiNrMpBK+XICVkLYOApJY8AZNdTrWiad4h0m80vVLG21LTbyJoLmzvIllhmjYYZHRgQykHBB4NeJWX7CfwC0/xNLr0Pwp8Om+lJYxzW3m2oJ/u2zkwqOeAEAHYUAeLftg+NPDP7QHwU/Z+16xtZL7wp4k+JmgqbbV7NoPPt3Nwjq8coGUYEjOCrKc5KnJ+nvBX7Pvww+HmqR6p4W+Hnhjw9qkYYJf6dpEEFwoYYYCQIGGQSDz0OMYrqde8HaF4qisI9a0XT9Wi0+7ivrNL61SZbe4j/ANXNGGBCSJk7WHIzxjNbC/Lxj8OtAHxx8b/Ftl8C/wBvn4d/EHxNdJpXhHxP4QuPBj6vd5jtbO6S6N3GJZeQgclVy3AAY5wrETf8FNPG+lSfs0X/AMO7W8ivvG/je703TtC0O3kVrq9c3sL5EYOQhEZXfjaGZFzlgD9SeNvAXhz4jeHbrQfFOhWHiHRrkDzbHUbdJonI+621s4YHkN1BAIwQK4H4V/skfB74La22seDfh/pGj6uWZk1Ao9xcQ7lZWEUkpZogVdgQhUEEg0AeqaXbmz0+0t2JJiiRCTjsoHb+lXKQUtABRRRQAUUUUAFFFIaAPN/2ixrbfAH4lJ4cF+3iE+HNRGmjSt/2s3JtpPKEPl/P5m/bt2/NnGOa+A/+CXtt+0BB8fdfb4rQ/EqPw8fDFx9nPjFdQFobk3drt2faBs8zZ5uMc4D44zX6PfEbxtY/DbwF4k8W6rFPcaZoGnXOqXUdqoaZoYYmkcIGIBYqpABIBPUjrXgv7Mv/AAUB+HX7Vvj6/wDCXhHSPEun6lZabJqssms2lvFEYkliiKho55CW3TIcEDgHngAgH1ADkUtIOnPWloAK/Fb/AILU/wDJ0/hb/sTLX/0tvq/amvxW/wCC1P8AydP4W/7Ey1/9Lb6gD9Uv2T/+TWfg3/2Jmjf+kMNfEv8AwRD/AOSd/E7/ALClp/6Jevtr9k//AJNZ+Df/AGJmjf8ApDDXxL/wRD/5J38Tv+wpaf8Aol6AP0xooooAaVBOcV+fn/BRcAftWfsagDA/4THH/k/plfoLX59/8FGP+TrP2NP+xw/9v9MoA+j/ANuYf8YhfFn/ALF66/8AQK/N7/ginj/hoXxt/wBis/8A6WW9fpB+3N/yaD8Wv+xfuf8A0Cvzg/4Iqf8AJw3jf/sVn/8ASy3oA/ZWiiigAooooAKKKKACiiigAr+fb/goqP8AjOj4kf8AYQtP/SWCv6Ca/n2/4KLf8n0fEj/sIWn/AKSwUAft5+03/wAm3/Fb/sUtW/8ASOWvDP8AglEc/sVeEf8Ar8v/AP0qlr3T9pr/AJNu+K3/AGKerf8ApHLXhX/BKL/kynwl/wBfl/8A+lUlAH2DRRRQAhUda/PD41gD/gsV8ExjIPhWXr/1y1X/AAr9EK/PD42f8pj/AII/9is//orVaAOo/wCCxg/4xGt8cf8AFS2X/oueuA/4Ikf8kj+I3/Ydh/8AScV3/wDwWL/5NGt/+xksv/Rc9ef/APBEj/kkfxG/7DsP/pOKAP0mHSlpB0paACiiigAooooAKKKKAGnqK/n1/ZW/5SC+D/8AscZP/Rz1/QUeor+fX9lb/lIL4P8A+xxk/wDRz0AfrF/wVF5/YW+Jf/cM/wDTpaV6Z+yEP+MU/g9/2KOlf+kkVeZ/8FRf+TFviX9dL/8ATpaV6Z+yF/yal8Hv+xR0r/0kioA9eooooAQqDX5wfsxAf8Pc/j6O39g3P/o/TK/SCvzg/Zh/5S6fH3/sA3P/AKP0ygDif+C5X3/gp7f21/7YV9Qf8EtD/wAYO/Dz/f1P/wBONzXy/wD8Fy/vfBT6a1/7YV9Qf8Esuf2Hvh5/101P/wBONxQB9KeMPDq+KdAvNMa+vNN88Y+1adcGCeM8EFXHIPH49O9fBvxU/Y08ZeD3nvNCx4q01SWxAuy7jHOMxE4bA4yvzEnhQAa/RDHt+NMkiDqM8YrSE+Rns5Zm2IyqfPRt8z8b57aS2neKaKSGWNijxyIQyN3Vv7p9jz7VDtABx0HAr9S/ih8AfB3xYt5DrOmL9t24W/tsR3C8ED5xwQM9GyPavjz4p/sX+LPBX2i80DzPFOmDnZCoW7RcEnKcbz0xsyT/AHcV6Ea0Wj9ey7i3B4tctb3JfgzH8M/sf/EDxT4e07WtPXTDZX8Ed1D51ywOx1DDOEPPNaf/AAw98TT/AAaNzz/x9P8A/EV9t/BO1mtPhF4LhnjaGZNHtFaNlIKnyU4I7Y967odelcsq7u0j4etxfmEaslHltd206H50/wDDD3xLz/qtGJ/6+n/+N19CfsjfAfxL8GJfE7eIPshXUfs/lLazGQDYZS2QVXH+sFfSmBjpTMKD05rOVWUtGeRjuI8ZmFB4eslyvyMnxJrumeGfDWraxrcyWuj6faS3V7PKhZY4EQtIxAByAoYnAPFeW/B/9qj4L/GbxU+g/D/xXp2s64tq929taWksTiEMoZiWjUYyycZzyOK7r4ueDJviR8LfGXhG3uksZtf0a80pLmVN6xGeB4g5XI3Bd+SM84r4/wD2Jf8AgnLrf7KnxhuvGuo+NbHX7afSZ9NFnbWLxMGkkifczMx4HlEcDOSOaxPlz7xUcelOpq9BjpjtTqACiojJgnnJ/pUgORmgBaKTIpjOQCeAB60ASUU1G3AEHIIzkU6gAoqJ2xn/AApQ5JPp2/KgCSimjJx/hS80ALRURkI54xnGfSpAePWgBaKQ1E020nkcHHvQBNRTFfj/ABpd30/OgB1FN3fT86jM2TjK/QcmgCakoHQUtAHMfEjwPY/Er4f+JvCOpSTwabr2nXOm3Mtq4WVI5o2jZkLBgGAYkEgjPUEcV8//ALLn/BPbwF+yd8QL/wAXeFdd8SapqF7pkmlPFrE0DxLE8sUpIEcKHdmFRycYJ45BHsH7RU+t2vwE+I83hs3q+Ik8Oag2mnTd32oXItpDEYdnzeZu27duTnGOa+Bv+CYOu/tAaj8d9ch+Ks/xCl8OL4ZnNsni1L0WouRdWoXb542+Zs8zGPmxu7ZoA/T8UtIOQKWgAr8Vv+C1P/J0/hb/ALEy1/8AS2+r9qa/Fb/gtT/ydP4W/wCxMtf/AEtvqAP1S/ZP/wCTWfg3/wBibov/AKQw18Sf8EQv+SdfE/8A7Clp/wCinr7X/ZTcr+yx8Hcg/wDImaN/6Qw1+X/7GH7U2h/8E8tV+J3gD4p+F/Eo1s6rEuzSbeCQKY1dST5k0fysrRujKWDq2QcAEgH7N0V+f5/4LU/BIE/8Ut4+z/2D7L/5Mo/4fVfBL/oVvH//AIL7H/5MoA+/z0r8/P8Agox/ydZ+xr/2OJ/9L9MqT/h9T8Ej/wAyt4//APBfY/8AyZXh/wASP2qNH/br/a5/Zth+HHhjxEsXhLxDHqWoHU7eFHEJu7SSWTbFJJhI0tiSxYdcY9QD77/bm/5NB+LX/Yv3X/oFfm7/AMEUz/xkP43/AOxWb/0qt6/R/wDbkI/4ZB+LR9fD10f/AB2vzg/4Ip8/tDeN/wDsV2/9KregD9l6KKKACiiigAooooAKKKKACv59v+Ci3/J9HxI/7CFp/wCksFf0E1/Pv/wUV/5Pq+I//YQtP/SWCgD9u/2nOP2bvit/2Keq/wDpHLXhP/BKEn/hirwn/wBfuof+lUtfQnx40DUPF/wR+IWgaRbm91XVPDuoWVnbqVUyzSW0iRqGYgAlmAySBzyRX5k/sYf8FG/Av7K3wRtvhr488KeLY/EOi6jeJKum2kDqN0zMRIss0TRyKzOhTB+6DnJIAB+utFfAH/D6n4I9P+EW+IH/AILrH/5Mo/4fUfBH/oVviB/4LrL/AOTKAPv+vzw+Nn/KY/4I/wDYrP8A+itVrQP/AAWo+CJH/IreP/8AwXWX/wAmV5X8KPjCP21v+CmPgr4k+B/DOsWfhPwnoj2t9eamkavEhgvNruEdlUtLc+WqB3JCl+AGCAHtf/BYr/k0O3/7GSx/9Fz1wP8AwRI/5JH8Rv8AsOw/+k4rvf8AgsZ/yaLb44/4qSy9v+Wc9cF/wRI/5JJ8Rv8AsORf+iBQB+ko6UtIOlLQAUUUUAFFFFABRRRQA09RX8+v7K3/ACkF8H/9jjJ/6Oev6Cj1Ffz6/sq/8pBvB/8A2OL/APo56AP1i/4Ki/8AJi3xL+ul/wDp0tK9M/ZC/wCTUvg9/wBijpX/AKSRVT/bF+DWqftCfs2+NvAWi3cFnq2qQQvaSXP+raWC5iuFRj/CHMITdzt3ZwcYP5++C/2m/wBtX4B+EtI+HcHwIbWLbwxappUF23hXUb3fFEoWMefazeTJhcLuTIO0ZJOSQD9bKK/Kv/hvr9t3/o3Mf+ERrf8A8fo/4b6/bd/6NzH/AIQ+t/8Ax+gD9VK/OD9mL/lLn8ff+wDc/wDo/TK4oft9ftt5H/GOoH/cka3/APH69W/4J/8AwF+K5+OPxA/aA+LWlReGNa8V2j2dtoaxiOQrLLDK7tHuZoVQQRIqSfvD8xbG0FwDyj/guV/rfgp/3Gv52FfUP/BLFc/sOfDz/rpqf/pxuK+Xf+C5XL/BT6a1/wC2FfUX/BLL/kxv4d/7+p/+nG5oA+s8cUEDFLRQAwrTWjUjB5FS0UC63GKuB7UACn0UAJ0oKg9qWkoGcJ8c/FN94D+CvxA8TaUyx6povh/UNStHkTeiyw20kiEjuAyjivgj/gnZ+3h8VP2kfj3eeFPGt5pdxpEeh3F8i2VgsDiVJIVU7gemHYY96/RvxTe6TpnhvV7vXpLaHQ4LSWa/lvQpgS3VSZTJu42BQ27PbNeUfCH4n/Ajxj4tey+Guq+DL7xEtq8kkegR24uPIDKHOYwDsDFM9skUAe2r0HGOOlK33TQDnFLQB+ZX7QY+Kn7WP7efiL4G6B8SLv4deE/C2lR37vpjSKZVa3tpHd0jkQzOZLpEALhVRSwG7dv2P+HVHxGZsj9qrxTg886dcn/3IVr/AAlJP/BZH40jPB8JQAj/ALd9Jr9BcAigD85D/wAEpviPj/k6rxR/4Lrr/wCWNfNn7bH7OPxG/Y68M+GtZ/4X54o8WHV757VYA1zYmDYm/fu+1SZz07Y65NftaVGDxXxH/wAFU/2e/Gfx3+D2gSeCdIk17UtA1JryfTrbBnlhaJlYxqeWIIX5FyzZ4BxigBf+Cc37ZN18Z/Ddx8OPHs8lr8UPC6NbzLfApNqEEZ2eYQRnzoyNkgPJ4fqWC/banIHQ8Zr8BvjF40+PNh8WdN+Oer/C3UvhXrmnNAr6zZeHL/T7S4lUeWrTm4Z1LyIfKZQwDqMEHJJ/cr4OeOJvib8JfBPi+4tY7K48QaHY6tLbREskTT26SlATyQC+AfagCn8dvFuo+APgr8QPFGkeWNW0Tw/f6lZmVN6GaG3kkj3L/ENyjI7jivzR/Z2/Y8+Lv7XXwq074ra1+0h4k0O58QXFy62USXF1tSKd4ski6iVBvjfEartVQMHsP0V/axH/ABi18Yz/ANSZrP8A6QzV5T/wS7Gf2Ffhn351P/053dAHhw/4JTfEcjP/AA1V4o55/wCQbcf/ACwo/wCHU3xHHP8Aw1R4oP8A3Dbj/wCWFfo1SHoaAPwV8NfH/wCKX7IH7TfiOGPxXrnxA0jwhqtzper2uo3M721/aJOIJGZGeQQsSUKsS212UZbO1v3A+GPxK0H4ueA9E8Y+Gb5NQ0LWLdbm2nUjIHRkYfwurBkZeoZWBHFfk58fvgz8a/gX+058YtZ0D4QP8UfCvxES9hYto91qdrJa3NxHcsMWjrJDNHIiqCxU5TeoPysJf+CWnxc8c/Bj9oiT4G+JdE1DTbLxJ51xLpGqwyWtzpl3HaNcLP5UgDASwxhSCMsPKbIC4cA/Yo8r1r8+v+Ci3jz4j698avhL8EvA/i248F23jBvMvNRsJGimbMpQBnQh9iqGbYpAcnB6DH6Cr90fTvX58ftiZ/4eRfsxDt/9vkoAyv8Ah1P8Rif+TqfFA/7htzx/5UKP+HUnxH/6Or8U/wDgtuf/AJYV+jgA9BS4HpQB+R/7Tv7C/wARf2bvgd4l+Ip/aO8UeIv7G+zZ03yLm287zrmKD/WfbX2483d905244zkdd/wTI/bZ1f8AtO0+DXxS1G8l1K9RLrwzq2ru7yziQB1tXkfJO5W3xFuuSm7mNa+yf23vhN4h+Of7LfjzwV4Vghu/EGpRW0lpBPMsSytDdQzmMO3yhmERVdxC7iMlRkj8dfi7ofx61rwF4MtfEPwW1nw1F8N7FrW28VWnh3UILlbWLMm64uWYxFEYM4dVULljkBuQD+gCPIAHHvjpTzXzt+wb8cdd+Pv7NHhjxT4l8uXXlMthd3MeALp4X2CYgAbWZQCwAwW3EAAgD6JHQd/egDnPiD40sPhv4F8R+K9V85tM0PT7jU7lbZQ0pihjaR9gJALYU4BPJrwv9mz9vj4bftS+OL3wp4Otteg1Oz019TlOq2ccMflJLFGQGWVzuzMnGMYzzxivbvif4ItfiZ8OvFHg+/nltbDX9MudMuJ7fHmRRzRNGzruBGQGJGQRxXzx+yl/wTz8H/smfEPUPFvh/wAS63rV7e6VJpTw6l5IjCPNDKWARAcgwqOvc+2AD6wByKWkHSloARhkV+Mv/BafSbqL9o3wdqclpKljceFYraK7KERvJHd3TOgboSoljJA5AcZ6iv2abpXg37XX7J/hv9rX4dp4f1iZtL1ixdp9J1qKESS2UrDDAjI3ROAodARnahyCoIAM39hH4teFfiT+zL8OLTQ9btLzUNF0Cw0rUbBJV+0Wk8ECxMJIz8yhihIJADKQV4r1vxp8JPAvxMltZfGHgzw94qltVZYG1zS4L1oQ3UL5qttz7V+K/jL/AIJP/tEeHtTltdL0HTPFdoGzFeafrFvErD/duXiZTjGRg/U4rnD/AMEu/wBp09PhoP8AwfaX/wDJNAH7Sj9lD4Hgf8kc+H//AITFj/8AGqP+GUPgf/0Rz4ff+ExY/wDxqvxa/wCHXf7T3/RNB/4PtM/+SaT/AIdd/tO/9EzH/g+0v/5JoA/aZv2Ufghjj4OfD7P/AGLFj/8AGq6rwV8LfBfw0huYfCHhLQvCsVyQ06aJp8NmspA4LiJVyQM9a/C//h13+09/0TL/AMr2l/8AyTSj/gl7+04OT8Mxjv8A8T7S/wD5JoA/Ur/go/8AGTwr8PP2XPG+ialq9pHruvWB07TtJWVftVwZGCswjzkIi7mLH5RgDqVU/G3/AARO8LXc/wAUfiP4jWP/AEKy0aHTpHPB8yaYSKMZ9Ld+g445558q8Cf8Elvj74o1aG21zSdK8GWRYGW71DVYLj5e+yO3eQswGcAlQcdVr9bP2Xv2bPDf7LvwwtfB/h5nvd0pub/Up1CyX1ywAaUgZCjCqqoPuqoySckgHsY6D6UtIOlLQAUUUUAFFFFABRRRQAh6V+A//BSrSrnRP24PH813azJHdT2V3AzxlRLGbSDlSeCMhlyOhUjqCB+/DcKf6V8l/tzfsJ6P+1xpVpqVhew+H/HulwmGz1OWPdDcRZLCC4x82wMxKsMldzEK2cUAfQfw5+KPhT4t+F9P8R+Etes9d0m9iSWKe0lBPzKDsdThkcZwyOAynIIBBqn4s+BPwz+IWrHVfFHw+8KeJdTKLGb3WNFtruYqPujfIhOBzxmvxU13/glb+0hpWoS29n4Ks9ZhU4FzZa3ZLG455AmljcfitZf/AA68/abzx8Mzjt/xPtM/+SaAP2m/4ZP+CH/RHPh//wCEvY//ABqj/hk/4I/9Eb+H/wD4S9j/APGq/Fn/AIdd/tOf9Ey/8r2l/wDyTS/8Ou/2ncf8kzH/AIPtL/8AkmgD9pG/ZQ+CIGf+FOfD/wD8Jex/+NV23hPwN4b+H2irpXhjQNL8NaUrNILHSbOO0gDN95tkYVQT3OK/CT/h13+05/0TL/yvaX/8k0v/AA68/adH/NMyPpr2l/8AyTQB9w/8Fi/i14W/4UlpPgKLWrO68VXGtwXj6VBMrzwQxxS5klAP7sbmQDdjdltudjET/wDBFvQrrTvgZ411OSF47a+8ReVC0ilfM8u3j3Mueoy+PwPPBr5d+Ef/AASE+MXi7XLceOv7N8BaErg3Ur3sV7dsnXESQsyFu3zuoHXnGD+wvwm+Fnh74LfDzQ/BXhe0NnoekwCGFGILuclnkcjALuzM7EAZZjwKAOwBzilpKWgAooooAKKKKACkpaKAIZGbDEEjH0/rX8+HgnV7X4Bft5W194qLafaeHfG8i6hMy7/JjF0ytJhc5AUl+AcjOAeK/oTYDBOPxHFfBf7eH/BNeP8AaP8AEMvjvwJfWeg+NpI1S/tr4MtpqQUAK5ZQTHKFULnaVYBQcEEkA+3PDviPSPFWl2+qaJqVlrGnTjdDe6fcJcRSD1V0JU8dx2rVBTduBXPqD1r8EL//AIJbftL21zJFF8Por2NPlE0Gu6cEYZ6jdOp/MCqw/wCCXf7Tn/RMv/K9pn/yTQB+/W9f7w/Ojcvqv51+Av8Aw66/ad/6Jl/5XtL/APkml/4ddftO4/5Jl/5XtL/+SaAP33OxiPmHH+1UcjRRRuWKrGvLMx4A96/Av/h11+07/wBEy/8AK9pf/wAk06P/AIJd/tNl1z8NQFzyTr2mHH5XNAHvn/BZ34p+FfGni34b+HNC1u01jVtBi1KXUorKZZRa+e1uI0dlyokzbv8ALncowSAGBP2r/wAEydLvdH/Yn+HMF5az2krpfXCRzxsjGOS+uHR8EfdZSrKeMhgRkEE/D/7P/wDwR/8AHmv+KLLUfi1eWXh3w5E6vdaXY3guL+6AP+r3x5jjUjq+9iOmO4/XfQNA0/w1oun6RpdnDYaZYW8dra2lugSOGKNAiIqgYACgADsBigDSHQZ9KWkFLQAUUUUAFFFFABRRSUAcZ8ZPBlz8R/hL438JWUsVvea9ol9pUM9xny45J7d4lZsAnaC4JwDxXxV+wp/wTq8bfsr/ABqufGWv+JNA1iwl0efT1g0wTearySROGw6KAMIR1zyOK+zvjd4uvfAHwb8e+KdOEP8AaOh6BqGpWwuELxmSG3eRNyggldyjIBGRxXwz/wAE/wD/AIKB/Ev9p7463XhDxfZ+HrfSotGuL8NplnJDL5iSxKBlpXGMSHjGeBzxQB+kA6ClpB0FBoA/Pn4RHP8AwWS+NY9PCUH/AKT6TX6DDpX58/CD/lMn8a/+xRg/9J9Ir9Bh0FABSFQSGxk9qdRQB8Y/8FbBt/Yz1kgcjVtP/wDRte8fsnnP7LPwcz/0Jujf+kMNeD/8Fbf+TMtb/wCwtp//AKNFe8fsm/8AJrHwb/7EzRv/AEihoAb+1mcfstfGL38G6z/6QTV5X/wS45/YW+Gf/cT/APTnd16p+1l/ya38Ys/9CbrX/pDNXln/AAS5H/GCvwy/7if/AKc7ugD6qwKMClooAYUXdu6mvyuAx/wXTKjp1x/3LFfqmelflb/znVb6f+6xQB+qS9BX56/tiHP/AAUi/Zi/z/y3kr9Ch0r89v2xP+Ukf7MX0/8Aa8lAH6EilpBS0ANZFPJGa8l/a3Gz9lb4xbSVI8H6t0OP+XOWvXK8k/a7/wCTVfjF/wBifq3/AKRy0AeG/wDBJTL/ALGeiEnJ/tbUOTz/AMtjX2Z0FfGf/BJH/kzLRP8AsLah/wCjjX2bQB5x+0ZqWtaP8AfiRf8Ah2W6g8QWvh3UJtOlsgTMlwtu5jKYBO4MARivz/8A+CXnxP8Ajl41+P8Ar9j8TdX8YahoUfhmeaGLxCswgFyLq0CsN4A37GkHrgmv0m8e+L9N8AeC9d8Taw0sek6NYz6jdvEhdhDFGZH2qOWO1Tgd68c+AH7cXwq/aW8Z3fhfwPqOoXuq2dg+pyrd2EkCeSkkcbMGbqd0qDH19KAPoMdqWkHP86WgAppUGnUUAIQKTOPpTqa/Sk9AKeo6lBpmn3N5dzxWlrbI0s087hI40UZZmJ4AABJPtXOaN8VfB2v6lDp+l+LNF1G/nJEVra6hDLLJgFjtVWJbAUk4zgDNV/jV8vwe8blRgnRL3p/1wevgX9klFP7QfhMbR9656DH/AC6Tf4CvVw2AWJoVK1/gPHxWOeHrwopfEfpipyAetLnmmJ90VJXlbHrrVXGlAc+9BUEYIp1FMYgAHTiloooAKKKKACiiigAooooAKaUU9RmnUUAN2jHTjpScjPFPprUnsBT1DUbfTrG5u7qeK1tbdGklnnYLHGijLMxJACgAkknoK5vRfit4P8RalBYaX4r0XUb+fPk2tpqMMskm1SW2qrEsQAxOM4APpVf43qrfBvx2D0Og3wP0+zvXwJ+yIR/w0N4VyACTdAgD/p0lP9BXq4bArEUKlZv4Dx8Vjnh69Oil8R+ma8gHvTqjXlRUleVseutUIVFA4paKYwooooAKKKKACiiigAooooAKbtBp1FACYFN9afTWpPYCpqGoQadY3N3dXEVpa26NJLcTsFjjRRlmYkgBQASST0rmtF+K3g/xFqUFhpfivRdRv58+Ta2uowyySbVJbaqsSxABJxnAB9Kr/G9Vb4N+Oweh0G+B+n2d6+BP2RCP+GhvCuQASboEAf8ATpKf6CvVw2BWIoVKzfwHj4rHPD16dFL4j9M1OQOaU0xeVFSV5Wx661Q1o1bqM0tLRTGFFFFABRRRQAUUUUAFJS0UAYniufRoPDWry+ImsRoKWkzai2o7fsq2wQmXzt3y+Xs3bt3GM54ryn4Oa/8As96n4sli+Ftx8O5fEYtXaRfCoshdi3DLvz5I37N2zP8ADkL3xXc/Grwde/EL4QeOvCumzQW+o67oV9pdrLclhEks1u8SFyoJChnGcAnHQZr4k/YI/wCCd/xD/ZW+N134v8U6/wCGNR06bRp9OEOj3FxJL5kkkLg4kgQYxGxJBz04xmgD9ElIwMUHpTUXaAB0AxTm6UAfnv8ACL/lMr8bP+xSg/8ASfSa/QmvzOsvil4W+DP/AAV5+KmqeNdYg8OaZq3h62sLW/vz5duZTaaa4Bc4CgiGQZPG4YHJFfZQ/bL+BP8AF8XvBme+Nag6/wDfVAHs9FeM/wDDZfwI/wCiv+Df/B1B/wDFUH9sv4EkYHxe8Gkn/qNQf/FUAeL/APBW3/kzLW/+wtp//o0V7x+yb/yax8G/+xM0b/0hhr42/wCCnv7T3wq8ffsw3Xhvwv490PxNrV9qlnJDZ6ReLdOqRvvdnCZCgAdWxnOK+0v2YdOudH/Zt+E1heQSWt3a+EtJgmglGHjdbOJWVh2IIINAFb9q/n9lv4x/9iZrP/pDNXlX/BLn/kxX4Zf9xP8A9Od3Xqn7VmX/AGYPjAigkt4O1gYAyT/oU3bv9K+Wf+Ccv7UPwl8Dfsh+C/DviL4i+HtA1rSpL+K60/VL5LaWMyX08yEB8blMcqHcMjJIzkEAA+/aK8Z/4bN+BPf4veDP/B1B/wDFUf8ADZ3wI/6K94M/8HUH/wAVQB7Kelflb/znVb6f+6xX3Y37ZvwIKn/i73gz/wAHUH/xVfAXw017TvjH/wAFmLzxh4JvY/Efhu0ilnl1OyO6ERR6Gto7huMqJ3WMMMhiwIJHNAH6xjpX57ftif8AKSP9mL6f+15K/QfdlAfxr83v2+vFmlfDj9u39nXxX4inbTfD9hGz3F+8bFI1E7BmOAc7S6k46A5PBFAH6RilrxdP2y/gXhSfi94LHqP7bg/+KqT/AIbJ+BR6fFzwaf8AuNQf/FUAeyV5J+13/wAmq/GL/sT9W/8ASOWq3/DZPwL/AOiueDf/AAdQf/FV5R+1Z+2B8FtR/Zr+J2nWHxL8N6tqGpeHr7TrSx07UEuJpppoWijVUQlvvOuTjAGScAE0AZv/AASR/wCTMtE/7C2of+jjX2bXxz/wSn0270v9jXwy9xC8Ed1f39xCXXbvjM5AcD0ypH/1iDX2KKAOS+K/gaL4nfDHxb4Pnunsodf0q60t7hEDtEJomjLBSQCRuyBnrXzP+x7/AME7NK/ZG+JOoeMLHxpe+I5r3SJNKa0ubFIFUPNDIZAVdjkeSBjGPmPNe+/tG+J9U8G/s/8AxL1/RLlrLWdL8N6je2VyiK7Qzx20jxuAwIOGAPII46V8B/8ABMD9qf4v/HD9oDxBoXxC8WXuu6Nb+Gbm+htrmzghVZ1urRA4KRqchZHGM/xfSgD9RB0paQdBj0paACiiigAplPph6UAcT8a/+SPeN/8AsB3v/oh6+Bv2R/8Ak4bwn/vXX/pLPX318af+SPeN/wDsCXv/AKIevgX9kkf8ZDeEvrc/+kk1fU5ar4LE+h8nmmmNon6XKPlFSUxfuCnDoK+WZ9VHZC0UUUFBRRRQAUUUUAFFFFABRRRQAUUUUAFNPenU09TSewHE/G3H/CmfHX/YCvv/AEnevgL9kL/k4bwn9br/ANJZq+/PjYf+LO+Of+wHff8Aoh6+A/2QOP2h/CP/AG9f+kk1fUZb/uWI9D5TMtcbQP0yUfLT6avSnV8ufVLYKKKKYwooooAKKKKACiiigAooooAKKKKACmnvTqaeppPYDifjbj/hTPjr/sBX3/pO9fAX7IX/ACcN4T+t1/6SzV9+fGw/8Wd8c/8AYDvv/RD18B/sgcftD+Ef+3r/ANJJq+oy3/csR6HymZa42gfpko+Wn01elOr5c+qWwUUUUxhRRRQAUUUUAFFFFABRRRQBw/xs8YXfw4+DnjvxZp0dtLqGhaDf6pbxXiloXlht5JEDgMpKkqMgEHGcEda+If2Bf+ChvxI/an+N134N8WaN4XsNNh0W41BZtHtbmOYyJJCoBaSeRduJDnAGSBz2P374rj0e48MaxF4hWxbQHtZU1EamENqbYofNEwf5fL2bt27jGc8V5V8INF/Z9sfFUkvwvtPhxF4iNqwkbwotj9r+z5XdkwfNs3bM/wAJO3uBQB7Yv3Rn9KVulCnIHOfehulAHkXxp/ZR+FH7RF7YXfxC8G2viC+sUMNvei4ntbhI8lvLMsDo7ICzEKxKgsxABJz5n/w66/Zj/wCiZn/wf6p/8k19IeIvFmi+D7H7frurWOiWIYJ9q1G5SCLcc4Xc5Azx0zXLD9oj4VkA/wDCzPB//g+tR/7UoA8X/wCHXX7Mf/RM/wDyv6p/8k0f8Ouv2Y/+iZ/+V/VP/kmvaP8Ahoj4Vf8ARTPB/wD4PrT/AOOUD9oX4XO4RPiT4QZiQNo121JOfT95QB5Z4a/4Jxfs5eDtdsda034aW32+xlE0H23U767hDjoWhmnaN8dcMpGcHtX0knGAO3Woln3OVBzkZBHcev8An2qwOgoAjmhSaNkdQyMCGUjIII5Br5l1f/gml+zZr2rXeoXXwxt47i6laWRLTVb+2iDMcnZFHOqIMnhVUADAAAr6akkKgnI2jkk9q4/X/jF4E8I6q+ma7438OaLqMYBe01LVYLeVcgEZRnBGRzz9aAPC/wDh11+zH/0TP/yvan/8k0f8Ouv2Y/8Aomf/AJXtT/8AkmvZ/wDhof4V9/iZ4O/8H1r/APHKRv2iPhWFJ/4WX4PPt/b9p/8AHKAPGD/wS7/ZkHT4ZjPvr2p//JNetfBP9mr4afs62N/afD3wnbeHUv5BJdSrLLcTzYACq00zu5UYyE3bQSxABYk9H4X+Kfg7xvfzWfhzxbofiC6hTzZYdL1GG5eNM43MqMSBkgZOBz1rrAcj1oAMYHFcB8YfgN4C+Pvh2PQ/H3hq18RabFKJokmeSKSF/wC9HLGyuhPQ7WGQSDwSK789Koarq9notlPeX13BZWcALyz3MixoijkksxAA56k0AfMn/Drn9mP/AKJn/wCV7U//AJJpf+HXP7Mf/RM//K9qf/yTXs4/aG+FZA/4uZ4PH11+0/8AjlL/AMNDfCv/AKKZ4O/8H9r/APHKAPF/+HXP7Mf/AETP/wAr2p//ACTUkH/BML9mazmSaP4ZrvjIYB9b1J1JByMqbkgjjoRg17G37Q3wsxx8TPB2f+w/a/8Axyux0nWbLXrC31DS7231DTriNZIbu1lWWKVSMhlYEgg+o/WgB+kaNY6Bptlpum2Vvp+n2cKW9taWkaxRQRIoVURFACqAAAAMAAdKvY4oBz70GgDE8X+KNK8C+F9Z8S63ciy0bSLOW+vbrYz+TBEheR9qAs2FUnCgk44BNeWfBT9sb4O/tC+Krnw78PfF39v6xa2bahLb/wBl3lttgV0jZ980KKfmlQYB3fN6A13vxe8Cn4p/Czxl4NF8dLPiDSbvSvtoh877P50LR+Z5eV37d2duRnGMjOa+WP2Kv+Ccr/shfFTVfGR+IC+Kxf6NLpIsho32Py988Eu/f58mceRjbgZ3ZzxggH2xS0g6UtABRRRQAU1+lOpr9KTA4j42f8kc8cf9gO+/9EPXwN+yUf8AjIfwn/vXX/pLNX3z8av+SPeOP+wJe/8Aoh6+B/2SR/xkN4S/3rr/ANJZ6+ryz/csT6Hyeaf75RP0tX7o+lPHQU1fuCnDoK+UZ9VHZC0UUUygooooAKKKKACiiigAooooAKKKKACm+tOph6UAcR8bf+SN+OP+wHff+iHr4D/ZB/5OE8Ik9/tP/pJNX358bf8Akjfjn/sB33/oh6+BP2RP+ThfCI9Guf8A0kmr6jLf9yxHofKZlpjaJ+ma9KdTE6D6U+vlj6pbBRRRTGFFFFABRRRQAUUUUAFFFFABRRRQAU31p1MPSgDiPjb/AMkb8cf9gO+/9EPXwH+yD/ycJ4RJ7/af/SSavvz42/8AJG/HP/YDvv8A0Q9fAn7In/JwvhEejXP/AKSTV9Rlv+5Yj0PlMy0xtE/TNelOpidB9KfXyx9UtgooopjCiiigAooooAKKKKACkNLRQBw3xw8I3/xA+DPj7wtpTRDVNb8P3+m2n2hisYmmt5I03EA4Xcwz7V8K/wDBPb9gH4nfsx/HO88XeMZdAk0qTRbjT1Gm3rzS+Y8kLA4aNeMI2Tn04r7v+MXjW5+G3wm8ceLLO3ivLvQtEvtUhtp8iOV4Ld5VRsc4JQA49a+Mf2G/+CjPiv8Aap+Mtx4N1vwrouiWsekT6gt3YSStIXR4l2fMxGD5hOevAoA/QEdvpSN90/0oT7o6/j1p1AH5Y/GP4Mj9s3/gpn40+GnjPxRrNp4S8J6DDe2NtpskatCGt7JmSPerKpaS7LsxRiQu3oF2en/8OWPgiTk+KfH+T/1ELL/5DqH4R8/8FlfjaP8AqULf/wBJ9Ir9BOlAHwAf+CK/wRAz/wAJT4//AA1Cy/8AkOvkr/goZ+wl4C/ZK8F+FNW8Jat4j1CfVdQmtZ01u6t5Y1RY9wKeVBHgk8HJPHav20boa+Tf+CiH7KOu/tVfCrS9P8L3lrbeIdDvmvbaC/cxw3KGNlkj3gHaxypBbj5SDgHIAPHP+CcP7Uet6Hrt1+zn8Vnms/F/h/dDok942WngRd32ZmyclEIaNgSGjGAcKu79E06Dt7V+Gn7WXwM/ag8MJYfF/wCLNzpwutCktLO11rTXsobqFlkzAQLZELFWPDHLDsegr9kfgJ4q1Hx58Dvh14m1h1l1bWfDmnajeOihVaaW1jkkIA4A3M3A4oAp/tJ61feGP2d/ilrWlXUmn6rp3hXVbu0u7dtskE0dpK6Op7EMAQe2K/N79jj/AIJn/Dj9pL9nzw58R/F3iTxbFreuy3jzR6Xd2yQqY7qaHP7y3kYsRFuJLclq/RT9rD/k1v4yY/6EzWf/AEhmryb/AIJc5P7C3w1GM86n/wCnO6oA8vP/AARY+CJ6+KfH3/gwsf8A5Do/4cr/AARH/M0+Pv8AwYWP/wAh19/DpQeRQB/PVaad4t/Zi/ai8fan8LPt9/D8MtVummmuSHZtPjuhbH7UqBd8b+YiPsCn5yw2hcr+4n7Onx90D9pP4VaR458OyhILpfKvLAuHksLpQPNt5CMfMpIIJA3KyMBhhXwp8YP2I/2hfA/7SHxC8ffBTUdEuNK8bC5F9HqQtZW8m5dZLi2lhuo3RkMg4K9U4OMkHyT/AIJ8L8Q/2YP28f8AhTGuvBarrMMkOt6fHMs8W5NPkvreVGXjeBtGR/DIwIzggA/ZYkleOtfm7/wUk0C/+Mf7T/wJ+EF7r17pvhHX3aa7trMjBkMuwybTwzBFZULA7S7EA5IP6Rg5Ffnv+2GT/wAPJP2YR1GD/wCj5KALI/4It/BFh/yNPxAyev8AxMLH/wCQ6T/hyv8ABH/oaPiD/wCDGx/+Q6+/V6D6UtAH5Mftif8ABML4W/s8fs4+L/iB4d13xde6zo/2T7PBqt7avbN5t5DA29Y7ZGOFlYjDDkDORkHG/wCCdX7Uutfs1eItC+GHxLaax8A+MbWLVPDuoXLbobKSfoyt0EMrBlYDhJVJO3MjV+j/AO1p8Fbv9oj9nrxj8P8AT9Sg0nUNXhhNteXSFo1lhuI50D7eQjGJVZgCVDFgGxg/lb8a/wBjr9qn/hS1rY+N10LUPA/w8024vLMRSWPnWdtFGWkCSLGszKUTO1iQcLkZAwAftihPAOQccg1IelfLP/BNn4k+Ifif+yX4T1HxJqD6jqVm8+mC6mH7yWKFysZc/wATBAq56tt3HJJNfU3QetAHnP7RXivVPAnwF+I/iPRLgWetaT4d1C/sbkxK4initpHjfDAqcMoOGBHHINfBn/BMn9s74vftF/HrXvDfj/xTHrmj2nhqfUYbddNtLYrOt1axht0USNwsrjGcfN9Mfo74x8S6T4M8M6vr+uzx2Wi6ZaS3t7dSIXEUKIWkYqoJOEDHABJ7A15j8GP2qvg18cfFF1oHw88VWet6zb2j30tvb2M8JSBXRGfc8ajAaRBjOfm9AcAHtQ7UtIOg+lLQAUUUUAFNfpTqa1AHEfGv/kjvjj/sB33/AKTvXwP+yV/ycP4T/wB66/8ASWavvj418fBzxv8A9gS9/wDRD18DfskHP7Q/hT/euv8A0kmr6jLH/sWI9D5TNP8AfKJ+l46D6U4dBSDr+VA618ufVLRDqKKKBhRRRQAUUUUAFFFFABRRRQAUUUUAFN7mnU3vQBxHxtH/ABZzxz/2A77/ANEPXwH+yEc/tB+Ecf8AT1/6STV9+fG3/kj3jn/sCX3/AKIevgP9kIY/aF8I49bn/wBJJq+oyz/csR6HymZa42ifpkDxT6YOg+lPr5Y+qWwUUUUxhRRRQAUUUUAFFFFABRRRQAUUUUAFN7mnU3vQBxHxtH/FnPHP/YDvv/RD18B/shHP7QfhHH/T1/6STV9+fG3/AJI945/7Al9/6IevgP8AZCGP2hfCOPW5/wDSSavqMs/3LEeh8pmWuNon6ZA8U+mDoPpT6+WPqlsFFFFMYUUUUAFFFFABRRRQAUh6UtIelAGN4r0nS9f8NatpmuQwz6He2s1tfRXLYie3dCsqvyMKVJBPbNeWfCH4HfA/4ceK5NT+HWgeGtM8QNavbyTaRMrzeSWQupAc4G5U/Ic811vx28Laj45+CPxD8OaRGJdX1fw9qOn2UbsEDTzW0kcY3HgfMw5PH6V8B/8ABOL9iD4ufs6/Hy88U+N9EtNO0aXQrixE1vqME7ea8sLqpVGJxiM+3TmgD9Ox0paan3RTqAPz6+EX/KZb42/9ihb/APpPpFfoLX59fCL/AJTLfG3/ALFC3/8ASfSK/QWgAphjUnOOafRQB8Yf8FbcD9jTW8f9BSwP/kWve/2Uf+TW/g7/ANibo3/pDDXgv/BW7/kzTW/+wpY/+jRXvP7KH/Jrfwd/7E3Rv/SGGgBP2sP+TW/jH/2Jusf+kU1eT/8ABLbn9hf4a/XU/wD053VesftYf8mt/GT/ALEzWf8A0hmryf8A4Jbf8mMfDX66n/6c7qgD6tHFLSDoKWgBpUc1+Vu4/wDD9TGePT/uWK/VSvyrP/KdX/P/AELNAH6pEYFfnv8AthHP/BSX9mH6H/0fJX6Et0r89v2wv+Ukn7MP0P8A6PkoA/QhRkUuBSL0p1ADfLUdq8m/a4A/4ZX+MRz/AMyhq3/pHLXrdeSftdf8mq/GL/sT9X/9I5aAPC/+CSKg/sa6IQAM6pfk/Xza+zugr4x/4JJf8maaJ/2FL/8A9HGvs40AcV8ZPA8vxP8AhP408HRXo06TxBo15pS3bReYITPC8e/bkbsbs4BBOMZFfKX7EP8AwTqv/wBkP4sar4wu/Hdt4mW90WXSRZwaY1sULzwS79xkbgeRjbgfez2Ofp/9oTxdqfgD4EfEXxRo0y2+r6N4ev8AULOZkV1SaK3eRCVbhsFRwc59DXwn/wAE0/22Piz+0j8dNc8M+O9btNS0e08OT6hFDb6dBbkTrc2satujUEjbLJx059uAD9Lwc4paQdPSloAKKKKACmv0p1NfpQBxHxs/5I544/7Ad9/6Ievgf9kj/k4bwn/v3f8A6SzV98fGr/kj3jf/ALAl7/6Ievgf9kn/AJOF8Jf711/6Sz19Rli/2LEeh8pmn++UT9Lx1/KgdaRfuCnDoK+XPqlqri0UUUDCiiigAooooAKKKKACiiigAooooAKb606mHpQBxPxs/wCSOeOP+wHff+iHr4D/AGQs/wDDQnhDP/Tz/wCks1fffxt/5I345/7Ad9/6IevgT9kT/k4XwiPRrn/0kmr6nLf9yxPofKZl/vlE/TNegp1MToPpT6+VPqlsFFFFMYUUUUAFFFFABRRRQAUUUUAFFFFABTfWnUw9KAOJ+Nn/ACRzxx/2A77/ANEPXwH+yFn/AIaE8IZ/6ef/AElmr77+Nv8AyRvxz/2A77/0Q9fAn7In/JwvhEejXP8A6STV9Rlv+5Yn0PlMy0xtE/TNegp1MToPpT6+WPqlsFFFFMYUUUUAFFFFABRRRQAUUUlAHJ/Ffxo/w4+GPi/xZFaLfvoOj3mqratIYxMYIHlCFsHbnZjODjPQ18gfsW/8FJL39q/4u3Pgq78C23htY9Km1BbuDU2uSzRvGoTaYkwCJCc57e9fanijQNP8WeHdU0TVrdbrS9StZbK6gLsnmxSIUdcqQwyCRkEH0NeNfCz9mH4E/s9+O7W68GeHtM8M+K723ktbdTqk0lzcRY3yIqSysXACbjgHGwntQB72vQd/rTqQcgUj/dOKAPz8+EX/ACmW+Nv/AGKFv/6T6RX6C1+WvxJ+Nunfshf8FSPH3jzx3pGqp4Y8T+Hbe0sby0hVy6/ZrIGVQSN6iW0kjIByCQenX2//AIe9/s/Ac3fiPP8A2Cf/ALOgD7bor4j/AOHvn7Pv/P34k/8ABT/9lR/w98/Z+PAu/Emf+wT/APZUAXf+Ct5x+xnrn/YVsP8A0aK97/ZR5/Zc+Dv/AGJujf8ApDDX52/t4ft/fDX9pj4Fn4feAoNd1LxBqeqWrxxz2HlDajEgAbiWdm2gKASc1+kf7PfhjUfBPwE+G3h3V7c2uq6R4Z0zT7uAtny5orWNHU444ZWHHHFAGZ+1h/ya38ZP+xM1n/0hmryf/glt/wAmMfDX66n/AOnO6r1/9pjTL3X/ANnL4raZptpNqGoXvhTVba1tLVC8s8r2cqpGigElmLKAAMkkV+ff7EP/AAUd+EvwF/Zq8J+AvFSa9BrmjPeLN9lsBNE4kupp1ZWD56SgHIHKtxjBIB+qQ6Clr4j/AOHwH7Pv/Px4l/8ABT/9nR/w+B/Z9/5+PEv/AIKf/s6APtyvyrP/ACnVP+f+ZYr3c/8ABYD9n1gR9o8S/wDgp/8As6+df2bNdT9qj/gqrq/xg8FWV8vgzS7Y3VxdahB5RUf2ULBEOCwDvIWdVzkojnHynAB+s9fnt+2CP+Nkn7MH+6f/AEc9foMpLICe4r83P+CjXid/g/8Atcfs/wDxR1bS7668K6QXjubiyjDkOJiWRckDzNj7gpI3bTg8EgA/SQdqdXxCv/BXz4ADBNz4jHHT+yTx7ffpw/4K/wD7P3/P14j/APBSf/iqAPtyvJP2uv8Ak1X4xf8AYn6v/wCkctfP5/4K/fs/f8/XiP8A8FJ/+Krzr9on/gqf8F/H/wACPH/hbw//AMJBd6xruh3ml20UmniJA88TRBmYscAb8njOAcc0Aeo/8Ekv+TNNE/7Cl/8A+jjX2fXyd/wTE8E6x4D/AGP/AAlaa3Zy6fd3011qMdvOu2QQSys0TMO29QGHswr6wHbt7UAYvi/WdH8O+FdY1TxBNDb6DZ2ks9/LcLujSBVJkLDByNoORivMvg58dfgt8UvEt1p3w51/w/quuRWjXc8WlW+yUQb0VmY7F+Xc0ffk444rqfjx8O7r4t/B3xj4Ls76LTbrXtMuNNS7njMiQ+ahTcVBBOAfWvk/9gz/AIJ9eJf2Svir4i8Ua14k0fX7W/0g6bbrYxypKpaaKVi4dcbf3QxhiT+FAH3cDkUtMQ5VSfTtT6ACiiigAprU6mnvQBxHxrGPg745/wCwHff+iHr4G/ZKP/GRHhMf7d1/6SzV98/Gn/kj3jj/ALAd7/6Ievgb9kkf8ZDeE/8Aeuv/AElnr6nLP9yxPofJ5o/9son6Xr0H0pw6CmjpQvWvlmfVrRD6KKKBhRRRQAUUUUAFFFFABRRRQAUUUUAFNYcE0ppDyD9aQHEfG7/kjnjj/sB3v/oh6+BP2Qju/aF8IY/6ef8A0kmr75+N5/4s745z/wBAO+/9J3r4H/ZCAH7QvhL63X/pLLX1WW/7liPQ+VzHXGUT9Lx0FSVGOg+lPxz0r5Y+pXQWiiigYUUUUAFFFFABRRRQAUUUUAFFFFABTe5p1NPU0AcR8bR/xZzxz/2A77/0Q9fAf7IRz+0H4Rx/09f+kk1ffnxt/wCSPeOf+wJff+iHr4D/AGQxj9oTwjj1uv8A0kmr6jLP9yxHofKZn/vlE/TIHin1HThXy59Sh1FFFBQUUUUAFFFFABRRRQAUlLRQBBMTg4wT6dvxr8jPAv8AwT++MPhX9ui/1rwkh0Xwr4d19NTs/FGrSM8E9nIfMWBc7ZLh/LYwuFG3IYGRchj+vGwelVboyRwXD20aS3IQlI5XKKzY4DMFYgE9SAcDsaAHecQdhIDgA46nn+fQ1Y7Cvx90bwX+1Xp/7fmj33im51nwxe+JdWWK71jRt0ujT6dCHkeGMkGNo1hR9kco3AncQHJJ+0f+Chf7WPir9k34beHNb8I6fo99qeqasbJ49ailljEIhd2ZVjkjO7cqDO4gKTxyMAH0b4z+G3hP4kWMNl4t8L6N4oson8yO31nT4ruNG/vKsisAfcVx4/ZP+CH/AERzwB+Phey/+NV55+wR+0l4o/ak+CN34x8V2elafqcOsT6ckOjxSRwtGkcLA4kkc7syMMggcLwOc/K0P/BT34pN+2KnwnOg+ET4cPjweFvtQs7r7b9l/tH7Nv3fadnm7Oc7Nu7+HHFAH3b/AMMnfBD/AKI54A/8Jex/+NUh/ZP+CAGR8G/AGf8AsV7H/wCNV5t/wUE/ac8UfspfBnRvF3hKw0fUNSvNfg0qSLWopZIRE9vcylgI5Izu3QrgkkYLcdCIP+CfP7Ufiv8Aax+EOueKfF2n6Rp2o2OuS6ZHHosMsMRiW3t5AWWSSQ7szNyGxgDgdSAeyeGP2fPhd4I1eLVfDnw38I+H9ThB8u90vQra2mT1w6Rg/ka9AHBxX5haz/wU8+KWm/thXHwqj0Dwi3h6LxsPDf2l7O6+1/Zvtwt92/7Ts8zZzu2bd38OOK+pf2/P2lvE/wCyx8ErDxh4TsdK1DUrjW7fTXi1mGWSERPFM7ECOSMhsxLySQMnI6YAPpdkB5Ned6/+zl8J/Fmrz6rrfww8G6zqdw26a91DQLSeaQ+rO8ZJP1NeMf8ABPX9qnxZ+1l8LfEPiPxdY6Pp1/p+sNYRR6LBLFGYxDHICwklkJOZG5BAwOnHPzV8SP8Agp98VPB/7V2q/DOx0HwjJoNr4nXQ47ieyumuzCZ1j3ZFyF34J6KBnHFAH3d/wyf8Ef8AojngD/wl7H/41R/wyh8Ef+iOeAP/AAl7H/41XHftwftA+Iv2afgFf+N/DFppd9qsF9a2qQ6rHJLAVkfax2o6MSBjGGHT8K8+/wCCdn7YXjL9rnQPGt/4v07Q9Nl0S5toLcaJBNErLIjli3myyEnKjoRj37AHuJ/ZQ+COD/xZzwB/4S9j/wDGq7jwh4G8N+AtLGl+F9A0zw3pgYv9i0mzjtYNx6nZGAuePSvzX/ax/wCCoXxV+Bf7Rni/wBoGgeD7nR9IuIIrefU7O6edg8EUjb2S5Rc5c4wo4A+p+2P2xvjTrn7PP7N/i/x/4ctrG91nRxaeRBqcbyQN5t5BC29UdCcLKxGGGCAeRxQB7bjArI8SeFdF8Y6RPpWv6RY63pc4xLY6jbJcQyD/AGkcEH8RXx//AME5f21fG/7XcvxATxlpmgab/wAI+unm0Gh288Xmef8AaN4fzZpM48lMYx1Oc9vHP2y/+Cm3xT/Z3/aN8V+APDmheEb3RtJW0ME2p2d1JcN5tpFM28pcovDOwHyjjHXkkA+5B+yh8ESc/wDCnPAB/wC5Xsf/AI1Tv+GT/gh/0RvwB/4S9j/8arH/AGtfjPr3wI/Zr8VfEHQLSxu9b0qC1kht9SieS3YyXEMThlR0c4WRiMMMEDORwfD/APgnT+2145/a6vvHkXjHS/D2mJoMVk9sdDgniLmYzhxIZZpAQBEuMY6nrngA+iP+GTvgh/0Rv4f/APhL2P8A8aqxp/7MXwc0e+gvrD4TeB7K9t3EkNxb+G7OOSNxyGVliyD7ivhj9tH/AIKXfFD9nL9ojxB4D8N6J4TvtGsIbWSOfVbO6kuMyW6SEM0dwi/eY4+UcevU/Z3x8+MOufCv9mHxF8RNKtLGfXtO0aK/it7yN2tzI2zIKq6sR8x4DZ6c0AewpGq9Fx/n0pHkKnGeeOMe9fCH/BPP9vXx5+1p488V6F4v0nw5psOl6Yl7bnRraeJ2YyrGQ5knk4+YcAZ968g/4KR/tT/G/wCGP7R2m+BPA3iS50zSbqzstSsdP0qyQ3N1KZCApfaZHzJCy+WpAYHaVOTQB63/AMFP/wBqX4m/s/2ngeDwDb3mi2l1cNdXXiY20U9pK4VwliQ4YZYbpGDKvCxlCdr4+gv2NPih4++MvwC0Dxl8RdK0/R9Z1bfPaQ6fDJCJrLgRTvHISUaTDOMEqVZGH3sDp/DcFj+0P8EdOXx94JksofEOnRnVfDGvWpR4JCBvRkYBhtdQVb5W+VWAVuno1paRWkEUEESQwxqESKMAIigAAADgAAYGO1AFlfuilpBwKWgAooooAQ1E7leuB9frUj/cPOK84+OXhnWfFHw31W38PalfaZrsCm5s3sLiSB5JEBPlkoVyHXIweASD1ANVBc81G9jOpLki5Fz41yk/B/xwNwA/sO9yR2/cPXwT+yY239oXwllsHddjH/bpN/IfzridS+KXje/s57O88X+Ibi2mQxTQT6nOyOpB3KyFiMEcEY6cVz+jaxqGg3sV9pd7cadfRAiO4tZWjkTIwdrKc9DjjsSK/RcDlVWjhatNte+tD4DGZlTr4iFRJ+6fsCZDt+8KlTPGa/M74O618RPip8RtI8Pp408ULazSebdyx6tcjyoF5chsnkjIXPBLL3NfpZap5UUSDJAUAEnJ/PvXxOOwUsFU9nNpvyPsMFi1i4c6VkWKKKK849MKKKKACiiigAooooAKKKKACiiigBKhkl24ycZqZuleY/tA/DFPiv8ADLU9GjUHUk/0rT2JwRcIDtGewILIT2DmqhFTkot2RnUk4Rckrmj8a5Vb4PeN8sM/2Je9P+uD18D/ALIzeV+0F4S5GR9q7/8ATrN/hXk11E8E8sMsZjljJV1IAKnPK47EY5FRody4bkdSDzn8K/R8HlHscPUp89+daOx+e4vMlWrxquNuU/Yf7Um0gMBjjrntnpVlDuAb15r8u/2evhk3xZ+J+l6TdKZdJt2N5qBB6wxkfLwVI3MVTI5XdkZxX6gwDaqg5z3r4nH4NYKp7Pmuz7HAYueLhzuNkTUUUV5h6oUUUUAFFFFABRRRQAUUUUAFFFFABTW7UOcKccmvOfjf8T774QeB5vE1tof9vQ206R3MX2oW4hjbIEm7a+75ii4C5+fPQVUYOo+VdSJzUIuUtkX/AI3f8kd8c/8AYCvv/Sd6+A/2Q/8Ak4Twl/29f+ks9emeNv26H8Y+D9c0M+CxaJqVlNZG5Gql/LEiMm7HkDOM5xntXgXwj+IL/Cz4g6P4oWwGpNYeZ/oZl8jzN8Lxk78NjG8HGD9RX2uAwGIp4StCUbOW2qPiMdjaFXF0pQeiP1iByKcK+Q/Dn7dWo+Ktf07RtO+HxuL2+uEghRdWxyxxknyOAM5J7AE19cxZwhbGcc7enSvk8Tha2Ely1o2Z9fQxFPEx5qbuiWiiiuQ6wooooAKKKKACiiigAooooAQ0mwE5xzTqKAGNGpHSuZ8bfDLwh8S7O3s/F/hTRPFVpbuZYINb0+K7SJyNu5VkVgpx3HNdTRQBzng3wF4Y+HWknSvCnhzSvDOmPMZ2sdGsYrSAyMAC5SNVXcQoycZ4HoK51P2efhYviceJB8NPB/8AwkIu/wC0f7XGg2v2v7Vv8zzxN5e/zN/zb87t3Oc16LRQBznjT4feF/iRpcWmeLfDekeKtOimFxHZ61YRXkKShWUSBJVZQwV2G4DOGYZ5NM8E/Dvwr8NtNm03wj4Z0jwtps0xuJLPRbCKzieUqqmRkjVQWIVRuIyQo9K6aigDzp/2efhZL4pPiR/ht4Rk8Rm8/tA6u+hWrXf2reJPO87y9/mb/m35znnNdH4y8A+GPiNpKaX4r8N6T4m0yOVZ0s9ZsYruFZACA4SRSAwDMMjnDH1NdFRQBy/gn4beEvhrps9h4R8L6N4VsJ5TPLa6JYRWcUkmAu9liVQWwqjJ5wAO1YV/+zx8K9U8RSa/e/DPwfe67LcfapNTuNBtXuXnzu80ymMsXzzuJzXotFAGB4t8D+HfiBoz6R4n0HTPEelO6ytYavZx3UDMpyrGOQFSQeckdapeCfhb4N+GkN1F4Q8JaF4ThumV7iPQ9NhslmZRhS4iVQxAJAJ7E11lFAHnXiP9nj4V+MdbutZ1/wCGfg7XNXuSGnv9S0C1uLiUhQqlpHjLMQAByegA7V1fijwlofjjQrrRPEejWHiDR7oJ9o0/U7VLm3m2sHXfG4KthlVhkcEAjkVtUUAch4G+Evgj4Ym8Pg7wZ4f8Jfbdn2r+wtMgsvP2Z2b/ACkXdt3PjPTc2OprL8U/s+/C/wAc63c614k+GvhHxBrNxt8/UdU0K1ubiXaoRdzuhZsKqqMngAAcAV6HRQBjeJPCWieM9AuNE8Q6NYa5o10qrPpupWyXFtKFYMoeNwVbDKCMjggEdKx/A3wi8DfDKS7k8H+DPD/hOS8VVuW0PS4bMzBN20OYkXfgs2M+p9a7GigDz7xV8Afhj461ufWfEnw48JeINYmCrLqOq6Fa3VxIFUKA0kiFiAoA5PQYrqdX8K6N4i0CbQdV0ix1LQ5ohBLpl5bJLbPGMYRomBUrwOMYGBWxRQBxPgj4L/D/AOGt7cXnhDwN4a8K3dxF5M1xomkQWbypkNtZo0UsucHB4yK6dNIsRqjah9jg/tB4hAbryh5pjDFgm7GduWY46ZY+tX6KAG7QBjoKUUtFABRRRQAUh6UtFADT1pjoMMcckVLTGXA+tLrcTV0fnB+178Lf+FffE6e/s4/L0fXQ97EccJNn98o69CwbsAHAA4rw4g/3C2OcAHOcjA4B+g9yK/TP9pT4Un4r/DDUbG1iLavaE3tjgctMikbOSM7lJXPQFge1fn98H/hvc/FT4iaR4dRXW2mkEl5LHuHl2wH7zB2naxAIBIA3YB6iv0rKcwjLBt1XrA/O8xwDjivc2mfXn7EXwoHhjwbP4tv7fbqmtAiB5FIZLVTxgMNw3t83UghYz2r6iToKo6Rp1rpOnWllZQx21pbxLDDDCoVERQAFAHAAAA9Kv9Me9fn+KryxFaVWXU+5wlBYelGER1FFFcx2BRRRQAUUUUAFFFFABRRRQAUUUUAIRmoZYUf7w3ex6VPTWXNAnsfnf+2f8LP+EG+Ix1+ziKaVr26UYHCXIH7we2QQwPcsR/DXz8gzjA5PA5wOo/Wv1C/aA+F8fxY+GeraPGif2iqm5sXbAC3CZKjJ4Ab5lJ7Bye1fBvwC+E83xM+K1npF3bsNPsZDd6isqlCEjOPLIPIJbC+24kdDX6JleZxeDftHrA+AzDAyWJSgtJn2B+x98Mf+EF+GsOqXcWzVNfCXkiuuCkIB8lDz/dYvyAR5hB6V9AqKgt4UjiVAuFCgBQMD8qnHavgsRWliKsqkurPtsNSVClGCHUUUVgdQUUUUAFFFFABRRRQAUUUUAFFFFACVka/otn4i0a/0q/iW4sryJ7eeLJAeNwVYZHPQnpWxUbRjHrTi3F3REoqSsz8k/iP4IvPh1441fw9e7muLGYokrhR5sZ5R8AnAZCrY4xuwemBzqjBJB465B619tft0fC5tW0Kx8a6dEftGmbbS92gktbsx8s9f4Hc9Bz5mc/LXxx4c8P3vinXtP0bTY/Pv76ZIIFHTLEDd7gdT6AGv1rLcfGvhFUk9tz8xx2ElQxLhbfb5n1F+wr8LPtuqXvjm+hPl2Rey08nkGRgfNcH2UhfQ727ivtpecHsa5f4c+CrPwB4M0nQLIfuLGARbgMb26s592YsxPqxrqFHH0r8yx+JeKxEqj26H6BgMOsNRUEh9FFFcJ6IUUUUAFFFFABRRRQAUUUUAFFFFABRRRQAUUUUAFFFFABRRRQAUUUUAFFFFABRRRQAUUUUAFFFFABRRRQAUUUUAFFFFABRRRQAUUVC0hycdO/agCakIzXnPiD9ov4V+EtZu9I1z4meDtF1W0by57HUdftbeeJvR43kDKe/I6VQH7V/wSwP+Lx+AAf8AsaLH/wCO0AeovErKeOa8y+HnwP0f4eePPF3iayVWudcnEiqUH+jIfmkRW64eUs57cKMfLks/4av+CX/RY/AH/hT2P/x2mn9q74IH/msXw/P18UWP/wAdq4zlBNRe+5lKlCbTkttj1MDgcU8dK8qH7V/wRxx8YvAH4eKLH/47Qf2sPglj/ksfgDP/AGNFj/8AHajU0serUV594W+P/wAMvHOtRaT4b+I3hPxDqkwZorHStbtrmdwoJYhI5CSAATwOACa70MScdD6f40DJKKQUtABRRRQAUUUUAFFFFABRSGonkKjOTj0xQBNSEc5ry26/ak+DNhdS2918W/AltcQu0ckU3iWzRkZThlIMuQQeCCOtR/8ADWHwR/6LH8P/APwqLL/47QB6k0QIYetch4N+GeieCfEHiTVtMt/JuteuxdXJB4DBcFQOwLGRz/tSN7Vzv/DWHwR/6LH8P/8Awp7L/wCO0h/at+CBPPxj8AYP/U0WX/x2mm4ppPchwi2m1seqAA8dqcABXlX/AA1f8Ef+ix+AP/Cosv8A47SH9rD4JdvjH8Pyew/4Sey/+O1Niz1eiuJ8FfGfwF8Sb6e18I+OPDnim5gj82WDRdWt7yREzjcyxuSBnjPSu1ByKYC0UUUAFFFFABRRRQAUUUUAFFFUdT1K20qxuby+u4LGyt42lmuJ3CJEijJZmPAAAzk+lAF6mE4Bryv/AIau+CasQ3xi8AIRwVPiiyGD6f62l/4aw+CH/RZPh/8A+FRY/wDx2gDvvEGh2viLRr7TL6MT2V5E9vNETw8bAqwz7gnpzXy7+zB+zfeeBfiX4l1bW4XZNInax0uRwAJQy5MwGOMxsoGDj94wPIwPY/8Ahq74H5z/AMLj+H+f+xosf/jtN/4ar+BwOf8AhcPw/wAn/qaLH/47XVRxVSlTlTi9JbnHVwlOrONSS1R6ooAAAHSnrXlf/DWHwQA4+Mnw/H/c0WP/AMdo/wCGsPgiQf8Ai8nw/wD/AAqLH/47XJY67Hq1Fcp4L+JnhL4kW8914R8V6J4ptbdtk02i6hFeRxMegZo2YAkZ711QOR60xi0UUUAFFFFABRRRQAUUUUAFFFFABRRRQAUUUUAFFFFABRRRQAUUUUAFFFFABRRRQAUUUUAFFFFABRRRQAUUUUAFFFFABRRRQAjdOK/Ob/grT+1hr3wp0jQ/hl4Q1C40bVtetm1DU9RtWMc0dkHKRxo45HmOku4qQQse3kORX6NV+K3/AAWnJX9qbwuM8f8ACG2p/wDJ2+oA89+Bv/BMf4x/H3wBY+M9Ml0HQNJ1LdJZnxBeTRTXUecCUJFDIQpOcF9pYfMAQVJ9DH/BFf42H/mafAIHXnUb3/5Dr9T/ANkyJI/2Wvg7jp/wh2jt+Jsoif516xQB+LH/AA5W+Nn/AENXgD/wY3v/AMh0n/Dlb43Z/wCRq8AY/wCwjff/ACHX7U0UAfit/wAOVvjd/wBDV4A/8GN9/wDIdKP+CK/xuB/5GnwAf+4hff8AyHX7T4FGBQB+A37Qn/BOX4u/sz+CT4y1l9F1jRbWaNLi78PXk0jWZdgqO4kijbazsqhlBwSM4r9DP+CVv7VXiD48/DrW/CvjK/k1fxN4UaLZqdy+6e8s5t2wyseXkRo2Bk/iDJuy2Wb3f9uqBJv2QPi0GUMBoFwwB7EAEH8CAa/OL/gii5b4++OI8kIfDJYoDwSLqDH48n86AP2THT0paSloAKKKKACiiigAooooARhlcV+Qn/BW/wDaw17UPiFN8GfDupz6d4e0qCGTXkgPlm/uZEEqQuRy0SRujbQdpZzuBKKR+vZr+fn/AIKLMT+3R8SDnJ+32g/8lYKAPQvA3/BIj44+M/CWna1NceGfC0l5EJxpmuXtzHeQK3KrKkdu4Rsc7ScjOGCsCK3f+HLPxwbn/hK/AHrzqN9/8h1+0gQDGB1FSUAfiv8A8OWPjh/0NfgD/wAGN9/8h0f8OWPjh/0NfgD/AMGN9/8AIdftRRQB+K//AA5Y+OH/AENfgD/wY33/AMh0H/gix8bwP+Rr8Af+DG+/+Q6/aiigD+e74/8A7H/xd/Yn1Hw74l1a8t4YpbnFj4j8M30pS3ulyyoZGSN45NoLqSOQrYJwQP16/wCCf37St5+07+z5p+va2yP4o0q4bSNWljQIJ5o0R1mCrwN6SIxAAAbeAABivLv+CxSD/hkm3YDLL4ksiD/2znrhP+CJMhf4QfENNxKrrsW0embdc0AfpEDnmlpBxS0AFFFFABRRRQAUUUUAMdsev4V+G3/BQT9pfxh+0t+0LqHw38OzXNx4W0nV/wCxtL0O0Pyaheo5haZ1H+sdpCwQnhV6DJYt+5TqCDn86/n4/Zhzdf8ABQnwl5wDlvGkrHPTd5zn+dAHq+lf8EZvjjqOnW9xPrfgjTZZY1drW61K6aSIkAlWMds6kjp8rMODgkc1Z/4cq/G7t4p+H/8A4Mb7/wCQ6/aZetPoA/Fb/hyt8b/+hq+H/wD4Mb7/AOQ6P+HK3xu/6Gn4f/8Agxvv/kOv2pooA/Fb/hyt8bv+hp+H/wD4Mb7/AOQ6Uf8ABFb43jn/AISj4ftjt/aN9/8AIdftRSHoaAP55PiR8JvjJ/wT6+L2j3Ut6dD1wKLnTNd0WdpbS+RWHmIGZV3gHarxSKCQy5Xa67v3K/Zq+M0X7QXwR8H+P7aEWw1iy33NuFKrDcxs0U6LnkqsscgBPVdp78fn5/wXJG0/BXAx/wAhz/2wr6j/AOCWqgfsPfDz/f1P/wBONxQB9YjpzS0UUAFFFFABRRRQAUUUUAFFFFABRRRQAUUUUAFFFFABRRRQAUUUUAFFFFABRRRQAUUUUAFFFFABRRRQAUUUUAFFFFABRRRQAhr8V/8AgtV/ydP4X/7Ey1/9Lb6v2oNfiz/wWlH/ABlH4Ycg4Hg61AyMD/j+vqAP1R/ZO/5NZ+Dn/YmaN/6Qw16tXkP7JVys/wCyz8HjC6yKvg/SEJU55FnECPwII/A166DkUALRRRQAUUUUAeF/tyf8mifFv/sX7n/0Gvzb/wCCJ/P7Qfjf/sVm/wDSu3r9G/28tRg039j/AOK8lzKkEb6JJCGc4BeRlRB9SzAD3Ir86v8AgifbSn49eObgI3kJ4ZMbNjgM11AQM++1vyNAH7JUUUUAFFFFABRRRQAUUUUAFfz7/wDBRj/k+f4kf9f9p/6SQV/QOeAa/n6/4KMKI/24/iUXBAF9a85xnNpAf60Af0C96Wq/m5YjuOfXj8v0qcdBQAtFFFABRRSGgD4b/wCCxP8AyaPD/wBjHZf+i568+/4Ii/8AJI/iN/2HIf8A0nFd3/wWLuEj/ZNtI2cK0viWyRVPVj5U5x+QauJ/4ImRNH8HfiBJtIR9ejAfsSLdMj9QfxoA/SGikHNLQAUUUUAFFFFABSGlooAa3RvpX8/H7Lf/ACkJ8I/9jlL/AOjZK/oGbuPXiv5+P2bWGlf8FBvCQuytuyeNnhYMcYkM7qF/MgfWgD+ghadUUTFlQnuPrUtABRRRQAUUUlAH5Wf8FyunwT+muf8AthX1H/wS2/5Me+Hn+/qf/pxuK+W/+C4zBn+Cyk5I/tvj0/48K+ov+CXO4fsPfDvjGX1Ijkcj+0bkflkHn2oA+s6KQcgUtABRRRQAUUUUAFFFFABRRRQAUUUUAFFFFABRRRQAUUUUAFFFFABRRRQAUUUUAFFFFABRRRQAUUUUAFFFFABRRRQAUUUUAIenHWvhL/gp7+xprP7RXhrR/GXgmzS88Z+GopIpbHO2XULJiG2Ic8vE29lXjIkkwS2xT93U0oMHigD+ebwJ+1/+0J+zPok3gHRfFmp+FbTTblw+iatpVvLLZSMQWQJdQs8Iz83ljAyzNtyWNb5/4Kh/tOg4/wCFmgf9wHS//kav3zm061uWDS20UhHd0BqL+xNP/wCfG2/79L/hQB+CH/D0T9p3/opo/wDBDpf/AMjUv/D0T9p3/opo/wDBDpf/AMjV+939iaf/AM+Nt/36X/CkOiWH/Pjbf9+l/wAKAPwS/wCHon7Tv/RTR/4IdL/+RqP+Hof7Th6/E0f+CLS//kav3qbSLBM5srbr08pf8KBpOnH/AJc7Yf8AbJf8KTYro/nw8c/tR/tBftZQWPgbWPEOr+Nlmn86HQ9I0mGN7iRRnJjtYVaXABYAhgMbsDGa/V3/AIJwfsf6j+y18M9SvfE+xPG/ihoZr+0ikWRLGGIN5MAcZDOPMcuynaSwUZCbm+uYLO3tv9TDHED/AM81AH6Cp9o64Hr0oTGOXOBnrTqaDgUuecUwFooooAKKKKACiiigBG6V+Xn/AAVM/Yb8UeO/Fa/F34eaNNrlzNbx2+vaVYIXu2aNdsV1Ggy0g2BI2VBlRGjYI3lP1DppjHPfJzQB/Pd4R/4KB/tEfC3w3Y+E9J+IV1Yado8Ys7e0vdKs7iWBEJAjLzwtJ8n3QrH5QAowFAGwP+Con7Tn/RTP/KBpf/yNX74z6ZaXLhprSGZgMBpI1Y/rUZ0PTv8AoH2v/flf8KAPwS/4eiftO/8ARTD/AOCDS/8A5Go/4eiftO/9FMP/AIINL/8Akav3s/sTTv8AoH2v/flf8KP7D07/AKB9r/35X/CgD8E/+Hon7Tv/AEUw/wDgg0v/AORqUf8ABUT9pzPPxMJH/YA0v/5Gr97P7D07/oH2v/flf8KX+w9Ox/yD7X/vyv8AhQB/PV4i+Ifx/wD27PFOjaJfXOr/ABE1O0GLWys7OGC3t9zYMsixJHFFkkBpXxgAAtgCv2m/Yu/ZvT9lr4F6T4Qe4jvtankfUNXu7cYiku5AA6p6oioiKeMhNxClto92is4IE2xRLGvogwP0qUIPx6ZoAVeg+lLSdKWgAooooAKKKKACiikbpQAjKCD2r8Zv+Cjn7D3jH4ffFfWvir4D0q+1bwnrF22rXb6UjPcaRdnMkzOqfMIy6tIsg4XO1tpCFv2YzimkDJPc9aQeZ+AVn/wU4/aY060gtovidIyQxrGrTaNp0rkAYG53tyzHGPmJJPJJJJqX/h6N+05/0Uz/AMoOl/8AyNX72vptm7EvawMT3aNT/OozpWnnkWVtycf6lf8ACkpIND8Fv+Hof7Tv/RTP/KBpf/yNR/w9F/ad/wCim/8AlB0v/wCRq/e3+xdPIH+g23/flf8ACn/2PYDpZW3/AH6X/CqA/A//AIei/tO/9FNH/gh0v/5GoH/BUT9p0nn4m5H/AGAdL/8Akav3x/sex/58rb/v0v8AhSHR7H/nyt/+/S/4UAfz56H4W+PH/BQn4qwXk5vvGGqv5VjPrl3brb6bpkIyRvaNFjhQAs+xF3OdxCO7fN+73wP+EukfAz4T+F/AeiDdp+iWS23nFNpnl5aWZlydrSSM7kdAXOOK7ZIY41CIgVB0VRgVIBjpQAdKWiigAooooAKKKKACiiigAooooAKKKKACiiigAooooAKKKKACiiigAooooAKKKKACiiigAooooAKKKKACiiigAooooAKKKKACiiigAooooATpTSafTCMfjQBk+JNKbWtEvbFbm4s3niZFuLWQxyRkjhlYHIIPNfDviD4g/ETwF4jvdHvPEuofbLSUoxklMgk7hl35+UqQ34j3FfezKCDn9a8E/ai+E/8AwlWh/wDCRafCW1PTUIkVPvTQZJK/8BJLD23V87nFCpUo+0otprseNmdGpOlz0nZo8JtP2kfiHbYP9v8AmqBwstrCQfyQH9a07P8Aay8e2wAlexuhnOJbbn6fKwrx0Hd+v3hz/n/I4oZN3OOh/Dp368V+bxzDFp2jUZ8SsdiYvlU2fbnwA+J3in4oW19qGrWdla6ZAfJie3jdWll6sRuc/KAR253DB4NezJyBnrXk/wACvHHg3V/Cdjo/hy5WFrKLabG6wtwvdnI/iJJJLLxlvXivV0OUGPSv1jAScqCblzeZ+iYWTlRi73JKKbS969I6xaKKKACiiigAooooAKY2cCn01+lJiZBNN5SMx4xXl/wy+N9n8Q/FniPSYdois5Q1lIAczQgBWY5/28kf7LL71S/aX+IbeC/AktnaTCLVNV3WsLKcNGmP3kgxzwDjPYuDXyB4B8W3HgPxfputWxYrbyjzEBJ8yM8MvbGQWA4O09Ohr5XMc3+rYuFGL06nhY3Mlh68YL5n6RAkqO9PrK0XVbfWdLtL60kEtpcxLNFIvAZWUFSOOhBBrSXGBX1EXzJNdT3U7pND6KKKsYUUUUAFFFFABRRRSAQ1DKzDocDPOeuPapT9KryyrGHLMNvfPSk3YTZ8sfEL9pTx34H8V32iz6bpMUls5CEwSsJYyfldSJOhXBwM4OQcEGuJvf2q/H1w+UurK1U9BDbLgD/gZJrf/an8YeEvFOpWMOlTi+1excxzXFuA0CxEZ2M3c5wRt4GX78V4IFzwec+9flmZY7EUcRKFOrofA47G1qVZwhPQ9Guv2i/iHdqyt4mdQe0FtCn6hM/ka9N/ZyuvGXxE8QS6vq/iHU5tD048xmZkSefHC/KQCqjDEHH8ORhjXz94T8NXvjTxFY6Pp8Ze6vJAg4ICLn5mbPbAOSM464PSv0L8BeDLPwL4X0/RrFQIbaMKXxgyP1Zz7k5OO35V6WRrFYyp7apJ8qO7K44nET9pVk7I34QFAwu3A6DoKmpB1p1foSVj7EKKKKYBRRRQAUUUUAFFFFABRRRQAUUUUAFFFFABRRRQAUUUUAFFFFABRRRQAUUUUAFFFFABRRRQAUUUUAFFFFABRRRQAUUUUAFFFFABRRRQAUUUUAFFFFABSEUtFADSKhkjWaJlxgHgjtVimEcZxSaTVhNX0Pg/9oL4WyfDrxhLcWlsRoWoMZLcopIifPzQ8cADO4eoOB9012Hwz/ZjTxx8Pl1W+v59M1C9Ims3ChljixgErxnd1GG6bDkgkH6Y8deAtG8faO2ma1b+faiWOUbSAwZSCMHsCMqfUEjvXQWttHbQJFEgjRRgIowAPQCvlY5FSeIlUmvdfQ8KOU0lVlOS0Z+eXjP4c+J/hTqkb6hay2ckcoNvqVozeWzZOCkg5B4JwcMAMkAc1638L/2sNQ0t4tO8YK13bEhV1GJAJYx/ekjA+ZR0yvPynhic19W6po9nrNlLaX1rDd20gw8MyB1YZ7g8Gvmn4ofsnK4lv/BkvlbRuOkyNlWAX/lk7dCSBw+RknkAYriq5di8ul7TBSvHqjjnga+Dk6mFd12Pofw54q0zxVp8V/pV5Fe2smNrxPkZxnaR1DDuDyMdq3Ac471+c2j+IPFnwd8SSJbyXOjahA2J7WRfkmHOMp0cHLEN06FT6/UHwu/am0bxWsVl4gaLRNTYcSM/+jS9sqx+6cg8NnqvzEnA9PA5zTxH7ut7sjvw2ZQqe5V0ke9E8U6qsM4lyykEDtU45Ar6RNSV0e0ndXQ+ikHFHemMWiiigBD0qvcTCFCxbAHJyKmYda4H4yx+IrrwJqFn4YtGu9Uu/wBwMOi+UjZ3t87AHgFQOuWBrKrLkpyklexlUk4wbitT49+PHxFPxD8d3lzDKJdNtM21ooyMqM5b/gRJbP8AdZB2Nee5J4znqOmev+f1rvdV+Anj3RtPutQvtBMFpaxtPNJ9rgIVFG5jgOT0zwBXIeHdAv8AxTq9rpGl2xudRuN3lQBgm7apY8sQBgA8HHSvxnGQxFXEOdSLTl0PzTFQq1K3NOLTZ9Rfsi/EQalot14Uu2xPp4NxaAc74Wb5h05KuwySf4wB9019IoOB/WviXwF8Ifif4D8W6brtr4aeRrWUNJH9ttl8xCMMozJjJUkA9iQa+1rY5RMjBx369K/TMmqVnhowrxakj7nLZ1HRUKqs0WKKKK989cKKKQ9KAFpM5zR26U09D2oAXPPWopJCA3PoB9TwKx/Evi3S/CenzX2q3sNjaxgkvI2AcBiQAOWOFJ2jmvl/4oftYX+qC5sfCiGxsxuDajKAZnAwMoOiA8jPLYIIC4ry8Xj6OFV5y17HBicbRwy99/I96+Ivxo8N/DaE/wBpXjS3rgNHYWo3zsCcZ2kgAdT8xGcEcnivkn4m/HrxJ8SHa2Mi6TpLNg2NrIfnz2kfAMg5bI4B44+U1k+C/hr4q+K+qTPp0c11vkYz6peO3lb8ZJdzyWyRwMths19VfC79nPQfh88V7cgazq68i6uI8JGcgjy4yTt6dSSeuCAdtfNSljs3laK5af4nhTli8xlaPuwPBfhh+zNr/jVLe91cSaFpDLnMqD7TKpJyApGV6HDMB94Hawrn/jd8LpPhh4m8iBnm0q7TzLSeXkrgfOrNjGQee3BHqc/fCRKiLjP3f8/yrmvHHgHRfiBY21rrNt9ohtrhLlTwpBUkEHIPysu5SOhBOCDgjqqcP0JUeRfF3OueT0XTsvi7nlP7Lvwo/wCEY0Q+JNRixqOoxgwoxyYYDyPxbg+wAHBLA/QS844qvBH5cSjbjA6Yxj9asJ90V9Dg8NDC0Y0odD2MPRVCmoLoLjnNLRRXcdIUUUUAFFFFABRRRQAUUUUAFFFFABRRRQAUUUUAFFFFABRRRQAUUUUAFFFFABRRRQAUUUUAFFFFABRRRQAUUUUAFFFFABRRRQAUUUUAFFFFABRRRQAUUUUAFFFFABSEClooAZsB54oCgU+ikA0jPamMgPJ5x3qWkPJFAHHeOPhvoXj6w8jVbFZyoZY51JWSMnqVbqOQCQeCQD2r5P8AiZ+zPrngR5b7SA2taIh3HYv+kRL/ALagENgfxDjrkAdft8oOuOfWmSxqynI3fjXi4zKsPi03JWfc83FYGliVro+58FfDD48eI/hpJDaJKdT0cZU2F0T+6GefLfqvIPTI5+6c5H1v8N/jN4d+JMC/2bdmK9C5ksLn5JkxxwP4hx1Ukc84PFYPxO/Z30D4gCe6t1Gj6uW3i7t1yJDjGXTIBJ6E8NwMnHFfJ3jL4ZeJvhVqsTX1vPBtk/0XUbKRtjPnIKuMFW44HysBkgYr55VcdlEuWfv0zx3LFZcvfXNE/Q9XJHrTsmvkL4X/ALV9/o0kWn+LYHvbTOxdQhGZox0+ZAPnHuMMMYw5r6i8O+K9L8U6ZDf6VfQ3tpKMrLE2R9D6H2OMdD0r6jB5jRxkbwevY9zDYyliIrlevY3Og9aBzTRyM9++KcPevUO4DzTHQccc5zmpKY3QUmroDkfiyB/wrLxX0/5Bdz/6KavjX9m1B/wufw0MdDP/AOk8lfZXxa/5Jl4r/wCwXc/+imr41/ZsP/F6PDX1n/8ASeSvi83V8woHzWP/AN8pI+9VAAAPpT1HSkH3RTuor7OKskfSdh1FJjim9KYxxOKZuJprNjknA9a8++I/xs8OfDW2YX94s2oFQyWEBDTNnoSP4R7nArnrVqdGPNUlZGVSrGlHmm9DvpLhY1dncKAOSTjFeDfFL9qrSfDC3Fj4cWPXNTX5fNVv9GiOD1YctjAOBxz94GvA/ib8ePEnxM8y1mJ0zSCSBYWzEh1P/PVv4uxwcD2zzXQfDL9mbX/GbRXet+boekt8wEq4uZO42qfujBPLe2FNfJYjNq+Ml7LAR07nz1TMauKlyYRadzgdV8QeKfi74kjinuLrW9TmJSGCFfuKeSUTgIBwSePcnrXvPwu/ZTjtzBqPjFhPLkSLpcEn7tM9ncYyRnopA4wS4r3TwL8N9B+H+nC00exjtwRiSYjdLKfV3PJ/kOwAArqhGBwBXZhMmUWquJfNI6KGWK/ta+sippukWmk2cNpaQR21vEgRI4lCqoHYAdKuCNfTg0uMCn19NGKirJaHupJKyGgADA4o206irAbsFKOKWihDCiiimAUUUUAFFFFABRRRQAUUUUAFFFFABRRRQAUUUUAFFFFABRRRQAUUUUAFFFFABRRRQAUUUUAFFFFABRRRQAUUUUAFFFFABRRRQAUUUUAFFFFABRRRQAUUUUAFFFFABRRRQAUUUUAFJjnNLRQAUhAxS0UAMIqnqelWWr2U1pf2sN1azKVlhnQOjr3BB4I+tX6Q1EoqStIlxT3Plz4ofslpK8194NlFuRktplwx2N67HJ4OOitwfUCvBtK8ReKfhB4lcQPdaNqaMDPaSKQkg7Bkf7wPr9Np71+jJjBzlc1x3j34Z6F8Q9ONpq9ik5U/u5lJSSIkYyrDpj06EjkGvl8ZksZSdbCvlkeHiMsipe1oaSPNfhZ+1NpPiryrHxAqaJqWAPNLFraU9OH/AID2w3fgMTjPukNysoO1gxHPHpz/AIH8q+J/ih+zRrvgnzr/AEsNr2kp8xAT97Co4+ZRnd6llGOCdq4rE+Gvx38R/DOaKJHOqaJ/z4XjY2Kevlt/ByOgyvU7STkc1DNa+FkqONjp3OalmFTDy9niV8z77VjgGj3rz34bfGfw78TbT/iXXZt79V3SWF0vlzxgHBOMncOnKkjkc54r0BCCoI6elfW0q1OvFSpu59FCpGouaL0OT+LY/wCLZeLP+wXc/wDopq+Nf2bRj41eHP8AeuP/AEnkr7L+LP8AyTLxX/2C7r/0U1fGf7Nv/JaPDf8A23/9J5a+TzZXzCgeBj/98pH3wvQUucU1fuio5pkjjLMQvOCScV9fdJan0V7JEpbg81ieI/Fml+E9OkvdXvYrK2jzl5WwWOM4AH3j/sjmvGvif+1TpHhtJrHwy0Wu6kuB5ynNtGTnupG88KdowMH74NfM2pat4p+L/iNDNJda/qLsTBDCuVjxwwReFUcDnABwc5xXzuMzqnSfs6C5peR4uKzOFJ8lP3pHr3xS/aq1HVbiXTvCkT2Fjko1/KmZ3OQTsXouRnk5POflIwfKvA3wt8V/FXUvMtInnR5CbnU7t2eMEn5jvONzewy3qFHNe5fCz9k2G3FvqPjE/aZdoI0uFv3S55xIw5YgnouF4/iFfSemadb6bbRW1tbx20EahUijXCqPQdMV5tHLMTmMvbY12XY46WCrYx+1xLsux5T8Mf2dfD/w/aG9mUazrEYJF3dICI2yCCidF+vJ5OCASK9ejRcLjp2IJ/WpAoH8OKUcAV9dh8LSw0OSkrI+hpUYUI8kFZCBQop2OPagnFA5rpt1NwxQOKWimAUUUUAFFFFABRRRQAUUUUAFFFFABRRRQAUUUUAFFFFABRRRQAUUUUAFFFFABRRRQAUUUUAFFFFABRRRQAUUUUAFFFFABRRRQAUUUUAFFFFABRRRQAUUUUAFFFFABRRRQAUUUUAFFFFABRRRQAUUUUAFFFFABRRRQAUmKWigBMce9NZQe3NPooAhkhV+q5+teR/E/wDZz8N+PfNureJdG1l23m9tY8eYc5JkQEByckbjhjxzgYPsVR7VOc9a5a+GpYmPLUVzGrSp1Y8s1c/O7xr8NfFPwn1VZL22lt1jkX7PqFpITEWGCCr9UYHs2G4JAxzXq/wt/at1HSPJ03xZE15ZqAiahEp85Pd1A+ccgZGCNrZDHNfV+paZa6raTW93bx3EEqlXjlQOrKeoIPUV82fE79kqOeSXUPB0wtZN2+TTJzuVgByI3JypOOAxK5PJXAr5GrluKy+ftcE7rsfOVMDXwc3Vwzuux6t4y8XaX4u+DnijUNIvYtRtJdJuv3kDZOfJJ2kdVbnlSAQe1fJ/7ORx8Z/DpOeWn+YDj/j3l/8A1fX8q5S6fxF8Pb3UNJnN3pM08L211ZOeJo2UoQRgq4wSAwyO47GszSdavdB1FL/T7l7W9iEgSdOHUMjIxGcdVZueozkYIFeJiczlia1KrKNpQ3TPLxGP9rWhOpGzifdvxH+OHh34a2rfbbn7TqKqSthbYaQnAIB6BByMbsZAOM18mfEv44+JPiXLLBcTf2dpGCW022JCYySPMfP7w4AznavCkL1Jz/A/wt8T/FXVJJ7SCWSOSQtdapdltm7jJLsfmbjou7HfbnJ+rvhh+zv4d+HbxXMkY1XVlJYXl0MhGP8AzzTOEwAecFjub5sHFeqquPzjRLkgenzYnMXZe7A8F+GH7L2veLSl7rqS6FpnJCSLi5lUnlQv8A5PLjIIHyla+sPA3w60DwBpq2mjWEVsrAeZMo3STHk7nc8t1OM9BwMDArpkjUDgYzzjpUuAa+lwWWUMGrxV5dz2cNgqWGV4rXuR+WvIxxTgoHanYFLXsnoWEwKMClooGJigcUtFABRRRQAUUUUAFFFFABRRRQAUUUUAFFFFABRRRQAUUUUAFFFFABRRRQAUUUUAFFFFABRRRQAUUUUAFFFFABRRRQAUUUUAFFFFABRRRQAUUUUAFFFFABRRRQAUUUUAFFFFABRRRQAUUUUAFFFFABRRRQAUUUUAFFFFABRRRQAUUUUAFFIaikkK9+DkUATUmMV8a/Hr/gqb8HvgtqVxo+m3Nz4+12Bmjlg0AqbWFx/C9yx2H0/d78Ec4r5ovv8AguDqplzafCK0iizx5+vu5/MW6igD9YNtMaMZJwCTX5Kt/wAFwPEmePhTpQGe+sSH/wBpUf8AD8DxKf8AmlWk/wDg3l/+NUrBufqF43+HGgePtPNtrNhHc4BCTfdkiJ7q4IIrhbL9lb4f2U8Mh0+4uBGd3ly3MjKxHTcM8/jX57f8PvvEn/RKtKz/ANhiX/41R/w++8SHr8KtKP8A3GJf/jVcdTB0KsuecVc55YelKXO4q5+sWn6baabbRW9tbxwQRrsRI1AVR6ADoKtCML049q/JT/h9/wCJB/zSrSR/3GJf/jVIf+C4HiXt8K9J/wDBvL/8arrUVFWjobKKirI/W7gDFHevyTT/AILf+IwRv+FOlke2sSj/ANpV0vhX/gt1aXGowp4k+FdxZaef9ZdaVrC3Ei8fwxPFGGOexkFUUfqTRXjHwA/a1+Gn7Sli8vgjxCl1qMMfmXOjXi+RfW6/Ly0R6qNwG9CyEnhia9mHTrmgBaKKKACiiigAooooAKKKKACiiigAooooAKKKKACiiigAooooAKKKKACiiigAooooAKKKKACiiigAooooAKKKKACiiigAooooAKKKKACiiigAooooAKKKKACiiigAooooAKKKKACiiigAooooAKKKKACiiigAooooAKKKKACiiigAooooAKKKKAI3fbnmvyq/4Ksftr6nbavdfBTwTfSWMEUYPifULZiHn3pkWSt2Tacyd2JCEgK6t+pmp30Glafc3102y2tY2nkb0VQST+ABr+fz9kzwof2qP22vD6eLMahFrWsXOu6ukgylwI1kunjYf3HZQhHo1AHv/wCx3/wSkvfix4ZsfGXxT1K/8M6FfRrcWOiaeES/uYmGVmldwwhQjBC7CzAk5Tgn7qsf+CYv7NNrAkf/AArRJioAMk+r37MxA6n9/jPfgAe1fUSx8gkDd3I6E4qQcUAfMi/8E0/2a06fC+0/HUr4/wDtenf8O1/2bP8Aol1n/wCDG9/+PV9NUhoA+ZT/AME1v2bP+iXWX/gxvf8A49R/w7X/AGax/wA0us//AAY3v/x+vpVyQMZ4PpWbYa/Zale31tbXKTzWUoinjU8xOVVgpH+6wOenbqDSuk0n1FdJpPqfPn/Dtj9mv/ol1l/4Mb3/AOPUv/Dtb9mzH/JLrL/wY3v/AMer6WHIzTxxRcZ8xv8A8E0v2amBz8L7Ue41O+H/ALXrj/H/APwSg/Z98W6PLbaR4e1LwdfHJXUNH1SaV84wAUuXlQr6gAE/3hX2bTWUHtTA/n++P/7NnxP/AGAvito2s2GsTCATtPofizS1MayFfvJJGc7G2sA0TFlZWI+cZx+v/wCxR+1LaftXfBq08RmKGx8RafIdP1vTon3CK5UAiRO4jkUhlz0JdcsUJK/t0/CbTvjF+yx8QNJu7UT3mnabNrOnSBQ0kV3bI0qbC3QuA0ZP92Rh3r85f+CMfjy60b9oPxP4VN0y6brmgvOYAuRLc28yGJsnkbY5bn/vrn2AP2cByKWkHQUtABRRRQAUUUUAFFFFABRRRQAUUUUAFFFFABRRRQAUUUUAFFFFABRRRQAUUUUAFFFFABRRRQAUUUUAFFFFABRRRQAUUUUAFFFFABRRRQAUUUUAFFFFABRRRQAUUUUAFFFFABRRRQAUUUUAFFFFABRRRQAUUUUAFFFFABRRRQAUUUUAFFFFAHE/G2U23wa8eTqSrR6DfOCDjGLdz/Svxh/4JGwib9snS2ZQxj0e/cE9jsAz+tfsv8e/+SHfEL/sXdS/9JZK/Gz/AIJDH/jMWy/7Ad9/JKAP3NQYAHpT6avWnUAFNbtTqic4BpXsBzPxG8Xw+BvCGpaxOVDW8ZMaH+OQ8IB9SQK+RvgL8UZ9C+J0k2pXJ8jX5Cl0+cL5zHKSH1IJI9gxPpXR/tafEYapr9p4XtZG+zaeVnucH70zA4Uj/ZUj/vs+lfPyN5bcBSe4xx26flX51mmbShjYxpv3YnxmY45rFRjTfwn6dW5zGmOmMdMD8KmHavMPgF8Qv+FgeArKeaUPqdp/ot2CckuvRj/vLtb8T6V6eBnHNfe4etGvSjUj1PraVRVYKaHUUUV0mxz/AI+tVvPA/iK2YArPp88RB6YaNh/Wvw0/4JVXrW/7bvgpBkC4ttRjOP8Arymcfh8lfuj4y48J63/15Tf+gGvwk/4JYDP7cnw//wCuep/+m+4oA/fSlpBxS0AFFFFABRRRQAUUUUAFFFFABRRRQAUUUUAFFFFABRRRQAUUUUAFFFFABRRRQAUUUUAFFFFABRRRQAUUUUAFFFFABRRRQAUUUUAFFFFABRRRQAUUUUAFFFFABRRRQAUUUUAFFFFABRRRQAUUUUAFFFFABRRRQAUUUUAFFFFABRRRQAUh6UtIelAHCfHr/kh/xC/7F7Uf/SWSvxr/AOCQnP7Ytl/2BL7/ANBSv2U+PX/JD/iF/wBi9qP/AKSyV+Nf/BIT/k8Sy/7Al9/6ClAH7ngYpaKQ80AB5Fcp8RvGVv4F8JajrM/zG3QmOLPMknRU9skgZ7da6rHBwa5zxf4G0Xx5YJY67ZC+s0lEwiMjKN4BAPysM8MeD61zV1KVNqnuZz5nFqO5+dWr6jea1qNzf3skk088jyySOCGZmOTnj6Y9BxVRThcnuO9fZvxD/Z78BaF4E8QahY6EsN3a2E80Li4m+V1jYqcb/UCvm34I+HdP8WfE/RtK1S3FzYXJm8yIsRnEMjDlenKg8HtX5VjcqrUa8KcpK8z89r4CrSrxhNrmkbv7N/j4+CviBFaTyldN1fbaSAEDa+T5b57AEsue2+vuiA5ROc8A8DGeP0ry/wD4Zr+HvU+H1PbH2mb/AOLr0+FBGqoudqjAyc5r9CyrCVsFSdKq79j7HL8PVw1N06ruTUUUV7h6pkeLxnwrrOf+fKb/ANANfhB/wSxOP25Ph96GLUv/AE3XNfu/4u/5FXWf+vKb/wBANfg//wAEsv8Ak+P4f/8AXLU//Tdc0AfvsOgpaQdBS0AFFFFABRRRQAUUUUAFFFFABRRRQAUUUUAFFFFABRRRQAUUUUAFFFFABRRRQAUUUUAFFFFABRRRQAUUUUAFFFFABRRRQAUUUUAFFFFABRRRQAUUUUAFFJRjFAC0UUUAFFFFABRRRQAUUUUAFFFFABRRRQAUUUUAFFFFABRRRQAUUUUAFIelLSHpQBwnx6/5If8AEL/sXtR/9JZK/Gv/AIJCf8niWX/YEvv/AEFK/ZT49f8AJD/iF/2L2o/+kslfjX/wSE/5PEsv+wJff+gpQB+6FFFFACbaRsCnUh6UrAcf8WMD4ZeK+P8AmFXX/opq+Nv2bzn40+HB73B/8l5K+yviz/yTLxZ/2Crr/wBFNXxr+zh/yWjw39bj/wBJ5K+Kzf8A37DnzeP/AN6pM+9lAAGKcBzz2pEPApwr7Rdj6NbC0UUVQzI8Xf8AIq6z/wBeU3/oBr8H/wDgll/yfH8P/wDrlqf/AKbrmv3g8Xf8irrP/XlN/wCgGvwf/wCCWX/J8fw//wCuWp/+m65oA/fYdBS0g6CloAKKKKACiiigAooooAKKKKACkYZBFLSN0oA8X1v9sn4J+GvEuoaBq3xN8PabrFhdPZ3drdXQjaCZGKOjkjAwwIJPSvTfDHi/RfGujW2seH9ZsNc0m4yYb7TbmO4t5cHB2uhKnByODXwJ8Dv2j/gp8H/Gf7Q2h/E3X9L03ULr4m61dx2d9pstyZLdjGgbCRsCCyuPXhjW3+y94in+GNh8e/iZ4L+Gvid/hprutae/hDwnpmnGCa6kMZhuLiK2YgRQSSPEd+MLGuduIytAH32DwKWvmjwl+1b4qt/iP4b8I/E74S6n8MpPFDyQ6Jqkmr2uqWc86Rl/JmeEjyZGVTtU5LEYGADjM8aftsajpHx68XfB3wl8LtZ8deN9FitLm3hs76C2triCWBJpZZZpcLAsZkiTJzvaQAYPUA+qqK8D8cfHr4kaBL4c0zw98Ddc8U+JL/SIdV1O3j1a1tdP0xmyr2pvpPklmR1YbVXkAMOCcbXwC/aFh+NcXiTT77w7feDPGHha7Sx13w9qUscr2runmROsyfJJE65KuuM4JxtwzAHsVFfE/gr/AIKFeJ/it8PZPGfgP4D+IvEug6dHI2t3I1a2tzaOhLNHbI433bLHtchF4LheSa1JP2/NU8QeEL3x94D+DXiPxf8AC3TYTPqHiqa+t9PZERQ1w0NrJmSdYRuVmT5S8bgH5SaAPsSivHPGH7UHgrwX8DtF+KdzNfXeg63DaPpVnZQB7/UZblQYLeGIn5pWyflzxtbJABrz6y/bB8VeFNa8PL8V/g3q/wAMfDWv3cen2PiCTV7bUYobqQgRR3SQ4a3Df3m4BODjBIAPp8yEE85x7VIK+Gfjp8fPi74Z/bE+Heh6F8OdZvdJWDV1t9It/EdrDB4lRYUIuCpfZF5ONwE2D8x2gmvZfiP+1HfeCtS8J+EtJ8Bar4t+K2vaYuqP4MsLu3jOmw8B3urpj5caK+6MOMhmU47EgH0FRXg3wc/aZuvHXj7UPh3428E6j8M/iLaWK6qmjXl3FfQ3lkXEfnwXMWVkAf5WGARnjOG28f4U/bP8RfEr4ia/4R8D/B/WPEcnhvxHcaFr2qyanb2dlYpFcNF5qySf65yqNIYUGVUoNxLUAfUztj2rnPAvxB8P/EzwvZeJPC2rW+uaFeh/s9/aNuilKOyPg47OjKfpW/tViDgHOO3Xnivlj/gl2it+w38NyRk51ME9/wDkJ3XU96APosePdA/4Ts+Cxq1t/wAJV/Z39sf2Vu/ffY/NMPnYx93zBtz610I7fSvlPIH/AAVJIx/zRzH4f20Kraf+3Rq3jfxj448GfDz4Q67428W+EtfvNIvrZNQt7GzighlMaXEl3NhFaV1fZCAzERSMcADIB9b0jdK8R+BP7TNr8XPEPiDwfrnhzUPAHxE8PIk2peGNXljkcQucLPbyx/LPF90FwBgsAeGUtwiftl+KPHeu6ynwh+Dmr/E/wro909jd+J01i10y2mnQ4kW1Ex/0gD+8pAJ6DBUsAe3eC/i9ofjnx/468Iab9r/tbwbcWtvqRmiCxF7iHzo/LYH5gF4OQMEd67tegzXxd+w/8QLX4qfH39pXxRY2Wo6VDfapoyvYarbGC6tpY7J4ZYZUOdrpJG6EdMjg4rp/EP7YfxA8N6Zq3iq4/Z38WQ/DvSTLLeaxe6nZ21/HbRE+dP8AYGbftAVmALjKgNkAkgA+p2fBxnvT15Ar4e/bI/aM8bafB8DdT+HOh6rf+FNf8T6Dfwa7p+rRWS62twJ3XSWgcq4WaPy2LSYTBAbGCa9e8XftTXnw3+HPhnUPFfgDVdO+IHiW5l0/R/ANldQ3t9cTqW/5axnYIgio7ychA43DPFAH0JRXzh4J/at11fiLoPgr4p/C/U/hVqviMumhXU+p2+pWV7Ki7mgaaDiKXBGEYDceAc7c0vGP7W/ilfGvjHRvhx8HtX+JWn+Dphaa5q1rqtvZLFcbBI8UEUnz3DorDIUDJ4HUFgD6corm/AnjFPHvg/R/EMGm6lo8ep2kd0LDWLU215b7hny5YjyrDvyR6EjmujzwDQAtJTWOcj9a801X9o74c6Jqt5p194ptLe9s5nt54WDkpIjFWU4XsQa0hTnUdoK/oZVKsKSvUdj03mkOfevKv+Go/hd/0OFkP+Ayf/E0f8NRfC4/8zhY/k//AMTWv1Wv/I/uZh9bw7051953HjTxKPB/hHXNeeH7Sml2M96YA20yCONn257Z24zXGfDH9obwZ8Vkji0nVBBqZHzabfYhuQeTwuSH4GTsLAZ5x0riviz+0V8Odb+GHjDT7DxRY3N7d6RdwQQruzJI0LKqjK9yQK/PKOR4GR4pHDoSyODhhXt5fk8sXTn7S8ZLa6PEx+brD1Y+y1XU/Y0SHbx1/PmpVbco9SK/Ov4WftleMfA/k2et7fFWlj5cXchS4j54Pm4JYck/MGPQDFfYvww/aF8G/FWOMaTqQhv2XcdNvQIbhfXjJDe+0nHf24MXluIwj96N13PQw2ZYfErSVn2PUBmlqFXzg54zUg7V5J61x1FFFMYUUUUAFFFFABRRRQAUUUUAFFFFABRRRQAUUUUAFIelLSHpQBwnx6/5If8AEL/sXtR/9JZK/Gv/AIJCf8niWX/YEvv/AEFK/ZT49f8AJD/iF/2L2o/+kslfjX/wSE/5PEsv+wJff+gpQB+6FFFFABSHpS0h6UAch8Wf+SZeLP8AsFXX/opq+Nf2cP8AktHhv63H/pPJX2V8Wv8AkmXiv/sFXP8A6KavjX9m/wD5LR4c+tx/6TyV8TnH+/Yc+bx/+9Uj72U4Ap4pi/dFOBr7Q+jWyHUUUVQzI8Xf8irrP/XlN/6Aa/B//gll/wAnx/D/AP65an/6brmv3g8Xf8irrP8A15Tf+gGvwf8A+CWX/J8fw/8A+uWp/wDpuuaAP32HQUtIOgpaACiiigAooooAKKKKACiiigApDS0lAHyZ+wxBFJ4g/aOkaFXdfi1rexivIOIeAa1f29PiH4q+G/wm0G88O61d+FtGvfEdlp/iXxLp1p9ouNG0mTes9zGoUlSpCDcAWBbC/MQR9OhAGLY5PWmyRJKpV1DKeCD0NAH5YfEDxF8NZvjF8AbLwF8RvHXxVnj8f6S2qeINZ1+81LTrRmZ1iiJZRCJ5cyFdgBCxScANX0/8C7WBv29v2nLllUzpY+GY1kJBKhrJyRnvnap7dBX1Rp+mWmmW4gs7WG0gBJEUEYRRnknA4qwYxg8UAfB3x2+JUc37WfiPwn8U/i14i+Efw903SbS78OQ6JePpSay7oftLy3irvYo52hAwBA4wQ++b/gnrqOj6l8dP2i7vw7L4gutAuX8Pvp954onuJb68gFvcok7PcYkZZNjMm7BCFBgAAV9xX2l2mpCMXdrDdCNxIgmjDhWHQjPQ1aEa8fKPyoA+SP8AgmxarbfsGeBwsCRPLFqskuBt3N9vuQCenYAf8BHpUP7AFtHc/wDBO3wlC6LKkmm6sjRk5Vgby7GD9elfXvlqAcKBQFB6igD8wdc+Huu+Lf8Agn3+zf4m0ka9cWXgzU7PW9Vh8ONt1FLJZJVe4txzmWEMCvGAGY5UA40/EP8Awoj4tWmheELD46/GL4sT+Jby3SPw5p2sG7eMear+fcpJbqsSRMokYvgrgEL1r9Kyg4OP1qpaaPZWcs8sFpBDJOd0rxRhWkPXLEdeSfzoA+Rv2rfGmkfCX9q79nzxx4suDpHhC0ttf0661iVHa2t55beLyUkKqdu7Bxkc4b+6ceV/HSx0PRf2qrL4s+JfHvjPwh8K/Hnhazh0zxn4Pu3tYoJxsaOC6cROyRyRlZFJC/MxyPlLL+isttFMhR41dDwQabcWcN5C8U8SSxSLtdHGVYYxgg9RyaAPiP8AZ60j4XfEL9pKy1jwf8Qfid8UdS8G6dcSjxHrGoC70KBpx5L2nnGNS0pDiQKmU/d53ZUiu8/YTgSNP2gSFy0nxe8ROxyTyHiA+nAH+c19PWNhbadbR21rbx2tvGNqQwoERR1wAOB1PSrHlqQRigBh3MvGQ3+ea+C/2Rvj34T/AGUfCOqfAv4taongTW/CWo3p0y41WNo7XVdPluHmjuIZRkMS0j8E5xtxzuC/exUAcDp6Vm6z4Y0fxJFHHq2k2OqxxNvjW9t0mVD6qGBx+FAHyL+zz4rH7Rn7Z/i/4zeGrO5/4VzpXhFfBmm6zdRtEmqz/bRcySwKyhjGhDKSe+31IXz/APZc/ab8E/BX4nftCaD4+c+FdP1P4na5caf4kvIn+x3swkVZbQyhNqPGqxyAM3InPQj5v0Gt7OG1hjhhhSKGMBI40XCooxgAdgMDgeleBfssfCHXvAEXxpt/FukQ29t4k+I+s6/p0byRTrc2E/k+VIQrNtLFG+VsMNvIHFAHlfw21qD9p/8AbE8QfE3wWbpfh5ovgqTwjH4oeB4U1O8luTK32Usq70iDMCxx8wHGGVqw/wBkn9pDwL+zF8Grf4QfFjVF+H3jbwVLd211Z6hbyKl9G9xLLHc2rqhEyOJDjbliQTjBUn7vhtooUVUjWJVUKFQYCgdAMdB7VBeaRY38sElzZwXEkLb42liDFG9Vz0NAHxD+yH8Rbvx78Tv2rfGXhzQLmyu7u40660nSNQha3luCthKLdpE4Kibakgz0EnXoa+f7z4ieEviF+zhr+peNvjP8QfFvxr1jTb2zbwDY6hc2cUGoMsiC2bTYFVRCuMvv+UqGyBkLX6zGJTngk+uearxaTZxXsl2lrEl1IoV5lQB2A6Anqeg/IelAHwJ8Yr1NC/Yr/ZB8U3gmXQvDGu+CtY1e/SKSVbC0jsyHnk2AkKC6LnuzBRywFO/a21PRPiP4q+C3x20PxT4kf4UaS+p6Vq3iXwO8sV3pYkzELlCI3Yxb0eORguMKACxZRX6AyW8cqsroHUgqQ3IweDSJAkcYjVAqAY2jgYxjH09qAPz88KWXwY+J3xl+HWlaD8X/AIq/GTVdO1WHxDAg1Zb7TNIe3BeOe8Z4VWNW5jIU7/3hGBuBqv8AGjxP8EbP4pfErW7P4n+Mf2f/AIqabLjUFUy28WtvHGBDP9jYMl3GwA2iMhmA3EYYE/oHYaRZaUrpZWdvZo7b2WCJUDN6nA6+9JdaNYXs1tNPZwTTWzboZZYgzRH1UnkH3FAHmX7LPi/xf4++AHgbxD49s/sXizUdPWa8i+z+Rk5YRyGPoheMI5AwMuQAowo9bHIFM8pd+cDNSUAMkGQa+B/iN+x98RPEnxD8T6vZWVg1nf6pdXcDPdKCySSuykg9Dgivvymlc134PG1cDNzpWu+5w4rB08XFRqH5y/8ADE3xOH/LjYD6XiUn/DE/xO/58bE/9viV+jZGKTrXrPiDF+X3f8E81ZJhk7pv7z81df8A2RPiJ4Y0DVNYvrOxFlY20l1Oy3ilhGilmxjvgH8a8bZR359OPTvjPvX6sfGdHf4QeOFjUu7aJfbVHc+Q+BXxJ8Lv2M/GfjdorrWz/wAIrpJP/L1GWupAPSLjaONuH2kZyAQa97AZ5z05yxckrWtY8DH5S4zhHDxve54JBC9xMsMSF5XYKqKpJJztHTrknH4+4A9++E/7HPjLxhcW+o62H8LacCJI/PUm8JHdU42n3faemAa+vvhd+z/4M+E8cbaRpqy6nGMNqd4FluWz1+bGEz0IUKDjkHFempGF4Axnt/n6V5eNz+dZOlRilHud+DyOMGqlZ6mJ4N8N/wDCKaBaaV/ad7q/kJsN3qE3mzSe7Nj/ADmt9RwKAPalHFfItuTuz66MVFKKFooopFBRRRQAUUUUAFFFFABRRRQAUUUUAFFFFABRRRQAUh6UtFAHBfHv/kh/xC/7F7Uf/SWSvxs/4JB/8niWX/YEv/8A0FK/ZP49At8D/iEB1/4R3UT/AOS0lfjZ/wAEh+P2xbEdD/Yt8P8Ax1aAP3PHSlpFOQM0tABSGlpDwRSA5D4tf8ky8V/9gq5/9FNXxt+zh/yWjw39bj/0nkr7J+LR/wCLZeKx/wBQq6/9FNXxr+zd/wAlp8N/W4/9J5K+LzdXx+HPm8f/AL3SPvYdBTgKap+UU5a+08z6NMdRRRTGZHi7/kVdZ/68pv8A0A1+EH/BLEf8Zy/D7/rnqX/puua/d7xeSPCusknav2KbJ9PkPNfhH/wSxUt+3D4AOOBFqR/D+z7n/P40AfvmOv4UtIvIBpaACiiigAooooAKKKKACiiigAooooAKKKKACiiigAooooAKKKKACiiigAooooAKKKKACiiigApMDOaWigAooooAKKKKACiiigAooooAKKKKACiiigApCKWigBhjVxyBUa2safdUKAMYH4f4D8hU2PajAzSfYWm40opxmlC4NOopjCiiigAooooAKKKKACiiigAooooAKKKKACiiigAooooAKKKKACiiigDnviHosniTwF4j0mEEy3+m3NqgHq8TKP51+G//AASp1yPQ/wBtLwnDO4jF/ZX9oCf732aSQD/yGK/eNxuBGfXkdcV+BP7WHwv8Q/sV/tg3GraDG1jbRaoviPw1dbd0RiMvmCM5+8I2DRMp6quT8rDIB+/S9v69adXi37MX7UvhD9qPwBa6/wCHb2GHVEjVdU0KSQG506bHzK44JQn7r4AYe4Kj2RZM9Dn6f/roAlpCMigHIpaTQGN4o0aLxF4e1PSpmkEN7byW0jQsA6q6lSVJBG4AnGRjOM15h4F/Zq8PeA/FNlr1jfarNdWhfy0uZIzGdyMhyBGp6MTwfTtXspQMDSCJQDgAfSuWphqVSoqk1qjGVGE2pSWqFUDpSikxgYxT66zawUUh7VC8uGIyPpQBxfxz8QReFPgt4/1mdwsWn6Df3TE88Jbu39K/Gv8A4JE+HZdb/bFsb1FJXSNFv76Q56BlWDJ/Gda+kv8Agqj+25oY8H33wa8E6rDqeqX7rH4hvrSTdHaQq242ocHmVmVQ4AwqhlbliF0/+CN/7Plz4W8IeI/izq9oYZ/EKjTNH3jDmzjfdNKMHG2SVUUccfZyRwwJAP0pX7opaQHI9KWgAooooAKKKKACiiigAooooAKKKKACiiigAooooAKKKKACq11exWcTSzzRwxL/AByMFA/E1y3xf+I9n8Ivhf4q8a6hEZ7XQtOnvmt1YK0xRCyxqTwC5AUE8ZYV8q/BP9kyw/aL8IaR8WP2gri4+IHifxNbJqlnost3NFpGi2kwDwwW9ujKA3lld28t83XcwMjAH2pHciVEeNg6ONyspyGHr/L86nHQZrwD4W/sf+DvgV8SP+Ek8AajrvhbRJraWK88JQ6hJLpNzM2Ns5il3bHXkDaw6gDADK9z4i/tofCH4VeJNY8OeIfFhh8R6TPDb3OjW+nXVxds8sImTy40iPmAxsrFkyq5G4gkAgHulFeHfET9sT4W/C2/0/TNd8RTtrV7aJfw6Vp+mXN7drAyhg8kUMbGMEHPz7c84HBNdz8Lvi74T+NXg2DxR4L1uDW9HlZozNGCjQyr96ORGAZHGQSrAHkHoRQB2rsV+lZGi+JtK8S29xPpGq2eqQQ3D2kktlMs6xzRttkiYqTh1IIZTyp614Vc/wDBQH4E22vz6aPHC3ENvcrZz6xbWF1LpkcxIwrXiRGHHIO/fsA6sBXmn7LZ0DU/2RPi82u63e6J4Yl17xRNe6zo8jLcWtp50jSTwsisxZUywwrdB8rZwQD7YU9KdXlfh74heB/hl8AfDniW58WufAtjodnJb+Itemfzrm28hPJllZlVnlkBU7Qu5nfAXPFc/wDDX9s/4SfFnxbF4Z8P+KWXXLiJp7S01XTrmwa8jXktAZ40Eny/NhSWxk4wDQB7pRXjvxM/ax+F3wd8Q3Wg+LfFS6ZrlvbQXR05bG5mnlSVmSPyljjbzWLI/wAqZIAJYAc0vgH9qr4ZfEzwb4n8T+HvEjXun+F4mm1qF7G5jvLBRGz/ALy2aPzjlUfBVTuKMF3EYoA9hqNyRnnA9a+Rf2Wf29vDnxx8a+LPC2patENXfxTqFl4Xt7LRb2MXelRRh4ZZnaMokhUSEh2Q8AbASM+iftyXElt+yN8VZYnaKZNDnZWU4KnjkHHvQB7uWBXG7r3rHv8AxRpWl6vpWlXur2VlquqmRdPsri4RJr0xpvkEKEhpNiAs20EgcnAr4++GX7Ef7OOv/DXwpqmp6SZNSvdJtLi7c+LNQjJleFWclRd4U5JOB+VbvxP8L6T4M/ap/Y40HQ4Ps+jadB4mtLSNp3n2QrpKhQZJCzPwByxJPegD69U5AOcjFOrzD4xftG/D34CwWT+NfEMel3GoMUsrCKGS5u7ojr5cEStIwHQtt2gkAkEgGD4OftLfDz48/wBoReDPEK6hqGncXmmXVvJa3tv05eCVUcLkgbgCueM5oA9Worz3wj8cvBXjr4Y3HxD0TXo7rwfbRXU0+pSW8sPlJblxMWjkRZFK7GOCmSBkAggmPTPj34F1j4Ot8VLTxBHN4CWym1BtYFvMAIIiwkbyinmZVkYbdu7IxgnFAHo1FZfhnxFYeL/D+l67pUxudL1O1ivbScoyeZDIgdG2sAy5VgcEAjvitSgApCaQ1CbmMNgyJn0zUOSirt2E2kTZNBJwai+0p/fT/vqmtcxn/lomP96k6kO4uZFTWdYt9D0u+1G9lEFlaRPPNNgny0UbmbABJwATwDUGg+KNN8SWMd7pt9Be2sg+WWCQOv0OO/t1HcCsT4rzxt8NPFQVgSdKuh8jYP8Aqm4FfA/hXxhrXg6+S80bUJ7GcY3eSfkcDsy5ww9M+9eBmGbLA1IxaumePjMxjhJxT1TP0rRgVBzn3FOz718wfDn9r2KYxWfi6x+zScKL+zyyMemWjPzL/wAByPYV9DaF4o0zxLYx3um3sN/ayD5ZYGDL9OO/sefavRw2PoYqPNTkd1DFUsQrwZsg0tRg5HtThXpHYOooooAKKKKACiiigAooooAKKKKACiiigAooooAKKKKACiiigBuAAcV4v+0/+zF4R/ap+HknhjxPE1tc27mfTdZtwPtGnzYwXXPBUjAaMnDADowVl9qpCAT70Afgl8UP2Hv2hP2UPFUus6BZaxf2dqXNv4r8FSSkrEMFmcRYlgABG7eAmQcMwBNZVt/wUa/ac0KIW4+I+oKqDb/pulWUz8cctJATn681+/5iU7uOT1PrTlQDoKAPwEH/AAVE/acQY/4WZ0450HTP/kaj/h6N+05/0Uz/AMoGmf8AyNX7+YFGBQB+Af8Aw9G/ac/6KZ/5QNM/+RqP+Hov7Tf/AEUz/wAoGmf/ACNX7+YFGBQB+Af/AA9F/ac/6KZ/5QNM/wDkaj/h6N+05/0Uz/ygaZ/8jV+/mBTelAH4Cn/gqF+03Icf8LLb8NB0z/5GrN1b9qX9p/8AaNjPhqPxT4u8Tm6Uh9M8OWflPMuDuDJaRqXQgnIYEV/QZjPvSlAwwRx6UAfj7+yX/wAEmPE/ijWrHxJ8Zof+Ed8OxlZl8OQXAN7fDCsqytGT5EZHBGfN4ZcRnDj9dNG0qx0XSrLT9OtYbPTrSFLe2trdAkUMaKFVEUAAKFAAA4wBV7aM5pRxQAAYpaKKACiiigAooooAKKKKACiiigAooooAKKKKACiiigAooooA8r/ae+G138YPgD4+8HaYyf2pqukzRWQkkEam5Ub4QzH7oMiqCewzXDfsUfHfQviv8FfDmjrcDTvGXhaxh0XxD4eu1MF7YXVughffAwDBGMZYHGBkqfmVgPop0DA5GTXi/wAWP2Nvgz8cdfGu+M/Adlqet/x6jbzT2VxLgAKZZIHjaQqqgKXJKgADFAHzprPwi8JfAH9tv9nPS/BN/q1rJrQ19tWsbzX7u8MscdgfIZ45pW2qGMuDgAkHrtyO8+Afh2wuf2+v2otcltI31Szi8NWdvcugLxJJpweVVP8ACGMcWexKD0r1L4Q/sdfBn4EasdV8E+ANO0nVc5j1GZ5ry5hypU+VLO7vHlWYHYRkE5zmu90H4a+GvDHjPxR4r0zSxa6/4oNq2r3olkY3Rt4vKgyrMVXahx8oGe+TigD50vPiZ8Svir+0r8RPBXw5bwh4Hs/BcNhaav4h1zTZL/U7wzRtNEIYkkiHlJukwHY5LZGN5A+f/h9d+ItY+FX7bll4Z8SQeLdY+1sx1DRLH7JDdTNasl48ECPIFdxHINyu24qGyCcD7M+Ln7HPwc+OviFNe8b+B7XWdZEIga9S5uLWSVBjAkMMieZjAA37iABjFdb8Ofgf4F+EV7rNx4N8OWnh19Y+z/bYrIusMnkReVFti3FEwnHyBd3JOTzQB5/+zlq3w5T9kDwZd2E2ix+AovC8K35uHh+yIogH2tbksdm7d5ol3n72/dzmvm39mttFb/gmZ8bn8OLKnh82/i46asx/eLa+RN5IY84ITbye9fRd/wDsDfs/6n4yfxTc/C/SH1SSdbl0DzLZvIMYLWgk8gg4yVKYOTkHJr0bSPgf4I0TwD4h8E2OhJb+F9eN7/aWnrcTbZzd7hc/Nv3LvDn7pG3Py44oA+Dv2gW1qP4A/sUzx3WkWPhmNdIN/d+IoXn0mG8OnwCye6jQrmPJn5JAHUkDNei/Hb4bfFbxnP8ADu3+IXxR+FuhSw+JrK88P3Vrpd1a3kl9G25YoGe5IJcHBUA7sqOpXP13L8KvCVz8O7fwHdaBZ33g+Cwi0yPR71PtEP2aJVWOM7yS20ImCSTlQc5Ga86+Ff7E/wAE/gr4mTxF4Q8A2Wm61EhSG8uLm4vHgyeWj8+SQRtgkbkw2GYZwSKAPOtK8P6fqX/BTrXNTubaK4utN+G1u1rLKmWt3kvmVmTIyp2b1yP4XZehNP0i2h0T/gqDrkFhEtpBq/wpi1HUI4htFzcxaoII5XA+8yxAID6YFfRlt8NfDdr8Q7vx1Fpip4qu9OTSZtQ82TLWqSGRY9m7Zw7MchQecZIpo+F/hkfE8/EQaUB4xOkf2CdT86TP2LzvO8nZu2f6z5t23d2zjigD55/YSnji1X9oyB5E87/hbuvN5bP8+CIcHHuAcewPpXb/ALdSf8YffFjHUaDP049P8K6Ifst/CwfGOD4qL4QtYfH0JZ11iGWWMlmRkZ2iVxGzFWILFCeeua7nxx4H0X4j+EdV8L+I7EanoWqQNbXlo0jxiaNvvDcjKwz6gg0AfNXwo/YI+AGufC7wdqd98MdKur680ezuZ5nknzJI8CszH953LE/jUnxp0i08O/tffsh6Xp0K2un2C+JrW2hQ5EcSaQqooznoABk+lfUGjaNZ+HtGsNL0+H7Np9jAltbwBiRHGihUXJyTgADJ/OsXXvhr4c8T+MfC3irU9MF3r/hg3TaReNNIptTcRiKfCqwVtyAD5wcdsdaAPmDwBc6NZ/8ABSn4rxeMpFTxRdaBo58Df2gWydNWBhfLa5+UZuNxK/fO2bGV8zJ8YJNKuv8AgoV8C18KOjeL7bTtWPioaeSXTSzbgW32vbxsErHZu7lT3Q19CfGL9n34e/H/AEe10v4geFbTxHbWrmS2eZnimgJADeXLGyyIDgZAYA4Gc4FV/gx+zf8ADX9n7Try0+H/AIRsvDiXrB7maNpJribH3Q00rNIVGSQpbAJJAGTQB8HfEaS98D+N/i1+y/pYksh8TPGWn6lo8sKbRDpeobpdTaMYCiOP7K8W0cHe2OmBU8caZN4c1TxZ+x1ptrNaWPibx9YXulLbbj5Hhy5BvboRAY+W3e3dDngh2yeCx/RHU/g14N1z4n6L8Rb7QYZ/GujWcljYauzv5ltC4cMiqG2dJJBkgkb2AOCaXUfgz4N1f4q6V8SLzQoZvG+l2L6bZ6wXkDw27byyBA2w5MknJUkb2GeaAOvsoY7W3hghiSCKNAiRRrhUUDAUDsB0qwelAGBS0ARSAgH6cV8C/ET4d+K7z4g+J7iHw3rM8E2qXMkcsdjKyOrSsVZSFIII7j2r7+IGKjMKseVFeVj8CsfBQlK1jz8ZhFi4qMnax+cf/Cs/GGf+RV1sj/sHzf8AxNL/AMK08YD/AJlXXP8AwXzf/E1+jXkJ6CkMKH+EZrwv9XY/8/GeX/YsP5mfnDP8P/FNjbSXNz4b1eGCGNpJJZbCVURRySxxwPX2/XBD7zkHcOzHkn6+vX6dK/Q34sRr/wAKy8WDG0DSrrocH/VN37V8N+B/hd4l+Id0I9IsJZIgwEl9IMQIflOS+cMQGBKqS3evnczyqWHqQhSvJs8fMMulTqRhTvI5V3VEy52jBznrgcnivQ/hH4c8e3+ri58Gi6sGZgJb0/u7fHyg7yQVYqD93Dn/AGa97+HH7KOjeHzFe+IZjrmoJhjABst42wvRer4IIyx2kE5X09207TbXTraK3toI7eCJQiRRKFVRjgADp+lengMirKSrVJW8jtwOU1ItVKjsUvCqavDotqmuXFtcakE/fSWcRjiLf7IJJ/HjnsOg2xzjmm4BHIpyjGAPTpX30I8kVE+tiklYdRRRVlBRRRQAUUUUAFFFFABRRRQAUUUUAFFFFABRRRQAUUUUAFFFFABRRRQAUUUUAFFFFABSYpaKAEwKOlLRQAUUUUAFFFFABRRRQAUUUUAFFFFABRRRQAUUUUAFFFFABRRRQAUUUUAFFFFABRRRQAUUUUAFFFFABRRRQAUUUUAFFFFABRRRQAUUUUAFFFFABRRRQAUUUUAJj3pMYp1IelArFW+sLfULSe2uoUmt50aOSKQbldSMFSD1BBxTdP0210y2itrSCO3t4kCRxRLtVFHAAA4A9quHpSAVDim02hWW4nlqAOKAozT6KsdhNoHakGM06igLBRRRQMKKKKACiiigAooooAKKKKACikbpXi/7UH7UfhL9lLwFF4m8VC6vGurpbSz0ywCm5unPLbQ2AAihmLMQOgzllBAPaaK4f4O/FCy+Mvw08OeNdMtZ7Kx1u0S8htrop5katnhtpIyMdjXbNkp3/CgB1FeBfDf496/4x/ay+LvwvurTTk0HwfY6XcWVzbxOLmR7m3SVxKxcqQCx27UXjqTXvZJK+9ADqK8f/aS/aW8M/sveDdO8SeKrPVr2yv8AU4tKij0i3WeXzHR23EM6jaBG3fJOAAc5Hq7TCMrvYJ2Geh+lAFmim9R7mvA/jT+1FrHwj8ajQbH4M/EPx3CbaO4/tbwxpX2m0y2792Xz94beR7igD36ivijS/wDgpX/bXibVvDun/AT4q32v6QI21HS7fSEe6s1dQY/NjD7k3DkbgM1798BvjdqHxpsdVub74d+Lfh61hKkaw+LLH7K90GUndFydwGME+4oA9ZopAciloAKKKKACiiigAorkvir8QbP4U/DbxP4w1BGmstD06fUJIozhpBGhYIpwcMxAUe5FeIfsqfEP4+/GCHS/HXjmx8EaD8Pde05r/S9J0sXT6tGkjK1sZXZjFtaI7iQcnK/KhJAAPpyikXkD1paACiiigAooooAKKKKACiiigAooooAKKKKACiiigAooooAKKKKACiiigBDTA43kZBI6gdR9aewyK+Uf2ufFPxCPxw+BXgLwL47n+H6eMJtajv8AULfT4L1iLa2imi+SZcf3xwV+/wDxcUAfVpOadXxjrHin4z/sufEv4a2/i/4k2/xY8G+Nteh8MS299otvpl/p1xMD5U0TwcSKCDvL5xgAYLbl+sLvxhommaxbaTd61p1tqdzjyLGa6RJ5AehWMkEjg9Af8ADeoqBZCcdSPXHf8KyLXxhoeqajdadaa3p93e2vNza290jywD1kUElf+BAUAb1Fec/FC18c6q3hCTwL4m0nQoI9ctptXOo2wnF9p3PmwRHnDsMEEYJxwy4we1uNVtrFXa5uobdY4/OkaeRU8tP7zZPCj1OKANGisvSNe0/xFp8d9pd9a6lZS/cubSZZY3AODhlOOue/aodf8W6N4Vgim1rV7DR45ZBEj39wkAkYnAVS5GTzQBtU1mx0Garw3kU7sscqSMoBwrA8HkH6Yryr9rXxvrXw5/Zs+Ififw7etpuuaXpMtzZ3aojmGQYw211ZTj0INAHrfmc4IP5H/CkMoGMHIzgACvj/AMC/A/4/eMPBPhzX3/aj1a1bVdPt75oV8I6dIIzLEr7Qc84zjOOevtWz8RLvxL4S/aY/ZM8NX3iu/wBYlni8QwaveA/Zo9Vkh0sFZZYIyEJ3HeBghSeKAPqsHI9aWs7VtasdBsZLzUr630+ziGXuLqVY40HqzMQB+NR6V4g07XtPjvtLv7XU7KQZjubSZZYn+jLkH8KANWiqkN5HNGJEdWiIJEisCpweefagXcbQiZJEaEgN5gYbSD3z+X50AW6KZG6yKrKwZSMgjuKcaAFpM009KTcKBD8ikam5HqKTIHXFGoyOe4WCJ3dgiLklj2A702O4Eh+Uhu/B7c+3t+tcR8dm2fBnxyVOH/sS9HB/6YPXwB8Lv2nPG3wt+zQW1+dW0aIBRpuoElQgAGEfrEQFwMEooydp4reFNzjc+jyzI8RmlCpUoauPQ/T4E8U7NeDfCj9rfwZ8R2trO6u/+Ef1mUBfsN+wVHfKj93JgBslsAHDHb90YNe3xXCygGN1kzn7pznHFZOLT1PGxOFr4SbhWg0y0eRS0ztTupqTkFooooGFFFFABRRRQAUUUUAFFFIelAFHV9VtdF0271C/uYbOxtYmmnuLhwkcUajLMxJAAABJyegr8zfEum3f7ZOhfHP9oLxDayHwB4a8J65pHw9067RhHKVtZlm1Io4A3EjAJUndhcgwKa+uv24vhJ8Qfjn8Cb3wX8OdUsdJ1DU7yGPUXv53t0lsQHZ4g6IzZL+VkADcu9ScE185/Ezwt+1L8PP2VfF/habQPg3pvgDSvCd9Z3EGiyan9qisVtX80xb22tLsDEFs5dstnJNAH0v+wmAf2RPhQdxb/iRxcsTk5J6jPX+X4172ehr4c/Ybsfjp4g/Zg0TS5NW8I+EvDM3hpI/C2vaXaS3up20pfiW5hmbyXwN3yjH6V7N8J/hF8cfCXjO01Lxr+0APH3h+OOQS6H/whtjp3nMUIRvPiYsu1iGwBztxQB8vX/xvvvg7/wAFEvjvZ+HfBupfEHxr4itNDttH0DT5BAJCljC0kks7qUgiVcFnOeWXjG519R1f9tz4kfBbV9Gl+OXwUl8D+C9Tuhbf8JTo+txapBYs+NouI41JUAnBbcM7W2K+MDA+GHjbwt4d/wCCpPxw0nWZbaz8Qa1o+kwaRNcAIZdlpbtNAjdSz5jbb/F5XtXov/BR7xf4X8M/si+OrXX5LeSfWbZLTTbSRx5txdmRDGYwc7jGVEhI6LGTxgUAdd+1f+09D+zN8MtE8YQ6CniyDVdYtdKWJNQ+zKqTJI/nCQRybgBHwAP4s5GOfln/AIKjeO/iH5XhDRJPheF8Had430m60rxUdftv+JrdC2lItfsuN9v8zzL5rkr+5z0cCq/7cujaj4e/4J5/ALSdYt5bTVrDUPDdrd206srxSpp0qujBsHIIIIPIxzXpv/BVe8h034Q/DC6uJVtra3+I2lSyzNwiIsN2SzH0GKAPov4JeO/iJ450vU5/iF8Mh8Mr23nVLaz/ALft9W+0ptBL7oABHg8bW5PWvTNgJ3Y5PfNRrJk8DHGQD1/zzU47fSgD4o/ZwjVv+CjH7Uf/AF7aL/6TR13n7V37Zqfsu+MvA2hSeCr/AMWv4rivEtU0u4/0k3UQQQW8cIjbzDLLLGmdwKgkgOQEbhP2b/8AlI1+1J/166N/6TR1sftHada6l+3t+ytFdQR3EXleJZdsqBhvSxV0YAg/MrKrA9ioIwRQB23gz45fGKHwZ4+8R/EP4G33h06NDDcaPoug6xa6xe6mreYJVVY2XmPEZxgMwY7FZhtPnGvftd/H/wAHeFp/G/ib9mafT/BNtbLeXotvFdtNqNlbDDPM8PlhmKoSTFtUrtbeVAJHoX7eH7R+r/sv/AG98WaDYw3+uXN7DplkbqMyQQPIGZpJFBGQEjfGSPmKZyCQfEfjf8FfiN4Z/Z48a+L/AIs/tKeINQaLRJmfT/D9ra6Zps8jRMqWhCITKJXZUzhCwbkDNAH0z45/aM0vw/8As0X3xm8P2D+I9Hj0dNatbNpjatcQsFO0sVYxkBuflOCpFeGeG/22PjD8W/C9p4w+Fv7O954j8GbP3l/qHiK2spbqVEHnR20TrudEk3IsgU79jDarAqOXskH/AA56Zg5A/wCEKcZBx/y1PP8ASvqL9lHT4NP/AGXvhHBBAsKHwjpblFGMs1pEzE/VmJ/E0AUP2ev2ovDH7QPwQX4kWayaJZWqzJrFleEs+mzwqGmjZgBvAUq4YL8ysuQrEqPD9C/bc+NPxH8FSfETwB+zpN4g+HWLqS1uZvFFtHqN9DDJIhkS2RHZHHltmJRIzMQELjBa7+wbLpeneAv2iZdXktbfRbf4o+Ijdy3zqlvHbrFblzIzfKEC7txbgDOe9cVF8B/HfwL+Euo+OP2b/jqt38Nre2k1+x8J+JbaO9sWtwXnmihu2y8KkeYNoVWLE73DbnAB0f7c3xd8b+JP2TtUu/D3wp1O48J+I/Dr3GranrOoRaZd6BuZPkmspFMkjjnOw4+uQa6T9kz43eJPDH7MOh6x8TPAifD3wJ4W8G6ZPYeJW1yC/Gq2yWyjzVtoh5kLMgjIjbLEyBQCeK534kfGmT9or/gmB4q8f3dgmmXureHrg3VrGcxrNDcGGVoyScoXiLKMkhSqkk81y37TGgax4h/4JIeE4tIWSf7P4T8N3d5FESTJbRw2zSE+oXCyHPAEZPagDuPC37YPxy+LGlJ4p+Hf7Oc2peCJ3LWN3r3ie20+71CDOFkWJlPlg54OXU9mbk16z+y5+1Xov7TWha00Gkaj4U8V+HrgWeveGdXXFzp85yMZwCyFkkXLKjgxuCi8V2nwR8Z+GfHfwi8J614Tlt5PDsumW62sVseLdVQL5LD+EpgoVOMFSD6V8lfs36nZfET/AIKX/Hbxl4TKah4StNCtdHu9VtZg1vPff6Io2/3v+PWdcrlf3ZOfmGQDaP8AwUJ8VeK/id43+Gfw9+DF74t8eeHdavtPFuNait7Q2ds7Rm9mmkjQRF32BYcnOTmQHbv6/wCOP7amq/sy+CvhXq3xC8COl/4oLxaxY6XqCTPpcqRq7RxbVZbhju2gb1GR9/nI4H/gn1Zx/wDDSn7YE+z963jQIWyeQLi+I/Vifxq9/wAFB7KC/wDjL+ynbXCK8MnjyEOp/iHm2xI/HGPxoAm1v9uP4q/CuDSPFXxX+Adz4J+GOoXEFvNrcGvw391polBKSTWyJ5hHTKlUK5A++Qhiv/24vjDqHgm7+Jfhn9nW71L4VwQTX0Op33iOC1v7myTcftP2bYzom1d20B8jkNjkdp/wU8jB/Ya+JbEAso05hx3GpWte0fDjT7e1+CHhWyhhVbaPw5awpH/CE+zKAo9sDGPpQBF8PPjl4U+JPwb034oafqP2Hwjeae+oyXepAQG1jj3CYS8kKY2jdWIJXKEgsOT86aB+2h8XvjJFceIvg38ALjxT8PY7iSG113XNft9Lk1QR4WQwwScqA5ZQ+WXKMG2uGRfJvg3oWveJ/wDgjNfaf4cmlj1VtN1R0EJbfJDHqc0s8SgckvEkq477yOc1v/sqeAfjR8S/2ffA+q+B/wBqyGy8P2+lW1iNLg8A6fc/2VJFEqNaO7uHdoiAu5hlwFkGQwNAH03+zJ+1DpX7SPh7VymkXfhXxd4fuv7P8QeGNSbdcadccjBOAWQlXAcqpyjgqCMV4L4S/wCChXxB+M9zr+h/Cr4FXXifxNod1cQaj5+vQ29jZxrII4XM0qRiSSQiU+SNpCruDN8wXr/2R/hQnhX43/FzxRffG7Tvi14vvmtdM8QwWGjwaa1lcQR7YvMSGVlzsygwoGUkBJZXAxP+CWFnDF8K/ijcJEqTzfEPVRJIOSwWO32jPcDJx9T60AfYfhy71C/0HTLrVrFNM1Wa2iku7JJhMtvMUBkjEgADhWyNwAzjNadIOgpaACiiigAooooAKKKKACiiigAooooAQ18ZftleGr3xj+1V+y9o+neIdS8KXtzceJAmraP5f2m3xYQsSnmI6fMAVOVPDHoea+zH5U15t44+CmlePviv8OvHt5e3tvqXgeS/ewt7dk8mc3cCwyeaCpb5QvG0rznOelAHn/hX9j7QdG+JGlePvF/jPxh8Stf0VZG00+LtSils9OlYYaaG3ijjRH2gcndj72AwUj5XvNL8H/Gnwz4w1v4X/skHx14S8R3d7LP4/wDE2vW2l3k9wWPm3Fq115s6RbskFSi5UqVB3gfpTKizxsjBXjYYKnkMD1BHpivlnR/2EItB8L3fgGw+KvjOz+ENxLLJJ4KjktwPLkfe9qL3y/tC2zZZXjVwWV2y3zMWAPDPEXxe8TeIf+Cd/wAAbe98SzaEfHPiDS/B+u+JBcGG5t9P82eOSYTFhtcx2qB3ckFWkDfe49Z/aS/Yu+DPhb9mfxbP4e8K2XgzUPDOg3t9p3iDSP8AR75HS3k+Wa4H7ydJBujdZS+5ZD3OR0vxA+HXwh/Zq/Y9g8A/EFtV1r4X2ssWm3E09u8s6+feiVJZWtkTyxHI4beAuNigBnKhvm347+Ffg/oPwE1a3b9pHxd8WIWsJrbw/wCDW8XW+oC/v3TZZq8VsqyzLHMY2wSQpTkY+RgDsPFYx+yr+wzjGB428F9OB/x6y+tdF8WPhB4e+Mn/AAUv0PSPFFr/AGnoWn/DOPVp9IdyLa+eLVplijuE6SxK0iybGyrNGm4EAg+seEP2bU8UfAD4BeHfFc97peqfD59C1zybNkBa+srfb5MhZWymXcNtweBhq9E/4UxpJ+Pv/C2ReXv9u/8ACMnwt9kyv2X7P9r+0+Zjbu8zfxndjHbPNAHz98NvAOifBj/gobrnh3wTptt4X8M+Ivh2NZvNF04eVaPfw6iIElWFcImI2b5U2/ec45JPPfsrfCrwt+0zrvxT+KHxV0G18Z+KR4r1Dw7baf4giF1BodjbFPKs44XXy1ZdxJfbuO7PVnL/AFLN8H9Lb47L8VRd3p12Pw03hlbLcn2X7O10tz5mNu7zN64znG3tnmvljUtI+Afin41+PNW8K/GrW/gr40S8ex8UaZpurxaPHqNxHvX7T5F3GVkbDN+9jB5Yvjc5ZgC1+zP8JfDXwW/bv+KXhjwnes+hQeE9PmttKkuZJv7HEk7MbVWkLMFJzMBkACcdc17N+3dz+yD8V8gYGhzdRkdv85rwr9hnwt4Zl/aa+MPiHwJqWoeJvB2n6fY6E/i7Ubt7x9d1Is013cG4bAkYHYpKjYQUZcKy5+vvi/8ADWx+Mfwy8SeCtVubmy07W7N7Oe4sSonjVupQsCM8DqDQB85/Cr9ka91f4WeELxfjx8Y7JbrRbOUW1p4hthFCGhQ7EBtiQi54BJOAOTV/4y6e2jfte/shae15c6i1qniaA3d6++e4K6Qi75GAALHGScDk9K+l/CfhuDwj4W0bQrZ3lttMs4bKJ5cFmSONUUtgAZwvYAcniuS8Z/BzSfGvxV+Hfj28u72HVfBDag9jBC6iGUXlv5EglBUk4UArgjnJORxQB84R+ENF/aU/bq+KOh/EWOHX/D3w00/SRoHhO6LNZTTXcHnzX0sG8pLIhYxZKldsiAruUGo/EHgTRv2Z/wBtr4RJ8NbRPDOjfEeDVbDxD4Y05THp8htYFmhuo7ZfljkUkAlAAVBAwXct7V8X/wBmax+JHjbTfHeheJ9a+H3xF0+1OnxeIdDdCZ7UsX+z3EEgaOeLcd+1hnKjnAAqt8Jf2XNO8C/EK5+I/ibxTrXxF+ItxaixTXNbMccdlbEljDa20KrFCpPJCgnJYggO2QD5Du/FOofBb4T/AB1/Z00uU22vXXjGDw/4Sg52x2OukyRKpHaOIXTMw6MMcGs/UdY1bwD+zj44/ZYs7+dvFMPjm18DaLcTj942k6lJ9qhmlwvRoBch8LgArjpgfaniv9lDwZ4w/aQ8M/Gq/wDtw8UaDZfY7e2hMYtZiBMFllUoXZ185sEMPupx8tJ4g/ZS8G+Iv2ltB+N9y16vijRrH7FDZq0Rs5TtlQSupTcZAsxC4YAbVOMigD1zwv4esfCPh3SdC0uH7Npml2cVlaw5z5cUaBEXPsqitU0xB06/jnNPPSgCORiFJHavzr+Jn7UHxQ0P4i+KNNsPFElvaWWq3VvBEtnbt5caTOqrkx5OABycmv0WYZBrhr74JeAtWvri9u/B2hXV1cSNLNPLpsLPK7HLMzFcsST1Pv61tTlGPxHuZVjcPgqjniKSmmtmfn3/AMNbfFwf8zdN/wCAFt/8bo/4a1+LhH/I3Tf+AFt/8br7+/4UD8Of+hH8Pf8Agrg/+Jo/4UH8OR/zI/h76nSoP/ia39rSPqf9YMrWv1Jfcfnprn7TfxQ8TaPfaTqXiaS6sbyB7e4hNlAokjZSrLlYwRkEjjn05rzAZ6k/j1/Xj/P41+k3xl+CvgXR/hL4xvbDwhodneW2kXc0M8Gnwo8brCxV1IXIIIBBHSvzk0vTL7WtQgstPsri+u5mIitrSEySuQCSFUcnAHPHOBg9a3pyjZ2PteH8zweIo1J0aSppWvtYq55J9fWvYvgz+0R8RPBOrWek6PJc+JbRmEaaJcRvMzKAu5YmUF0IRflAyoGTtOK7/wCFn7DOva08N74zvTotmQT/AGfZssly2M9XG5V/hPRjg4ODX2F8PvhL4T+GViLbw7o1vYB1xJMBuklwSRvkOWbljjJ4yccVnUqQSsePnvEWXyg6Kgqj/BfM0fBOuapr/h60vtX0WXQL+RP3lhNMkpjOOzIcEHtwD6gdB0adulNChRwMfSpF6CuBs/HpNSk3HRdh1FFFIQUUUUAFFFFABRRRQAUUUUAN2gdqw/HHhLT/AIgeDte8L6vG02k61Yz6beRo5RmhmjaNwGHIO1jyK3qbtGc4GaAOY+HPgDRvhf4J0Twp4ft3t9E0i1W1tIppTI6xjOAWOSep5J7mumKApgcdOlOwM5xS0AeAfEj9iP4Q/FfxX4n8R+KPDT6jrXiMWv2u9F3LG8TWyBInhKsDEwVVB29QDnOawvAX/BPn4V+C/Gun+LNQGv8AjjXdNYPp9x4u1aTUFsmBBUxIQF+UjI3hsHBHIBr6bKg0gQDtQB5x8bfgV4R/aA8L6f4e8aWU17pllqEWpwx29y9uwnjV1Rty4JADvx9Ku/GD4O+FPjr4Dv8Awh4y0ldW0W7Ku0RdopI5EOUeORSGRlYcEEAgkHKswPd4FJsXBGODQB5b8Bv2dvCn7O2g3+k+FDqckF9OtxPLqt/JdyFlQIuGbhQFAGB2Ar1LooowMg8Zp1AHnXhT4IeFfBfxS8Y/EHS7WeLxP4sW3TVLmS4d45FhQJHtQ8JgAdOuKteJfhH4b8V/Evwb471G0lk8R+Elu00qZZ2RYhcxeVNuQHDZT1BxXdbRmjAoA5b4k/Djw78W/BWq+EvFumRax4f1KMRXNrLkbgCGBBBBRlZVZWBBDKCORXz54c/4Jv8Awg0a5tW1NPEXi2ws1ZbDSfEetS3djp4Klf3MHC8A4G7djIxyAa+rAoFGBQB5Xa/s6eDLT4Fn4QpZXTeCDZPp5tGvHaYwM+9h5uc53E++OnpXceEfDGn+CfCOjeG9JjeLStIsYdOtI2cuywxRqkYLNySFVRk9fxrc2j0owBQB5z4D+Bng74d6N4w0nSdJEml+K9VvNZ1a0v3NzFdT3Sqs+VckbHVANnTBPFeGz/8ABMr4Mtc3UNofFWl+HLuXz7jwzY+IJ49LmcdC0edxI6cNwAAMYFfXBUHrRgUAcD4g+C/hHxD8Jrn4aS6Qlr4Mmsf7NOmWLtAqW4wAqsuCOgyc5z3Jrc8L+CNG8J+B9K8JWFmraBpenRaTb2twTKPs0cQiVH3Z3/IoBz159a6LaM5xzRQB8m6r/wAE0vg/ealqEukP4p8IaZqEhkvdE8P65Lbafc5PIaI7sDttUgAYC4AAHvXwk+DPg74GeD4PC/gfQ4NC0WNzKYYizvLIQAZJJGJZ2IAGWJOAAMAADuMA0Y4oA83+GnwJ8JfCTxT448Q+G7O4ttU8ZaidU1h5bl5Vmn3SNlVOQgzK/A9cdhUvxK+CPhX4ta94M1rxDZzXOo+ENSXVtIkiuXiEdwCpBYL94ZReCO1ehlQaTaD1FAHFfFv4V+Hfjf8AD7VfBPiu2lvPD2qiIXMEUzQswjlWVMOhBGHjXp2BzXQ6do1rpGh2ukW0ZFha26WkUTOSRGq7QCxyT8uOa1Ni+go2gDjigDhvg/8ACPw58C/h9pngnwlbSWeg6aZTbwyzvM48yVpXJZiSfmdsfkK8P8Vf8E4fhDrviHU9W0hfEPgZdUOdQ0/wnq72Fpec/deEAqq9flQKOegNfVJXPXNLgUAee/Bv4HeCfgF4RXw34E0KDRNNDmWUIWkluZcYMksjks7HgZYnAAUYAADvhB8F/C3wM0fV9J8I2c1lZapqk+sXMc07zFrmYIJGBYkgfu146fjmvQCBjpmk2D0oAUdKWk6UtABRRRQAUUUUAFFFFABRRRQAUUUUAFNKA/WnUUAJtGKb5a9cc+tPooArXdjbX1tNb3MEdxbzIUkilUMrqRgqQeCCDjFcF4b/AGdvhZ4M19Nd0D4ceFdF1lCWTULDRreGeMkEEq6oCucnOMcE16NRQAxUAPT1pfLXOcU6igBmxQuMDHpXDeO/gZ8OviffRXvi/wACeHPE15EuyO61bS4bmVV/uh3UnHt0rvKKAMvQPDmleFNKtNK0TTLPR9KtVKW9jYW6wQQrknaiIAqjJJwAK0iintTqKAEoKg0tFADSoOfegoG6jPsadRQA3y1x0H0oKq3JFOooASgjvS0UAIQKTFOooEN/D9aD9KdRSsMwvFugW3i3wzq+h3jyR2epWktpO8JAdUkQqxUkEAgE4JBHqKxvAPwn8K/DSxFt4f0aCwVl2vIoLSSYJI3OxLNyzdTxnjgDHZlF704AYqk2tEaRrVIxcE7J72IvLULgjI9KeoAp9FIzeo3g0vSlooFYKKKKBhRRRQAUUUUAFFFFABRRRQAUUUUAFFFFABRRRQAUUUUAFFFFABRRRQAUUUUAFFFFABRRRQAUUUUAFFFFABRRRQAUUUUAFFFFABRRRQAUUUUAFFFFABRRRQAUUUUAFFFFABRRRQAUUUUAFFFFABRRRQAUUUUAFFFFABRRRQAUUUUAFFFFABRRRQAUUUUAFFFFABRRRQAmKBxRRQAtFFFABRRRQAUUUUAf/9k=;" vertex="1" parent="1">
          <mxGeometry x="720" y="559" width="120" height="91" as="geometry" />
        </mxCell>
        <mxCell id="hVZLC0Kb5BfLQizBKbEV-89" value="&lt;b&gt;&lt;font style=&quot;font-size: 10px;&quot;&gt;&lt;span style=&quot;text-align: center;&quot;&gt;Supervised Fine-Tuning&lt;/span&gt;&lt;/font&gt;&lt;/b&gt;" style="text;whiteSpace=wrap;html=1;" vertex="1" parent="1">
          <mxGeometry x="716" y="539" width="140" height="23" as="geometry" />
        </mxCell>
        <mxCell id="hVZLC0Kb5BfLQizBKbEV-96" value="" style="sketch=0;outlineConnect=0;fillColor=#e51400;strokeColor=#B20000;dashed=0;verticalLabelPosition=bottom;verticalAlign=top;align=center;html=1;fontSize=12;fontStyle=0;aspect=fixed;pointerEvents=1;shape=mxgraph.aws4.documents;rounded=1;shadow=0;glass=0;strokeWidth=0.6;spacingLeft=36;spacingRight=1;spacing=1;fontFamily=Helvetica;labelBorderColor=none;fontColor=#ffffff;" vertex="1" parent="1">
          <mxGeometry x="859.44" y="600.5" width="12.31" height="15" as="geometry" />
        </mxCell>
        <mxCell id="hVZLC0Kb5BfLQizBKbEV-97" value="" style="sketch=0;outlineConnect=0;fillColor=#60a917;strokeColor=#2D7600;dashed=0;verticalLabelPosition=bottom;verticalAlign=top;align=center;html=1;fontSize=12;fontStyle=0;aspect=fixed;pointerEvents=1;shape=mxgraph.aws4.documents;rounded=1;shadow=0;glass=0;strokeWidth=0.6;spacingLeft=36;spacingRight=1;spacing=1;fontFamily=Helvetica;labelBorderColor=none;fontColor=#ffffff;" vertex="1" parent="1">
          <mxGeometry x="911.8399999999999" y="600.5" width="12.31" height="15" as="geometry" />
        </mxCell>
        <mxCell id="hVZLC0Kb5BfLQizBKbEV-98" value="" style="shape=mxgraph.signs.healthcare.medical_records;html=1;pointerEvents=1;fillColor=#f0a30a;strokeColor=#BD7000;verticalLabelPosition=bottom;verticalAlign=top;align=center;rounded=1;shadow=0;glass=0;strokeWidth=0.6;spacingLeft=36;spacingRight=1;spacing=1;fontFamily=Helvetica;fontSize=11;labelBorderColor=none;aspect=fixed;fontColor=#000000;" vertex="1" parent="1">
          <mxGeometry x="879.5899999999999" y="563" width="20" height="20" as="geometry" />
        </mxCell>
        <mxCell id="hVZLC0Kb5BfLQizBKbEV-103" value="&lt;font style=&quot;font-size: 5px;&quot;&gt;&lt;i&gt;Fake&lt;/i&gt;&lt;/font&gt;" style="text;html=1;align=center;verticalAlign=bottom;whiteSpace=wrap;rounded=0;fontFamily=Helvetica;fontSize=11;fontColor=#333333;labelBorderColor=none;" vertex="1" parent="1">
          <mxGeometry x="857.75" y="614.5" width="17.69" height="11" as="geometry" />
        </mxCell>
        <mxCell id="hVZLC0Kb5BfLQizBKbEV-104" value="&lt;font style=&quot;font-size: 5px;&quot;&gt;&lt;i&gt;Real&lt;/i&gt;&lt;/font&gt;" style="text;html=1;align=center;verticalAlign=bottom;whiteSpace=wrap;rounded=0;fontFamily=Helvetica;fontSize=11;fontColor=#333333;labelBorderColor=none;" vertex="1" parent="1">
          <mxGeometry x="909.1500000000001" y="614.5" width="17.69" height="11" as="geometry" />
        </mxCell>
        <mxCell id="hVZLC0Kb5BfLQizBKbEV-105" value="&lt;font style=&quot;font-size: 5px;&quot;&gt;&lt;u&gt;Chosen&lt;/u&gt;&lt;/font&gt;" style="text;html=1;align=center;verticalAlign=bottom;whiteSpace=wrap;rounded=0;fontFamily=Helvetica;fontSize=11;fontColor=#333333;labelBorderColor=none;" vertex="1" parent="1">
          <mxGeometry x="851.59" y="593" width="30" height="10" as="geometry" />
        </mxCell>
        <mxCell id="hVZLC0Kb5BfLQizBKbEV-106" value="&lt;font style=&quot;font-size: 5px;&quot;&gt;&lt;u&gt;Rejected&lt;/u&gt;&lt;/font&gt;" style="text;html=1;align=center;verticalAlign=bottom;whiteSpace=wrap;rounded=0;fontFamily=Helvetica;fontSize=11;fontColor=#333333;labelBorderColor=none;" vertex="1" parent="1">
          <mxGeometry x="902.9999999999999" y="590" width="30" height="13" as="geometry" />
        </mxCell>
        <mxCell id="hVZLC0Kb5BfLQizBKbEV-107" value="&lt;font&gt;News Article:&amp;nbsp;&lt;font style=&quot;color: rgb(0, 0, 153);&quot;&gt;[Label is&amp;nbsp;&lt;b style=&quot;&quot;&gt;Fake&lt;/b&gt;]&lt;/font&gt;&lt;/font&gt;" style="text;html=1;align=left;verticalAlign=middle;whiteSpace=wrap;rounded=0;fontSize=6;" vertex="1" parent="1">
          <mxGeometry x="855.59" y="580" width="78.41" height="13" as="geometry" />
        </mxCell>
        <mxCell id="hVZLC0Kb5BfLQizBKbEV-109" style="edgeStyle=orthogonalEdgeStyle;rounded=0;orthogonalLoop=1;jettySize=auto;html=1;exitX=1;exitY=0.5;exitDx=0;exitDy=0;entryX=-0.012;entryY=0.522;entryDx=0;entryDy=0;entryPerimeter=0;fontFamily=Helvetica;fontSize=11;fontColor=#333333;labelBorderColor=none;endSize=2;" edge="1" parent="1" source="hVZLC0Kb5BfLQizBKbEV-88" target="hVZLC0Kb5BfLQizBKbEV-56">
          <mxGeometry relative="1" as="geometry" />
        </mxCell>
        <mxCell id="hVZLC0Kb5BfLQizBKbEV-110" value="&lt;font style=&quot;font-size: 7px;&quot;&gt;Preference Data&lt;/font&gt;" style="text;html=1;align=center;verticalAlign=middle;whiteSpace=wrap;rounded=0;fontFamily=Helvetica;fontSize=11;fontColor=#333333;labelBorderColor=none;" vertex="1" parent="1">
          <mxGeometry x="857.75" y="625.5" width="62.25" height="12.5" as="geometry" />
        </mxCell>
        <mxCell id="hVZLC0Kb5BfLQizBKbEV-111" value="" style="endArrow=classic;html=1;rounded=0;fontFamily=Helvetica;fontSize=11;fontColor=#333333;labelBorderColor=none;endSize=2;" edge="1" parent="1">
          <mxGeometry width="50" height="50" relative="1" as="geometry">
            <mxPoint x="920.15" y="633.69" as="sourcePoint" />
            <mxPoint x="940.15" y="633.69" as="targetPoint" />
          </mxGeometry>
        </mxCell>
        <mxCell id="hVZLC0Kb5BfLQizBKbEV-112" value="&lt;font style=&quot;line-height: 0%;&quot;&gt;&lt;font style=&quot;font-size: 7px;&quot;&gt;BCO&lt;/font&gt;&lt;br&gt;&lt;/font&gt;" style="text;html=1;align=center;verticalAlign=bottom;whiteSpace=wrap;rounded=1;fontFamily=Helvetica;fontSize=11;labelBorderColor=none;strokeColor=none;fillColor=#d5e8d4;" vertex="1" parent="1">
          <mxGeometry x="944.8000000000001" y="581.25" width="44.8" height="13.5" as="geometry" />
        </mxCell>
        <mxCell id="hVZLC0Kb5BfLQizBKbEV-115" value="&lt;font style=&quot;line-height: 0%; font-size: 7px;&quot;&gt;CPO&lt;/font&gt;" style="text;html=1;align=center;verticalAlign=bottom;whiteSpace=wrap;rounded=1;fontFamily=Helvetica;fontSize=11;labelBorderColor=none;strokeColor=none;fillColor=#dae8fc;" vertex="1" parent="1">
          <mxGeometry x="944.8000000000001" y="594.75" width="44.8" height="13.5" as="geometry" />
        </mxCell>
        <mxCell id="hVZLC0Kb5BfLQizBKbEV-116" value="&lt;font style=&quot;font-size: 7px;&quot;&gt;CPO**&lt;/font&gt;" style="text;html=1;align=center;verticalAlign=bottom;whiteSpace=wrap;rounded=1;fontFamily=Helvetica;fontSize=11;labelBorderColor=none;strokeColor=none;fillColor=#ffe6cc;" vertex="1" parent="1">
          <mxGeometry x="944.8000000000001" y="608" width="44.8" height="13.5" as="geometry" />
        </mxCell>
        <mxCell id="hVZLC0Kb5BfLQizBKbEV-117" value="&lt;b&gt;&lt;font style=&quot;font-size: 10px;&quot;&gt;&lt;span style=&quot;text-align: center;&quot;&gt;Reinforcement Learning&lt;/span&gt;&lt;/font&gt;&lt;/b&gt;" style="text;whiteSpace=wrap;html=1;" vertex="1" parent="1">
          <mxGeometry x="870.5" y="540" width="140" height="23" as="geometry" />
        </mxCell>
        <mxCell id="hVZLC0Kb5BfLQizBKbEV-118" value="&lt;font style=&quot;font-size: 7px;&quot;&gt;Policy Optimizers&lt;/font&gt;" style="text;html=1;align=center;verticalAlign=middle;whiteSpace=wrap;rounded=0;fontFamily=Helvetica;fontSize=11;fontColor=#333333;labelBorderColor=none;" vertex="1" parent="1">
          <mxGeometry x="939.0799999999999" y="625.5" width="60.25" height="12.5" as="geometry" />
        </mxCell>
      </root>
    </mxGraphModel>
  </diagram>
</mxfile>
